<svg xmlns="http://www.w3.org/2000/svg" width="916" height="817"><path fill="none" stroke="#DEE3FC" stroke-width=".79" stroke-miterlimit="10" d="M169.032 261.573v-13.566a2.4 2.4 0 00-2.401-2.401h-3.492c-1.022 0-1.927-.696-2.155-1.692a48.028 48.028 0 00-6.042-14.666c-.554-.889-.45-2.035.291-2.775l2.456-2.456a2.402 2.402 0 000-3.397l-9.591-9.591a2.402 2.402 0 00-3.397 0l-2.453 2.452c-.74.741-1.887.845-2.776.291a48.023 48.023 0 00-14.668-6.049c-.996-.229-1.691-1.133-1.691-2.155v-3.481a2.401 2.401 0 00-2.402-2.402h-13.564a2.403 2.403 0 00-2.403 2.402v3.48c0 1.022-.695 1.926-1.691 2.155a48.048 48.048 0 00-14.671 6.048c-.889.554-2.035.449-2.777-.292l-2.449-2.45a2.402 2.402 0 00-3.397 0l-9.591 9.591a2.402 2.402 0 000 3.397l2.452 2.453c.741.74.846 1.887.291 2.776a48.066 48.066 0 00-6.043 14.668c-.229.997-1.133 1.692-2.156 1.692h-3.487a2.401 2.401 0 00-2.402 2.401v13.566a2.402 2.402 0 002.402 2.402h3.489c1.021 0 1.926.694 2.155 1.691a48.037 48.037 0 006.045 14.665c.555.888.449 2.036-.292 2.776l-2.455 2.456a2.402 2.402 0 000 3.397l9.591 9.592a2.402 2.402 0 003.397 0l2.458-2.458c.741-.74 1.887-.846 2.776-.292a48.034 48.034 0 0014.663 6.039c.997.229 1.691 1.132 1.691 2.155v3.499a2.402 2.402 0 002.403 2.402h13.564a2.402 2.402 0 002.402-2.402v-3.5c0-1.022.695-1.926 1.691-2.155a48.039 48.039 0 0014.662-6.039c.889-.554 2.035-.449 2.775.292l2.459 2.459a2.402 2.402 0 003.397 0l9.591-9.592a2.402 2.402 0 000-3.397l-2.458-2.458c-.74-.741-.846-1.887-.292-2.775a48.05 48.05 0 006.044-14.664c.229-.997 1.133-1.691 2.154-1.691h3.495a2.4 2.4 0 002.402-2.401zm-55.109 31.464c-21.123 0-38.224-17.134-38.224-38.258 0-21.091 17.101-38.226 38.224-38.226 21.125 0 38.225 17.134 38.225 38.226 0 21.124-17.101 38.258-38.225 38.258z"/><path fill="#DEE3FC" d="M340.952 275.353v-15.3a2.709 2.709 0 00-2.709-2.71h-3.938c-1.155 0-2.173-.783-2.431-1.907a54.208 54.208 0 00-6.816-16.542c-.625-1.003-.508-2.296.328-3.132l2.77-2.77a2.708 2.708 0 000-3.832l-10.819-10.819a2.71 2.71 0 00-3.833-.001l-2.766 2.767c-.835.836-2.129.954-3.133.328a54.173 54.173 0 00-16.545-6.823c-1.123-.258-1.907-1.278-1.907-2.431v-3.926a2.71 2.71 0 00-2.709-2.71h-15.302a2.709 2.709 0 00-2.708 2.71v3.926c0 1.153-.785 2.172-1.908 2.43a54.132 54.132 0 00-16.549 6.823c-1.002.625-2.296.507-3.132-.329l-2.762-2.763a2.71 2.71 0 00-3.833 0l-10.82 10.818a2.708 2.708 0 000 3.832l2.766 2.766c.836.835.954 2.129.329 3.132a54.117 54.117 0 00-6.817 16.545c-.258 1.124-1.279 1.907-2.432 1.907h-3.934a2.709 2.709 0 00-2.709 2.71v15.3a2.71 2.71 0 002.709 2.711h3.936c1.153 0 2.173.782 2.431 1.907a54.244 54.244 0 006.819 16.542c.625 1.003.508 2.296-.328 3.131l-2.77 2.771a2.708 2.708 0 000 3.832l10.818 10.821a2.711 2.711 0 003.833 0l2.772-2.773c.834-.835 2.128-.955 3.13-.329a54.216 54.216 0 0016.541 6.811c1.124.259 1.908 1.278 1.908 2.432v3.947a2.71 2.71 0 002.708 2.71h15.302a2.71 2.71 0 002.709-2.71v-3.948c0-1.153.784-2.173 1.908-2.431a54.175 54.175 0 0016.539-6.811c1.002-.625 2.295-.506 3.13.329l2.774 2.775a2.711 2.711 0 003.833 0l10.819-10.821a2.708 2.708 0 000-3.832l-2.772-2.772c-.836-.835-.953-2.128-.329-3.131a54.143 54.143 0 006.817-16.54c.258-1.125 1.278-1.907 2.431-1.907h3.941a2.713 2.713 0 002.71-2.713zm-62.162 33.059c-22.482 0-40.683-18.236-40.683-40.72 0-22.449 18.201-40.685 40.683-40.685s40.684 18.236 40.684 40.685c0 22.483-18.202 40.72-40.684 40.72z"/><g fill="#A4AFFF"><circle cx="52.824" cy="673.071" r="7.417"/><circle cx="692.621" cy="115.522" r="4.653"/><circle cx="14.149" cy="17.599" r="4.653"/><circle cx="60.241" cy="25.541" r="4.653"/><circle cx="14.149" cy="87.843" r="4.653"/><circle cx="180.186" cy="340.059" r="4.653"/><circle cx="9.497" cy="680.487" r="4.653"/><circle cx="209.74" cy="33.321" r="7.417"/><circle cx="711.58" cy="370.792" r="9.925"/><circle cx="51.364" cy="291.006" r="5.996"/></g><path d="M28.642 183.56h-12.48a1.454 1.454 0 01-1.455-1.455v-12.479c0-.803.651-1.455 1.455-1.455h12.48c.804 0 1.455.652 1.455 1.455v12.479c0 .804-.651 1.455-1.455 1.455zm20.587 0H36.748a1.455 1.455 0 01-1.455-1.455v-12.479c0-.803.652-1.455 1.455-1.455h12.481c.802 0 1.454.652 1.454 1.455v12.479a1.454 1.454 0 01-1.454 1.455zm20.586 0h-12.48a1.455 1.455 0 01-1.455-1.455v-12.479c0-.803.652-1.455 1.455-1.455h12.48c.804 0 1.455.652 1.455 1.455v12.479c0 .804-.651 1.455-1.455 1.455z" fill="#FFF"/><path d="M689.816 168.802h-12.479a1.455 1.455 0 01-1.456-1.458v-12.479c0-.802.65-1.454 1.456-1.454h12.479c.806 0 1.453.652 1.453 1.454v12.479a1.452 1.452 0 01-1.453 1.458zm20.588 0H697.92a1.454 1.454 0 01-1.451-1.458v-12.479c0-.802.65-1.454 1.451-1.454h12.484c.802 0 1.454.652 1.454 1.454v12.479c0 .806-.652 1.458-1.454 1.458zm20.586 0h-12.482c-.8 0-1.453-.652-1.453-1.458v-12.479c0-.802.653-1.454 1.453-1.454h12.482c.803 0 1.455.652 1.455 1.454v12.479c0 .806-.652 1.458-1.455 1.458zM58.209 631.962H45.728a1.456 1.456 0 01-1.455-1.454v-12.481c0-.803.651-1.453 1.455-1.453h12.481c.804 0 1.455.65 1.455 1.453v12.481c0 .801-.651 1.454-1.455 1.454zm20.587 0H66.314a1.456 1.456 0 01-1.455-1.454v-12.481c0-.803.652-1.453 1.455-1.453h12.481c.803 0 1.455.65 1.455 1.453v12.481c0 .801-.651 1.454-1.454 1.454zm20.585 0h-12.48a1.456 1.456 0 01-1.455-1.454v-12.481c0-.803.652-1.453 1.455-1.453h12.48c.804 0 1.455.65 1.455 1.453v12.481c0 .801-.65 1.454-1.455 1.454z" fill="#DEE3FC"/><path fill="#3945BA" d="M616.142 764.238H319.76c-25.829 0-46.766-20.937-46.766-46.765V57.77c0-25.829 20.938-46.767 46.766-46.767h296.382c25.829 0 46.768 20.938 46.768 46.767v659.704c-.001 25.828-20.939 46.764-46.768 46.764z"/><path fill="#FFF" d="M614.644 753.534H321.256c-22.623 0-40.962-18.34-40.962-40.964V58.561c0-22.622 18.34-40.962 40.962-40.962h293.387c22.624 0 40.964 18.34 40.964 40.962V712.57c0 22.624-18.339 40.964-40.963 40.964z"/><path fill="#DEE3FC" d="M639.178 57.278v653.25c0 15.32-12.421 27.74-27.74 27.74H324.464c-15.32 0-27.741-12.42-27.741-27.74V57.278c0-15.321 12.42-27.741 27.741-27.741h47.855a7.015 7.015 0 016.273 3.874l5.082 10.144c2.315 4.682 7.095 7.614 12.292 7.614h143.968c5.199 0 9.978-2.932 12.294-7.614l5.08-10.144a7.016 7.016 0 016.272-3.874h47.856c15.321 0 27.742 12.42 27.742 27.741z"/><path fill="#DEE3FC" d="M528.367 39.301H412.415a4.882 4.882 0 010-9.764h115.952a4.883 4.883 0 014.884 4.882 4.883 4.883 0 01-4.884 4.882z"/><path fill="none" stroke="#698BD1" stroke-linecap="round" stroke-linejoin="round" stroke-miterlimit="10" stroke-dasharray="2.837" d="M593.623 715.595H335.597c-10.136 0-18.354-8.218-18.354-18.354v-91.109c0-10.137 8.218-18.354 18.354-18.354h258.026c10.136 0 18.355 8.217 18.355 18.354v91.109c.001 10.136-8.219 18.354-18.355 18.354zM580.544 401.94H452.547c-7.313 0-13.24-5.927-13.24-13.239v-63.262c0-7.311 5.928-13.239 13.24-13.239h127.997c7.313 0 13.241 5.928 13.241 13.239v63.262c0 7.313-5.928 13.239-13.241 13.239z"/><path fill="#4B5A9B" d="M608.104 566.516H343.745c-8.712 0-15.774-7.063-15.774-15.775V439.242c0-8.713 7.063-15.775 15.774-15.775h264.359c8.711 0 15.775 7.063 15.775 15.775V550.74c.001 8.713-7.064 15.776-15.775 15.776z"/><path fill="#7F95F4" d="M611.979 427.646v111.563c0 8.696-7.054 15.727-15.751 15.727H332.992c-8.697 0-15.75-7.03-15.75-15.727V427.646c0-8.698 7.052-15.751 15.75-15.751h263.235c8.698 0 15.752 7.052 15.752 15.751z"/><path fill="#FFF" d="M419.059 543.311h-77.551c-5.88 0-10.648-4.769-10.648-10.648v-77.55c0-5.882 4.768-10.646 10.648-10.646h77.551c5.88 0 10.647 4.764 10.647 10.646v77.55c0 5.879-4.767 10.648-10.647 10.648z"/><path d="M510.97 456.973h-68.3a3.363 3.363 0 010-6.726h68.3a3.363 3.363 0 010 6.726zM479.845 470.4H442.67a3.364 3.364 0 01-3.363-3.362 3.362 3.362 0 013.363-3.364h37.175a3.364 3.364 0 010 6.726zm114.275 0H493.527a3.362 3.362 0 010-6.726H594.12a3.36 3.36 0 013.362 3.364 3.362 3.362 0 01-3.362 3.362zm-93.932 13.424H442.67a3.362 3.362 0 01-3.363-3.361 3.363 3.363 0 013.363-3.362h57.519a3.362 3.362 0 11-.001 6.723zm48.824 0h-36.16a3.363 3.363 0 01-3.362-3.361 3.364 3.364 0 013.362-3.362h36.16a3.364 3.364 0 013.362 3.362 3.363 3.363 0 01-3.362 3.361zm45.108 0h-33.299a3.362 3.362 0 010-6.723h33.299a3.36 3.36 0 110 6.723zm0 13.427H442.67a3.363 3.363 0 110-6.724h151.45a3.362 3.362 0 010 6.724zm-68.096 13.425H442.67a3.362 3.362 0 110-6.722h83.354a3.36 3.36 0 110 6.722zm68.096 0h-54.658a3.361 3.361 0 110-6.722h54.658a3.36 3.36 0 110 6.722zm-102.475 13.428H442.67a3.363 3.363 0 010-6.726h48.975a3.362 3.362 0 010 6.726zm62.229 0H504.9a3.364 3.364 0 110-6.726h48.974a3.363 3.363 0 010 6.726zm40.246 0h-28.418a3.364 3.364 0 010-6.726h28.418a3.362 3.362 0 013.362 3.362 3.362 3.362 0 01-3.362 3.364zm-83.15 13.425h-68.3a3.363 3.363 0 110-6.725h68.3a3.363 3.363 0 010 6.725zm83.15-80.556h-68.301a3.363 3.363 0 010-6.726h68.301a3.362 3.362 0 010 6.726z" fill="#B2C1F9"/><path fill="#3052CE" d="M611.979 427.646v4.688H317.243v-4.688c0-8.698 7.052-15.751 15.75-15.751h263.235c8.697 0 15.751 7.052 15.751 15.751z"/><g fill="#DEE3FC"><circle cx="552.773" cy="422.481" r="3.651"/><circle cx="571.454" cy="422.481" r="3.652"/><circle cx="590.134" cy="422.481" r="3.651"/></g><g fill="none" stroke="#495AD6" stroke-miterlimit="10"><path stroke-width=".896" d="M408.491 401.94H350.16c-8.65 0-15.663-7.012-15.663-15.663v-58.332c0-8.652 7.013-15.665 15.663-15.665h58.332c8.651 0 15.666 7.013 15.666 15.665v58.332c-.001 8.652-7.016 15.663-15.667 15.663z"/><path d="M365.34 344.144l-12.917 12.917 13.019 13.019m27.869-25.936l12.919 12.917-13.02 13.019m-7.835-25.936l-12.097 25.936" stroke-width="1.672" stroke-linecap="round" stroke-linejoin="round"/></g><path fill="#B2C1F9" d="M611.979 93.436v182.405c0 9.902-8.018 17.918-17.918 17.918h-258.9c-9.878 0-17.917-8.016-17.917-17.918V93.436c0-9.901 8.039-17.919 17.917-17.919h258.9c9.9 0 17.918 8.017 17.918 17.919z"/><circle fill="#F0F4FF" cx="552.286" cy="133.15" r="42.715"/><path fill="#FFF" d="M490.492 293.759H335.16c-9.878 0-17.917-8.016-17.917-17.918v-28.718l67.972-117.742c3.549-6.154 12.443-6.154 15.991 0l51.324 88.892 38.116 66.022c1.839 3.156 1.555 6.748-.154 9.464z"/><path fill="#F0F4FF" d="M557.478 293.759h-148.54l43.592-75.485 23.481-40.677c3.198-5.544 11.194-5.544 14.394 0l67.073 116.162z"/><path fill="#3B47BC" d="M737.588 632.7h114.513v172.095H737.588z"/><path fill="#495AD6" d="M852.101 632.7h43.847v172.095h-43.847z"/><path d="M858.379 639.311h32.192v5.491h-32.192zm0 11.796h32.192v5.493h-32.192zm0 11.8h32.192v5.494h-32.192zm0 11.799h32.192v5.491h-32.192zm0 11.8h32.192v5.493h-32.192zm0 11.799h32.192v5.491h-32.192zm0 11.798h32.192v5.492h-32.192zm0 11.799h32.192v5.491h-32.192zm0 11.797h32.192v5.493h-32.192zm0 11.801h32.192v5.492h-32.192zm0 11.797h32.192v5.494h-32.192zm0 11.799h32.192v5.491h-32.192zm0 11.8h32.192v5.493h-32.192zm0 11.798h32.192v5.491h-32.192z" fill="#B2C1F9"/><path fill="#281616" d="M718.986 804.795h58.199s3.252-10.363-3.797-23.2c0 0-4.686 3.755-18.717 1.214 0 0-5.854 4.972-9.899 6.916-4.063 1.967-27.354 6.541-25.786 15.07z"/><path fill="#002C54" d="M723.045 640.691c3.759 22.43 21.103 98.313 28.56 143.14 13.628 1.162 20.171-.401 23.641-1.202-.681-15.63-2.022-53.021-1.866-69.42.26-27.713 1.561-64.257-10.64-84.312l-41.021 3.23c.25 2.164.479 3.924.679 5.186.195 1.207.422 2.322.647 3.378z"/><path fill="#281616" d="M613.717 804.795h58.202s3.25-10.363-3.797-23.2c0 0-4.687 3.755-18.717 1.214 0 0-5.856 4.972-9.898 6.916-4.066 1.967-27.359 6.541-25.79 15.07z"/><path fill="#052635" d="M647.718 782.52c11.123 2.754 19.175 2.487 22.99 2.057 3.095-18.019 7.983-57.666 12.381-76.25 6.826-28.884 13.507-68.609 8.866-82.783l-40.35-10.132c-.135 1.276-3.421 122.854-3.887 167.108z"/><path fill="#052635" d="M808.311 574.049c-.81-7.975-1.743-13.799-1.743-13.799l-45.082 11.034-38.295 8.726c-14.195 3.162-31.347 6.969-46.465 10.388-16.966 3.855-28.23 16.74-24.514 33.731l4.251 20.605c23.73-.322 135.299-11.018 144.844-15.837 10.779-5.446 14.027-24.696 7.004-54.848z"/><path fill="#002C54" d="M875.608 574.049c-.812-7.975-4.697-16.529-4.697-16.529l-42.128 13.765-38.295 8.726c-14.197 3.162-31.347 6.969-46.468 10.388-16.965 3.855-28.229 16.74-24.512 33.731l4.251 20.605c23.729-.322 122.913-3.78 144.842-15.837 10.587-5.819 14.031-24.697 7.007-54.849z"/><path fill="#E5918F" d="M749.428 509.438s20.023-9.044 25.533.027c3.017 4.969.932 14.191-5.896 18.063-6.831 3.873-45.423 20.194-81.844 29.298 0 0-1.558-5.07-4.065-10.395 0 0 16.34-6.776 32.585-18.184 16.241-11.41 33.687-18.809 33.687-18.809z"/><path fill="#E5918F" d="M754.433 446.912l-17.162 68.542s1.773 17.329 19.274 8.822c17.5-8.505 29.097-63.112 29.097-63.112l-31.209-14.252z"/><path fill="#FFF" d="M783.466 485.246a116.141 116.141 0 01-6.103-1.66 114.993 114.993 0 01-5.712-1.83c-16.306-5.591-25.118-12.304-25.118-12.304 5.125-22.288 11.301-37.252 16.792-47.114.149-.243.295-.464.418-.73.146-.245.29-.49.439-.734 2.955-4.905 7.199-9.032 11.937-12.425.487-.343.951-.658 1.439-1l2.028 35.785.339 3.687 3.541 38.325z"/><path fill="#C7E5F2" d="M783.466 485.246a116.141 116.141 0 01-6.103-1.66 114.993 114.993 0 01-5.712-1.83c3.423-24.106 6.519-39.253 6.519-39.253l1.756 4.417 3.54 38.326z"/><path fill="#FFF" d="M884.771 423.363c-.411 10.596-2.27 27.609-3.88 44.698a1052.647 1052.647 0 00-1.417 16.11c-.293 3.271-5.223 20.725-5.417 23.851-.879 14.939-8.203 26.119-1.269 48.872 1.658 5.442 2.071 8.251 2.071 10.497 0 1.562-2.025 3.196-2.829 3.637-2.904 1.682-8.619 2.854-15.549 3.711h-.026c-13.646 1.659-32.052 1.977-43.158 1.977-14.917 0-37.302-2.368-40.134-6.128-2.586-3.441-.194-8.447 1.028-15.354 5.491-31.176 3.536-47.434 3.196-69.938 0-.563-.025-1.124-.025-1.71-.561-34.712-2.856-64.422-1.244-75.138.487-.343.951-.658 1.439-1a97.495 97.495 0 016.934-4.321c.196-.1.438-.244.684-.391.683-.391 1.39-.757 2.05-1.122.245-.147.512-.271.782-.393 5.053-2.465 12.425-5.103 16.647-6.567.537-.17 1.023-.339 1.438-.462 3.98-.245 8.302-.293 12.965-.17 4.052.123 10.254.659 16.989 1.537h.026c7.614.976 15.938 2.415 22.555 4.224 0 0 .072.024.123.05 1.244.389 9.324 3.416 17.746 12.424a59.847 59.847 0 018.275 11.106z"/><path fill="#C7E5F2" d="M872.789 556.895c1.658 5.442 2.071 8.251 2.071 10.497 0 1.562-2.025 3.196-2.829 3.637-2.904 1.682-8.619 2.854-15.549 3.711 2.854-.344 7.785-4.874 7.785-8.96 0-2.861-3.712-22.19-2.685-34.666 1.025-12.448 3.052-32.271-.807-48.138-3.879-15.866-7.518-36.738-7.518-36.738l21.75 13.133s2.806 3.93 5.883 8.691a1052.647 1052.647 0 00-1.417 16.11c-.291 3.271-13.619 49.97-6.684 72.723z"/><path fill="#002C54" d="M777.1 331.621s1.882 22.748 9.426 24.276 5.69-8.138 5.69-8.138l-1.055-10.801-14.061-5.337z"/><path fill="#E5918F" d="M811.881 414.061c-14.769-1.754-9.251-16.108-7.226-19.406.537-.17 3.077-.951 3.271-1.073.024-.023.048-.023.048-.023.488-.391.856-.979 1.146-1.709 1.443-3.783.785-11.327.734-11.815v-1.392c.244-.903.488-1.757.682-2.564l7.765-6.102 16.427-12.914s-4.368 21.605-.853 35.225c.267 1.026.806 2.465 2.172 3.272 0 .024.026 0 .026 0 .438.293.975.488 1.633.584 4.03 1.906-1.585 20.798-25.825 17.917z"/><path fill="#CC6362" d="M824.898 370.792s-.138 14.417-15.787 21.048c1.454-3.763.785-11.311.738-11.797l6.557-5.146 8.492-4.105z"/><path fill="#E5918F" d="M780.707 334.858s3.415 47.2 16.157 51.21c0 0 16.238 1.529 27.896-14.153 3.358-4.518 7.604-5.535 8.989-10.99 2.251-8.862 5.431-25.208 1.376-35.06-5.77-14.029-53.871-25.169-54.418 8.993z"/><path fill="#002C54" d="M835.321 318.077c-.21-8.573-8.888-11.778-8.888-11.778-8.639-4.043-26.594-2.299-45.104 1.832-4.34.968-9.785-1.696-12.816.406-3.661 2.542-.015 14.15-.015 14.15 7.14 21.624 33.413 14.592 41.31 11.925 1.876 5.567 1.635 13.307 6.315 17.299 2.667 2.274 7.303 2.34 12.019 1.554.577 1.103 2.759 2.075 3.202 3.589 1.483 5.056 1.27 12.958 1.224 19.056l2.228-1.087c.291-1.653 23.336-56.239.525-56.946z"/><g fill="none" stroke="#FFF" stroke-width=".501" stroke-miterlimit="10"><ellipse transform="rotate(-9.667 788.08 351.746)" cx="788.255" cy="351.694" rx="5.604" ry="7.199"/><ellipse transform="rotate(-9.654 803.745 348.85)" cx="803.655" cy="348.817" rx="5.604" ry="7.198"/><path d="M793.779 350.753s.674-1.095 4.222-.788m11.311-1.149l13.163-2.103"/></g><path fill="#E5918F" d="M823.444 363.422c9.065 3.474 11.896-18.84 3.288-19.83-6.529-.75-6.797 8.357-6.797 8.357s-1.669 9.49 3.509 11.473z"/><g opacity=".5" fill="#CC6362"><path d="M826.434 346.956s-.16.124-.41.361c-.25.238-.573.609-.905 1.083-.149.249-.335.5-.473.8-.16.287-.282.611-.411.943-.128.332-.205.695-.301 1.054-.052.372-.158.739-.158 1.124-.03.38-.071.761-.041 1.14.017.378-.001.752.061 1.113.054.359.059.714.125 1.043.061.331.117.645.171.934.098.583.239 1.059.312 1.4.078.34.113.54.113.54s-.095-.175-.246-.492c-.132-.323-.399-.76-.58-1.337l-.299-.933c-.104-.333-.155-.699-.229-1.074a9.119 9.119 0 01-.107-2.401c.011-.413.132-.816.198-1.217.106-.393.234-.778.391-1.132.158-.357.334-.688.539-.98.178-.307.417-.551.613-.786a5.92 5.92 0 011.143-.934 3.02 3.02 0 01.494-.249z"/><path d="M827.849 351.193s-.37.012-.893.166a4.649 4.649 0 00-1.722.911 4.293 4.293 0 00-1.142 1.511c-.121.228-.18.439-.23.58l-.077.223-.682-.244.117-.24c.076-.152.17-.374.337-.615a4.778 4.778 0 011.461-1.506 4.87 4.87 0 011.913-.731c.549-.09.918-.055.918-.055z"/></g><path fill="#E5918F" d="M910.603 518.471v.023c-3.986 4.624-19.104 7.992-26.38 1.599-2.284-2.037-4.864-7.403-7.401-14.064-6.45-17.026-12.554-42.5-12.554-42.5l33.833-17.291s4.355 19.519 8.104 38.066c0 0 .031.188.102.516a676.58 676.58 0 013.25 16.8c.037.143.052.259.064.398.894 5.987 1.468 12.232.982 16.453z"/><path fill="#FFF" d="M851.489 439.83c3.269 13.587 13.537 39.334 13.537 39.334 7.193 1.192 16.839-.131 24.832-3.004 9.227-3.312 15.818-10.272 15.818-10.272s-6.813-19.142-12.925-32.896c-5.485-12.346-8.782-16.955-11.157-19.401-3.575-3.745-9.344-8.039-13.434-9.99l-16.671 36.229z"/><path fill="#FFF" d="M894.275 448.704l-19.856-8.565-15.645-40.313s2.868.873 6.643 2.397h.019c.073.036.236.09.508.2.092.035.201.071.29.128 3.377 1.578 16.461 9.291 25.519 37.313.072.237.146.472.22.707.96 3.23 1.667 5.827 2.051 7.172.035.125.072.252.104.397.056.183.094.382.147.564z"/><g fill="#E5918F"><path d="M910.603 518.471v.023c-.294 2.479-.974 4.258-2.197 4.89-.195.125-2.975 1.777-3.17 1.902a168.18 168.18 0 01-20.972 10.846c-22.634 9.777-55.512 21.118-73.237 26.314 0 0-1.751-5.005-4.479-10.222 0 0 16.032-7.446 31.791-19.516 15.784-12.047 38.482-26.681 38.482-26.681l5.732-6.744s20.379-18.754 23.651-14.98c0 0 .031.188.102.516.486 1.956 2.104 9.152 3.25 16.8.037.143.052.259.064.398.895 5.988 1.469 12.233.983 16.454z"/><path d="M808.89 551.08s-3.983 2.399-8.044 1.546c-2.246-.473-3.15-1.39-4.811-1.684-1.663-.292-6.084-.836-8.275-1.912-2.188-1.074-3.043-1.194-2.968 1.005.078 2.2 4.399 4.099 5.571 4.708 1.17.609 2.641 2.561 2.801 2.806.157.242-7.201 4.097-9.18 3.315 0 0-.589 1.772-.255 2.758.336.992 1.848 1.337 1.967 1.834.116.497-.348 1.514-.021 2.303.328.789 1.681.792 2.225 2.075.544 1.28-.056 1.301.343 2.638.396 1.339 2.107 1.577 2.431 2.268.324.688.152 1.496.869 1.972.719.474 7.337-1.649 9.752-2.684 2.414-1.036 8.871-10.328 16.016-13.497l-8.421-9.451z"/></g><path fill="#375F84" d="M842.711 592.562h-51.47v-5.035h51.47a2.518 2.518 0 110 5.035z"/><path fill="#375F84" d="M814.861 592.562H685.987a3.431 3.431 0 01-3.31-2.516L656.3 495.095c-.584-2.103.996-4.184 3.176-4.184h124.626a6.465 6.465 0 016.229 4.734l26.282 94.613a1.817 1.817 0 01-1.752 2.304z"/><path fill="#467CDB" d="M810.198 592.562H681.323a3.436 3.436 0 01-3.311-2.516l-26.376-94.951a3.3 3.3 0 013.178-4.184h124.624a6.465 6.465 0 016.229 4.734l26.282 94.613a1.817 1.817 0 01-1.751 2.304z"/><path fill="#E49191" d="M299.419 531.21l14.929-15.307s.517-6.822 1.331-8.261c.814-1.439 2.913-6.772 3.959-7.354 1.045-.579 3.138 0 3.138 0s2.074-.698 3.003-.698c.931 0 2.669.849 2.669.849s2.233-.15 3.163-.15c.93 0 1.229.261 1.229.261s3.599-4.14 5.343-5.534c1.744-1.395 4.409-3.966 5.2-3.954.745.009 1.074 1.32.531 2.715-.542 1.396-2.905 3.645-2.905 3.645l-6.801 10.308s1.162-.463 1.782-.851c.621-.388 4.768-4.264 5.019-4.418.25-.155 2.111-1.396 3.197-.155 1.085 1.24-7.122 11.07-8.439 12.386-1.318 1.319-8.86 5.14-8.86 5.14s-7.965 14.326-8.741 15.256c-.776.93-18.747-3.878-18.747-3.878zm14.051-70.649s-8.338 48.305-16.188 49.428c0 0-31.334 1.265-38.314-36.748-6.054-32.967 18.228-39.996 29.584-37.474 11.357 2.52 27.356 4.159 24.918 24.794z"/><path fill="#E49191" d="M285.776 502.263s-4.391 5.917-5.929 20.249c0 0-13.05 1.866-25.082-4.328 0 0 6.485-20.219 7.278-42.167"/><path fill="#002C54" d="M276.939 427.678c-17.124 3.782-15.754 14.45-15.754 14.45-8.016 1.984-9.739 5.296-9.674 20.091.066 14.8 5.422 32.566 8.374 34.013 2.952 1.447 19.694 1.518 21.091 1.012 1.398-.511 7.256-14.086 5.891-16.475-1.366-2.387.068-11.778 3.968-12.137 3.898-.354 3.134 5.688 3.134 5.688l3.206-.7 2.473-6.069c22.629 1.344 28.475-24.441 28.475-24.441-5.436-3.545-34.06-19.214-51.184-15.432z"/><path fill="#E5918F" d="M86.858 754.689l17.313 2.502-5.734 20.217-18.753-4.729s-7.628-10.339 3.891-17.989c.555-.372 2.375-.208 3.283-.001z"/><path fill="#002C54" d="M216.086 702.761l-25.521-77.269s-7.734-2.757-11.696 0c0 0-26.583 14.295-23.748 55.055 2.138 30.73 8.625 64.058 11.255 77.422l-68.086-2.516s-8.399 9.983-2.965 22.979c0 0 85.553 23.009 97.604 25.135 9.793 1.729 20.515 3.063 25.69-1.373 9.12-7.814-2.533-99.433-2.533-99.433z"/><path fill="#E5918F" d="M167.473 754.689l17.312 2.502-5.734 20.217-18.752-4.729s-7.629-10.339 3.89-17.989c.556-.372 2.374-.208 3.284-.001z"/><path fill="#467CDB" d="M161.188 765.289c-.388 3.98 3.095 7.564 2.458 8.556-.639.993-12.278 20.521-12.278 20.521s8.789 3.824 7.372 9.353h-22.252s-5.811-5.243-5.668-12.757c0 0 1.512-8.644 5.479-16.297 3.97-7.652 12.991-24.934 12.991-24.934s2.738-1.105 7.417.143c5.479 1.461 10.766 4.816 10.766 4.816s-5.328.763-6.285 10.599z"/><path fill="#002C54" d="M339.433 785.962c-5.494-20.499-57.184-108.014-74.669-131.643-35.917-15.595-74.198-28.827-74.198-28.827-15.83 3.779-23.629 35.68-14.65 56.946 6.161 14.593 45.24 51.311 69.17 72.93l-66.41-.079s-7.821 11.695-.733 22.798c0 0 110.45 25.115 120.138 26.534 9.688 1.415 31.428 0 31.428 0s14.55-1.402 9.924-18.659z"/><path fill="#467CDB" d="M80.574 765.289c-.385 3.98 3.095 7.564 2.458 8.556-.639.993-12.277 20.521-12.277 20.521s8.788 3.824 7.371 9.353H55.874s-5.81-5.243-5.668-12.757c0 0 1.512-8.644 5.48-16.297 3.968-7.652 12.99-24.934 12.99-24.934s2.737-1.105 7.417.143c5.479 1.461 10.766 4.816 10.766 4.816s-5.328.763-6.285 10.599z"/><path fill="#E49191" d="M422.588 516.337l-35.622 62.656-25.51-25.429-21.114 31.431 6.13 2.944-2.205 1.836s49.229 23.977 55.129 18.685c5.899-5.286 33.385-85.001 33.385-85.001l-10.193-7.122z"/><path fill="#467CDB" d="M366.003 557.544s-6.724 28.366-20.174 41.816l-34.413-13.101s-15.97 26.858-31.587 47.447c-6.004 7.953-7.997 19.147-15.051 20.613a13.812 13.812 0 00-1.292-.392c-19.124-5.74-47.338.35-70.623-8.305-25.717-9.572-20.723-14.96-20.723-14.96s15.597-28.104 24.447-57.874c3.943-13.164 6.68-25.367 8.499-34.896 3.265-16.866 16.78-30.054 33.822-32.354.197-.022.372-.066.57-.087 19.496-2.476 70.534 3.548 80.458 7.797 9.923 4.253 46.067 44.296 46.067 44.296z"/><path fill="#5996EF" d="M311.416 586.26s-15.97 26.858-31.587 47.447c-6.004 7.953-7.997 19.147-15.051 20.613 3.09-1.096 8.215-17.349 10.033-21.006 1.84-3.638 4.753-7.295 11.062-20.067 6.287-12.791 14.821-31.541 14.821-31.541l10.722 4.554z"/><path d="M245.086 755.368s2.174-.235 5.452-.236c.82-.019 1.707.004 2.645.045.938.036 1.929.063 2.951.123 2.039.194 4.224.332 6.386.664l3.223.512c1.068.142 2.1.387 3.099.624l2.875.686c.916.21 1.775.431 2.548.714 1.56.512 2.842.983 3.745 1.291l1.407.514-1.469-.316c-.928-.22-2.26-.503-3.837-.896-.784-.217-1.654-.367-2.572-.531-.916-.172-1.881-.354-2.88-.54l-1.517-.297c-.515-.09-1.042-.147-1.568-.232l-3.199-.473c-1.067-.191-2.146-.295-3.207-.412l-3.112-.373c-2.025-.16-3.915-.386-5.54-.492-1.625-.12-2.981-.246-3.932-.282l-1.498-.093z"/><path fill="#E49191" d="M449.209 493.274c-.577-.058-4.226 2.875-5.989 4.321l2.03-3.889s2.687-2.594 3.652-4.019c.968-1.426.458-2.848-.305-2.925-.538-.053-3.749 2.495-5.609 4.015l.408-.783s2.687-2.596 3.652-4.019c.966-1.425.458-2.849-.306-2.923-.763-.078-6.942 5.109-6.942 5.109l-3.008 4.027 2.268-4.406s1.195-1.459 1.992-3.053c.796-1.593.222-2.079-.222-2.61-.442-.531-4.603 2.566-5.665 3.805-1.061 1.241-4.424 6.262-4.689 6.97L427 500.088c-.222-2.083-.57-5.651-.816-7.923-.354-3.275-3.319-4.048-3.422-2.455-.104 1.595-1.755 9.425-1.381 13.673.374 4.25 1.085 7.036 1.35 9.425.267 2.392-2.212 7.165-2.212 7.165s9.912 6.155 11.551 4.313c1.642-1.845 5.128-5.935 6.813-8.689 2.316-3.784 3.88-8.762 3.88-8.762l3.098-6.619s2.686-2.593 3.652-4.017c.967-1.423.458-2.849-.304-2.925z"/><g fill="none" stroke="#FFF" stroke-width=".896" stroke-miterlimit="10"><path d="M888.377 230.121h-116.24c-7.449 0-13.488 6.039-13.488 13.488v27.46c0 6.873 5.141 12.545 11.788 13.382.974.123 1.7.95 1.7 1.932v15.032c0 .869 1.115 1.226 1.619.519l11.842-16.555a1.959 1.959 0 011.594-.821h101.186c7.448 0 13.486-6.04 13.486-13.489v-27.46c-.001-7.449-6.039-13.488-13.487-13.488z"/><circle cx="785.527" cy="257.297" r="4.441"/><circle cx="807.892" cy="257.297" r="4.443"/><circle cx="830.256" cy="257.297" r="4.441"/><circle cx="852.619" cy="257.297" r="4.441"/><circle cx="874.985" cy="257.297" r="4.442"/></g><g fill="none" stroke="#FFF" stroke-width=".896" stroke-miterlimit="10"><path d="M99.703 414.154h116.238c7.448 0 13.487 6.038 13.487 13.488V455.1c0 6.872-5.141 12.546-11.785 13.382a1.946 1.946 0 00-1.702 1.934v15.03c0 .87-1.114 1.227-1.621.521l-11.841-16.558a1.96 1.96 0 00-1.596-.82H99.703c-7.45 0-13.489-6.038-13.489-13.489v-27.457c0-7.451 6.039-13.489 13.489-13.489z"/><circle cx="202.55" cy="441.33" r="4.441"/><circle cx="180.186" cy="441.33" r="4.441"/><circle cx="157.821" cy="441.33" r="4.441"/><circle cx="135.458" cy="441.33" r="4.442"/><circle cx="113.094" cy="441.33" r="4.442"/></g><path fill="#193091" d="M480.766 805.813h-53.297c-9.325 0-16.884-7.557-16.884-16.882v-53.297c0-9.327 7.559-16.884 16.884-16.884h53.297c9.325 0 16.887 7.557 16.887 16.884v53.297c-.001 9.325-7.562 16.882-16.887 16.882z"/><path fill="#495AD6" d="M464.898 805.813h-53.297c-9.324 0-16.885-7.557-16.885-16.882v-53.297c0-9.327 7.561-16.884 16.885-16.884h53.297c9.327 0 16.884 7.557 16.884 16.884v53.297c0 9.325-7.556 16.882-16.884 16.882z"/><path fill="#FFF" d="M427.969 745.849l24.991 14.43c1.544.892 1.544 3.114 0 4.007l-24.991 14.429c-1.544.892-3.471-.222-3.471-2.003v-28.859c0-1.783 1.927-2.895 3.471-2.004z"/><path d="M721.976 254.791h-44.749a3.364 3.364 0 01-3.365-3.362 3.364 3.364 0 013.365-3.363h44.749a3.362 3.362 0 010 6.725zm-25.736 14.786h-19.014a3.363 3.363 0 110-6.724h19.014a3.362 3.362 0 010 6.724zm39.973 14.786h-58.986a3.364 3.364 0 110-6.725h58.986a3.364 3.364 0 110 6.725z" fill="#F0F4FF"/><path fill="#193091" d="M172.2 578.646H44.195a6.862 6.862 0 01-6.861-6.863v-64.617a6.862 6.862 0 016.861-6.862H172.2a6.862 6.862 0 016.862 6.862v64.617a6.862 6.862 0 01-6.862 6.863z"/><path fill="none" stroke="#FFF" stroke-width=".896" stroke-linecap="round" stroke-miterlimit="10" d="M43.357 510.887h129.681"/><circle fill="#FFF" cx="169.616" cy="505.503" r="1.571"/><circle fill="#FFF" cx="161.427" cy="505.503" r="1.571"/><circle fill="#FFF" cx="153.238" cy="505.503" r="1.571"/><path d="M67.53 521.433H45.525a2.17 2.17 0 010-4.339H67.53a2.169 2.169 0 110 4.339zm0 10.02H45.525a2.169 2.169 0 010-4.337H67.53a2.169 2.169 0 110 4.337zm0 10.023H45.525a2.17 2.17 0 010-4.338H67.53a2.17 2.17 0 010 4.338zm0 10.021H45.525a2.17 2.17 0 010-4.339H67.53a2.169 2.169 0 110 4.339zm0 10.021H45.525a2.168 2.168 0 110-4.336H67.53a2.169 2.169 0 110 4.336zm0 10.023H45.525a2.168 2.168 0 010-4.338H67.53a2.17 2.17 0 010 4.338z" fill="#6589D1"/><path d="M170.871 521.433H76.039a2.17 2.17 0 010-4.339h94.832c1.197 0 2.167.972 2.167 2.171a2.168 2.168 0 01-2.167 2.168zm0 10.02H76.039a2.169 2.169 0 110-4.337h94.832a2.168 2.168 0 010 4.337zm0 10.023H76.039a2.17 2.17 0 010-4.338h94.832a2.17 2.17 0 010 4.338zm0 10.021H76.039a2.17 2.17 0 010-4.339h94.832c1.197 0 2.167.972 2.167 2.171a2.168 2.168 0 01-2.167 2.168zm0 10.021H76.039a2.168 2.168 0 110-4.336h94.832a2.168 2.168 0 010 4.336zm0 10.023H76.039a2.169 2.169 0 110-4.338h94.832a2.169 2.169 0 010 4.338z" fill="#3B5FB7"/><circle fill="none" stroke="#DEE3FC" stroke-width=".79" stroke-miterlimit="10" cx="129.785" cy="90.434" r="71.205"/><circle fill="#3945BA" cx="129.787" cy="90.434" r="61.903"/><path fill="#FFF" d="M135.422 90.434a5.634 5.634 0 01-5.637 5.635 5.635 5.635 0 010-11.269 5.635 5.635 0 015.637 5.634z"/><path fill="#FFF" d="M129.172 89.327a1.76 1.76 0 01-2.395-.686l-18.209-32.839a1.763 1.763 0 013.084-1.709l18.206 32.838a1.76 1.76 0 01-.686 2.396zm1.509 2.002a1.768 1.768 0 012.495 0l15.747 15.751a1.762 1.762 0 01-2.49 2.493l-15.752-15.751a1.764 1.764 0 010-2.493z"/><path d="M130.165 40.886v-7.119m49.17 57.046h7.119m-57.047 49.17v7.12m-49.17-57.046h-7.121" fill="none" stroke="#FFF" stroke-width="2" stroke-linecap="round" stroke-miterlimit="10"/><path d="M105.34 47.334l-3.561-6.165m71.108 24.819l6.166-3.56m-24.821 71.107l3.562 6.165m-71.107-24.819l-6.167 3.56m6.545-53.108l-6.166-3.561m73.991-14.058l3.56-6.167m14.058 73.989l6.165 3.56m-73.989 14.059l-3.562 6.166" opacity=".5" fill="none" stroke="#DEE3FC" stroke-linecap="round" stroke-miterlimit="10"/><path fill="#193091" d="M68.148 414.637H27.506c-6.017 0-10.896-4.878-10.896-10.896v-40.643c0-6.017 4.879-10.895 10.896-10.895h40.643c6.017 0 10.895 4.878 10.895 10.895v40.643c-.001 6.018-4.878 10.896-10.896 10.896z"/><path fill="#7E89FD" stroke="#DEE3FC" stroke-miterlimit="10" d="M65.475 409.229H20.5a8.73 8.73 0 01-8.729-8.73v-44.974a8.728 8.728 0 018.729-8.729h44.975a8.728 8.728 0 018.729 8.729v44.974a8.728 8.728 0 01-8.729 8.73z"/><path fill="#DEE3FC" d="M53.798 370.863h-.326v-3.577c0-5.87-4.773-10.646-10.644-10.646s-10.645 4.776-10.645 10.646v3.577h-.072a2.987 2.987 0 00-2.987 2.987v13.478a2.987 2.987 0 002.987 2.987h21.687a2.987 2.987 0 002.988-2.987V373.85a2.987 2.987 0 00-2.988-2.987zm-18.919-3.577c0-4.382 3.567-7.949 7.949-7.949s7.949 3.567 7.949 7.949v3.577H34.879v-3.577z"/><path fill="#7E89FD" d="M46.461 377.79a3.477 3.477 0 00-4.188-3.402 3.47 3.47 0 00-1.036 6.397c.248.146.391.419.315.698l-.604 2.23a2.087 2.087 0 104.028 0l-.598-2.208c-.076-.281.069-.559.323-.703a3.459 3.459 0 001.76-3.012z"/><path fill="#DEE3FC" d="M55.505 395.042h-25.1a1.281 1.281 0 110-2.562h25.1a1.281 1.281 0 110 2.562zm0 4.34h-25.1a1.282 1.282 0 010-2.563h25.1a1.28 1.28 0 110 2.563z"/><path d="M143.474 357.111h-27.378a3.003 3.003 0 010-6.004h27.378a3.002 3.002 0 010 6.004zm27.578 13.327h-54.957a3.003 3.003 0 01-3.001-3.003 3 3 0 013.001-3.001h54.957a3.002 3.002 0 013.003 3.001 3.004 3.004 0 01-3.003 3.003zm-48.465 13.325h-6.492a3.002 3.002 0 010-6.004h6.492a3.003 3.003 0 013.003 3.002 3.003 3.003 0 01-3.003 3.002zm48.465 0h-38.266a3.001 3.001 0 010-6.004h38.266a3.003 3.003 0 013.003 3.002 3.003 3.003 0 01-3.003 3.002zm0-26.652h-16.595a3 3 0 01-3-3.001 3.001 3.001 0 013-3.003h16.595a3.003 3.003 0 110 6.004z" fill="#F0F4FF"/></svg>