<svg xmlns="http://www.w3.org/2000/svg" width="64.246" height="140.224"><switch><g><path fill="#6730E3" d="M42.658 2.635c-.335 4.771-4.326 6.47-5.959 10.566-.809 2.027-.399 4.966-.363 7.103.063 3.723 2.177 5.696 4.488 8.332 3.185 3.632-.942 5.823-3.223 8.89-3.16 4.248-1.318 12.476 1.906 15.864.779.819 3.015 3.082 2.808 3.993-.438 1.932-2.178 3.443-3.48 4.811-2.347 2.467-2.511 5.152-2.511 8.341 0 2.85.08 5.205 1.866 7.607 2.742 3.686 5.602 4.713 1.989 8.834-2.255 2.572-3.813 4.427-3.848 7.99-.026 2.61-.22 5.239.763 7.704 1.122 2.813 6.027 5.085 4.825 8.101-1.542 3.868-5.251 5.125-5.578 9.757-.133 1.89-.323 4.359.099 6.22 1.07 4.722 5.86 6.625 6.217 11.71-.082-1.172.119-3.32.014-4.822-.255-3.622-2.197-5.478-4.482-8.085-2.925-3.339.226-5.358 2.634-8.107 3.044-3.475 2.624-11.691 0-15.219-2.369-3.185-5.414-4.359-2.634-8.099 2.133-2.869 4.421-4.446 4.488-8.334.032-1.868.313-4.129-.105-5.966-.885-3.901-4.441-5.751-5.874-9.346-.515-1.291 4.932-6.379 5.616-8.096.77-1.929.388-4.679.368-6.711-.035-3.481-1.513-5.534-3.848-7.988-3.239-3.405-1.554-5.052 1.345-8.098 3.264-3.431 3.583-11.083 1.233-15.157-1.762-3.056-5.875-4.52-3.812-8.098 1.931-3.35 4.772-4.628 5.071-8.874.106-1.503-.096-3.651-.013-4.823zm-16.967 0c-.335 4.771-4.326 6.47-5.959 10.566-.809 2.027-.399 4.966-.363 7.103.063 3.723 2.177 5.696 4.488 8.332 3.185 3.632-.942 5.823-3.223 8.89-3.16 4.248-1.318 12.476 1.906 15.864.779.819 3.015 3.082 2.808 3.993-.438 1.932-2.178 3.443-3.48 4.811-2.347 2.467-2.511 5.152-2.511 8.341 0 2.85.08 5.205 1.866 7.607 2.742 3.686 5.602 4.713 1.989 8.834-2.255 2.572-3.813 4.427-3.848 7.99-.026 2.61-.22 5.239.763 7.704 1.122 2.813 6.027 5.085 4.825 8.101-1.542 3.868-5.251 5.125-5.578 9.757-.133 1.89-.323 4.359.099 6.22 1.07 4.722 5.86 6.625 6.217 11.71-.082-1.172.119-3.32.014-4.822-.255-3.622-2.197-5.478-4.482-8.085-2.925-3.339.226-5.358 2.634-8.107 3.044-3.475 2.624-11.691 0-15.219-2.369-3.185-5.414-4.359-2.634-8.099 2.133-2.869 4.421-4.446 4.488-8.334.032-1.868.313-4.129-.105-5.966-.885-3.901-4.441-5.751-5.874-9.346-.515-1.291 4.932-6.379 5.616-8.096.77-1.929.388-4.679.368-6.711-.035-3.481-1.513-5.534-3.848-7.988-3.239-3.405-1.554-5.052 1.345-8.098 3.264-3.431 3.583-11.083 1.233-15.157-1.762-3.056-5.875-4.52-3.812-8.098 1.931-3.35 4.772-4.628 5.071-8.874.106-1.503-.096-3.651-.013-4.823zm-15.084 0c-.335 4.771-4.326 6.47-5.959 10.566-.809 2.027-.399 4.966-.363 7.103.063 3.723 2.176 5.696 4.487 8.332 3.185 3.632-.942 5.823-3.223 8.89C2.39 41.774 4.232 50.002 7.456 53.39c.779.819 3.015 3.082 2.808 3.993-.438 1.932-2.178 3.443-3.48 4.811-2.347 2.467-2.511 5.152-2.511 8.341 0 2.85.08 5.205 1.866 7.607 2.742 3.686 5.602 4.713 1.989 8.834-2.255 2.572-3.813 4.427-3.848 7.99-.026 2.61-.22 5.239.763 7.704 1.122 2.813 6.027 5.085 4.825 8.101-1.542 3.868-5.251 5.125-5.578 9.757-.133 1.89-.323 4.359.099 6.22 1.07 4.722 5.86 6.625 6.217 11.71-.082-1.172.119-3.32.014-4.822-.255-3.622-2.197-5.478-4.482-8.085-2.925-3.339.226-5.358 2.634-8.107 3.044-3.475 2.624-11.691 0-15.219-2.369-3.185-5.414-4.359-2.634-8.099 2.133-2.869 4.421-4.446 4.488-8.334.032-1.868.313-4.129-.105-5.966-.885-3.901-4.441-5.751-5.874-9.346-.515-1.291 4.932-6.379 5.616-8.096.77-1.929.388-4.679.368-6.711-.035-3.481-1.513-5.534-3.848-7.988-3.239-3.405-1.554-5.052 1.345-8.098 3.264-3.431 3.583-11.083 1.233-15.157-1.762-3.056-5.875-4.52-3.812-8.098 1.931-3.35 4.772-4.628 5.071-8.874.106-1.503-.096-3.651-.013-4.823zm48.045 0c-.335 4.771-4.326 6.47-5.959 10.566-.809 2.027-.399 4.966-.363 7.103.063 3.723 2.177 5.696 4.488 8.332 3.185 3.632-.942 5.823-3.223 8.89-3.16 4.248-1.318 12.476 1.906 15.864.779.819 3.015 3.082 2.808 3.993-.438 1.932-2.178 3.443-3.48 4.811-2.347 2.467-2.511 5.152-2.511 8.341 0 2.85.08 5.205 1.866 7.607 2.742 3.686 5.602 4.713 1.989 8.834-2.255 2.572-3.813 4.427-3.848 7.99-.026 2.61-.22 5.239.763 7.704 1.122 2.813 6.027 5.085 4.825 8.101-1.542 3.868-5.251 5.125-5.578 9.757-.133 1.89-.323 4.359.099 6.22 1.07 4.722 5.86 6.625 6.217 11.71-.082-1.172.119-3.32.014-4.822-.255-3.622-2.197-5.478-4.482-8.085-2.925-3.339.226-5.358 2.634-8.107 3.044-3.475 2.624-11.691 0-15.219-2.369-3.185-5.414-4.359-2.634-8.099 2.133-2.869 4.421-4.446 4.488-8.334.032-1.868.313-4.129-.105-5.966-.885-3.901-4.441-5.751-5.874-9.346-.515-1.291 4.932-6.379 5.616-8.096.77-1.929.388-4.679.368-6.711-.035-3.481-1.513-5.534-3.848-7.988-3.239-3.405-1.554-5.052 1.345-8.098 3.264-3.431 3.583-11.083 1.233-15.157-1.762-3.056-5.875-4.52-3.812-8.098 1.931-3.35 4.772-4.628 5.071-8.874.106-1.503-.095-3.651-.013-4.823z"/></g></switch></svg>