<svg xmlns="http://www.w3.org/2000/svg" width="528.667" height="605.333"><path fill="#1D2856" d="M498.561 195.597v209.47h5.585v8.324c6.633-3.812 14.106-8.126 14.059-8.175 2.553-1.74 4.125-5.107 4.125-9.817V181.89l-23.769 13.707z"/><linearGradient id="a" gradientUnits="userSpaceOnUse" x1="261.09" y1="100.213" x2="522.33" y2="100.213"><stop offset=".665" stop-color="#eaeaf9"/><stop offset=".795" stop-color="#e8e8f8"/><stop offset=".852" stop-color="#e1e1f6"/><stop offset=".893" stop-color="#d4d4f3"/><stop offset=".928" stop-color="#c3c3ee"/><stop offset=".935" stop-color="#bebeed"/></linearGradient><path fill="url(#a)" d="M498.561 175.511c0-10.016-7.042-22.218-15.725-27.253L262.721 20.551c-4.515-2.62 2.09-8.615-.779-6.764-.08-.045 12.311-7.291 12.311-7.291 3.03-2.029 7.287-2.525 12.235.343l220.116 127.708c8.684 5.034 15.726 17.238 15.726 27.252v20.091l-23.769 13.707v-20.086z"/><path fill="#283777" d="M257.661 43.252v214.063c0 10.011 7.042 22.213 15.725 27.252L493.5 412.275c4.062 2.354 7.749 2.704 10.538 1.409.124-.057.25-.109.369-.17.139-.074.271-.148.405-.229 2.727-1.679 4.414-5.128 4.414-10.019V189.755L257.661 43.252z"/><path fill="#F0F0FC" d="M261.942 13.787c-2.647 1.708-4.281 5.118-4.281 9.927v19.538l251.566 146.503v-20.09c0-10.015-7.041-22.213-15.727-27.253L273.386 14.703c-4.514-2.618-8.575-2.767-11.444-.916z"/><path fill="#F90000" d="M492.957 165.52c.433-.787.678-1.799.678-3.021 0-4.383-3.083-9.726-6.884-11.933-.988-.572-1.924-.871-2.776-.931a3.696 3.696 0 00-1.775.286l2.979-1.614c1.255-.808 3.031-.742 5.006.407 3.803 2.204 6.882 7.547 6.882 11.928 0 2.058-.681 3.531-1.796 4.293-.065.045-.128.098-.199.137l-3.437 1.861c.545-.315.988-.795 1.322-1.413z"/><linearGradient id="b" gradientUnits="userSpaceOnUse" x1="479.867" y1="158.507" x2="493.634" y2="158.507"><stop offset="0" stop-color="#ff6f1b"/><stop offset="1" stop-color="#ff3933"/></linearGradient><path fill="url(#b)" d="M482.199 149.92a3.696 3.696 0 011.775-.286c.853.06 1.788.359 2.776.931 3.801 2.207 6.884 7.55 6.884 11.933 0 1.222-.245 2.235-.678 3.021-.334.618-.776 1.098-1.323 1.413-1.247.722-2.976.616-4.883-.493-3.8-2.203-6.884-7.545-6.884-11.928.001-2.367.904-3.965 2.333-4.591z"/><path fill="#FFD33F" d="M472.33 153.08c.428-.782.674-1.795.674-3.023 0-4.381-3.079-9.725-6.881-11.931-.987-.574-1.928-.873-2.779-.933a3.761 3.761 0 00-1.774.287l2.976-1.611c1.256-.812 3.033-.742 5.008.404 3.803 2.204 6.886 7.546 6.886 11.931 0 2.055-.687 3.528-1.8 4.291-.066.043-.131.096-.197.136-.065.037-3.439 1.86-3.439 1.86.541-.314.988-.793 1.326-1.411z"/><linearGradient id="c" gradientUnits="userSpaceOnUse" x1="459.241" y1="146.067" x2="473.003" y2="146.067"><stop offset="0" stop-color="#ffd33f"/><stop offset="1" stop-color="#ff7364"/></linearGradient><path fill="url(#c)" d="M461.569 137.48a3.761 3.761 0 011.774-.287c.852.06 1.792.359 2.779.933 3.802 2.206 6.881 7.55 6.881 11.931 0 1.228-.246 2.241-.674 3.023-.338.618-.784 1.097-1.328 1.412-1.245.723-2.974.618-4.879-.488-3.806-2.207-6.882-7.55-6.882-11.931.001-2.369.902-3.964 2.329-4.593z"/><path fill="#ED3BEF" d="M451.863 141.47c.428-.786.679-1.795.679-3.021 0-4.382-3.083-9.725-6.884-11.931-.988-.574-1.93-.872-2.776-.932a3.75 3.75 0 00-1.78.285l2.979-1.609c1.255-.812 3.031-.746 5.007.404 3.801 2.202 6.884 7.545 6.884 11.927 0 2.058-.686 3.53-1.8 4.293-.065.045-.124.096-.198.137l-3.438 1.86c.542-.314.986-.795 1.327-1.413z"/><linearGradient id="d" gradientUnits="userSpaceOnUse" x1="438.774" y1="134.459" x2="452.541" y2="134.459"><stop offset="0" stop-color="#ed3bef"/><stop offset="1" stop-color="#8319ac"/></linearGradient><path fill="url(#d)" d="M441.101 125.871a3.763 3.763 0 011.78-.285c.847.06 1.788.358 2.776.932 3.801 2.207 6.884 7.549 6.884 11.931 0 1.227-.251 2.235-.679 3.021-.341.618-.785 1.099-1.327 1.413-1.246.722-2.975.617-4.878-.488-3.8-2.208-6.884-7.55-6.884-11.933.001-2.369.904-3.965 2.328-4.591z"/><linearGradient id="e" gradientUnits="userSpaceOnUse" x1="419.992" y1="59.089" x2="441.221" y2="59.089"><stop offset=".119" stop-color="#fda758"/><stop offset=".675" stop-color="#fd2a6e"/><stop offset="1" stop-color="#fd256f"/></linearGradient><path fill="url(#e)" d="M430.001 49.446c-.308 1.722.156 3.68-.841 5.117-1.079 1.549-5.047 2.562-7.403 5.422-3.953 4.806-.985 12.623 6.078 13.925 6.994 1.292 10.558-5.29 6.99-11.12-1.794-2.938 1.104-2.697 2.113-4.198.502-.75 1.063-2.307.687-3.131-.378-.821-.426-.892-.711-1.751-1.292-3.874 3.481-2.312 4.208-5.5 1.253-5.56-9.863-5.785-11.121 1.236z"/><path fill="#FF969B" d="M432.762 61.975c-2.371 3.898-5.849 8.015-7.384 12.307-.094.255-.166.521-.251.784l3.517 1.113c.096-.286.194-.561.3-.811 0 0 .528-1.105.768-1.494 2.716-4.471 3.331-5.192 6.258-10.011 1.25-2.057-1.961-3.938-3.208-1.888z"/><linearGradient id="f" gradientUnits="userSpaceOnUse" x1="405.621" y1="123.444" x2="413.243" y2="123.444"><stop offset="0" stop-color="#ed3bef"/><stop offset="1" stop-color="#8319ac"/></linearGradient><path fill="url(#f)" d="M412.516 121.654c-1.075-.625-2.977-.543-4.223.178l-1.644.952c-1.243.723-1.38 1.825-.302 2.45 1.074.625 2.977.545 4.224-.173l1.642-.953c1.243-.722 1.381-1.828.303-2.454z"/><linearGradient id="g" gradientUnits="userSpaceOnUse" x1="1357.326" y1="-379.244" x2="1364.954" y2="-379.244" gradientTransform="rotate(-16.315 2667.767 3147.979)"><stop offset="0" stop-color="#ed3bef"/><stop offset="1" stop-color="#8319ac"/></linearGradient><path fill="url(#g)" d="M425.364 127.235c-1.211-.294-3.009.319-4.002 1.36l-1.312 1.38c-.992 1.044-.814 2.139.396 2.437 1.209.293 3.011-.32 4.004-1.364l1.305-1.376c.997-1.046.82-2.138-.391-2.437z"/><path fill="#FF969B" d="M437.544 99.643c-4.116 2.712-8.727 5.145-12.546 8.256-1.848 1.501-2.334 3.966-2.76 6.23-.849 4.482-1.079 9.296.322 13.691.729 2.284 4.319 1.307 3.584-.993-1.271-4.008-1.038-8.493-.146-12.567.572-2.618.479-2.877 2.376-4.124 3.684-2.42 7.367-4.847 11.053-7.268 1.993-1.309.134-4.545-1.883-3.225zm-24.255 22.011c1.205-4.72 2.371-9.458 3.631-14.163 1.573-5.896 6.857-8.147 11.629-11.129 2.026-1.266.161-4.503-1.876-3.227-5.419 3.383-11.19 6.036-13.158 12.653-1.459 4.894-2.547 9.926-3.813 14.874-.598 2.328 2.985 3.325 3.587.992z"/><linearGradient id="h" gradientUnits="userSpaceOnUse" x1="431.915" y1="110.065" x2="431.915" y2="71.639"><stop offset=".011" stop-color="#2234a4"/><stop offset=".135" stop-color="#263299"/><stop offset=".455" stop-color="#2f2d81"/><stop offset=".752" stop-color="#342a72"/><stop offset="1" stop-color="#36296d"/></linearGradient><path fill="url(#h)" d="M442.414 63.747c1.23 2.873 1.326 6.277 1.392 9.542.107 5.34.217 10.679.326 16.012.074 3.547.095 7.336-1.433 10.314-.795 1.545-1.944 2.736-3.107 3.842a56.084 56.084 0 01-5.505 4.604c-.437.319-.895.637-1.397.67-.589.036-1.146-.332-1.667-.69-3.847-2.672-7.646-5.707-10.356-10.06-.514-.819-1.003-1.76-.994-2.801.007-1.75 1.354-2.962 2.555-3.833a110.65 110.65 0 013.898-2.713c1.055-.702 2.149-1.407 2.931-2.537 1.298-1.86 1.54-4.508 1.722-6.974.251-3.394.5-6.783.749-10.176.168-2.311.354-4.691 1.216-6.742 2.475-5.903 7.606-3.273 9.67 1.542z"/><linearGradient id="i" gradientUnits="userSpaceOnUse" x1="432.365" y1="48.984" x2="441.247" y2="48.984"><stop offset=".119" stop-color="#fda758"/><stop offset=".675" stop-color="#fd2a6e"/><stop offset="1" stop-color="#fd256f"/></linearGradient><path fill="url(#i)" d="M441.217 48.668c-.01-.173-.015-.353-.039-.526-.012-.068-.027-.105-.051-.121.003-.726-.268-1.298-.936-1.916-.985-.921-2.286-1.598-3.658-1.594-1.18.004-1.989.299-2.827 1.102-.398.379-1.576 1.534-1.3 2.09.193.392.438.654.718.831 1.371.875 3.566-.335 4.832 1.183.211.246.389.525.47.835.122.48.029 1.073.421 1.393.031.023.068.039.103.061a2.225 2.225 0 01-.042-.424c0-.678.322-1.232.723-1.232.397 0 .72.554.72 1.232 0 .622-.273 1.133-.624 1.213.027.084.04.178.044.275 0 .128.004.258.008.387.22-.238.414-.497.568-.787.22-.409.376-.848.534-1.283.066-.189.137-.375.188-.565.106-.372.154-.754.169-1.138a7.639 7.639 0 00-.021-1.016z"/><path fill="#FF969B" d="M439.726 52.794c.351-.08.624-.592.624-1.213 0-.678-.322-1.232-.72-1.232-.4 0-.723.554-.723 1.232 0 .149.016.29.042.424-.034-.022-.071-.038-.103-.061-.392-.32-.299-.913-.421-1.393-.081-.31-.259-.59-.47-.835-1.266-1.518-3.461-.307-4.832-1.183v3.304a3.989 3.989 0 003.462 3.951c.014 1.025.036 2.045.053 3.072-.501.004-.979.099-1.338.306-.81.472-.708 1.299.225 1.839l1.175.678c.936.544 2.358.602 3.166.133.75-.436.705-1.182-.06-1.719a.953.953 0 00.078-.379c-.037-2.086-.071-4.174-.107-6.263a12.554 12.554 0 01-.008-.387 1.013 1.013 0 00-.043-.274zm-16.657 35.579c.903-.408 1.973 0 2.377.907a1.816 1.816 0 01-.899 2.39l-2.6 1.173c-.9.408-1.968.004-2.375-.904-.411-.904 0-1.981.9-2.388l2.597-1.178z"/><path fill="#FF969B" d="M426.076 90.148c.904-.407 1.97 0 2.375.905.41.908.006 1.98-.899 2.393l-2.599 1.174a1.8 1.8 0 01-2.375-.904c-.408-.903 0-1.982.898-2.389l2.6-1.179z"/><path fill="#00A2F8" d="M415.663 89.971l8.092-3.554 13.736 7.75a.738.738 0 01.031 1.263l-6.037 3.808-15.822-9.267z"/><path fill="#FF969B" d="M439.168 64.634c.299 2.573.598 5.148.893 7.723.273 2.361 1.384 6.214.084 8.43-1.261 2.15-4.668 3.479-6.668 4.721l-6.524 4.044c-2.036 1.263-.171 4.495 1.875 3.228l7.452-4.62c2.433-1.509 5.578-2.917 7.077-5.488 1.631-2.788.938-5.887.584-8.896-.351-3.047-.699-6.093-1.054-9.141-.271-2.361-3.992-2.39-3.719-.001zm-16.761 24.199c-.479 2.347 3.103 3.349 3.588.992.879-4.318 1.487-10.184 2.649-13.647l-3.517-1.113c-1.4 4.342-1.813 9.321-2.72 13.768z"/><path fill="#71D4FF" d="M416.496 90.753l14.104 8.631c.566.347 1.281-.146 1.162-.803l-1.55-8.465a3.589 3.589 0 00-1.659-2.42l-13.441-8.228c-.638-.392-1.438.161-1.301.903l1.61 8.811c.118.651.51 1.224 1.075 1.571z"/><g opacity=".35"><path d="M430.36 259.437c.632.368 1.149-.049 1.149-.929 0-.878-.518-1.886-1.149-2.255-.633-.366-1.15.045-1.15.923-.001.881.517 1.89 1.15 2.261zm0 8.26c.632.367 1.149-.044 1.149-.924s-.518-1.893-1.149-2.259c-.633-.368-1.15.048-1.15.927-.001.876.517 1.889 1.15 2.256zm0 8.672c.632.366 1.149-.049 1.149-.928 0-.875-.518-1.889-1.149-2.256-.633-.368-1.15.044-1.15.925-.001.878.517 1.888 1.15 2.259zm0 8.26c.632.367 1.149-.045 1.149-.925 0-.879-.518-1.888-1.149-2.259-.633-.367-1.15.048-1.15.925-.001.879.517 1.892 1.15 2.259zm0 8.263c.632.367 1.149-.048 1.149-.924 0-.879-.518-1.894-1.149-2.259-.633-.367-1.15.045-1.15.924-.001.88.517 1.892 1.15 2.259zm0 8.26c.632.373 1.149-.043 1.149-.924 0-.879-.518-1.888-1.149-2.259-.633-.367-1.15.049-1.15.929-.001.875.517 1.886 1.15 2.254zm0 8.265c.632.366 1.149-.045 1.149-.925 0-.878-.518-1.891-1.149-2.259-.633-.365-1.15.046-1.15.924-.001.879.517 1.891 1.15 2.26zm0 8.259c.632.371 1.149-.046 1.149-.925 0-.878-.518-1.886-1.149-2.259-.633-.367-1.15.049-1.15.929-.001.879.517 1.888 1.15 2.255zm0 8.267c.632.366 1.149-.048 1.149-.926 0-.88-.518-1.889-1.149-2.26-.633-.367-1.15.049-1.15.927s.517 1.889 1.15 2.259zm0 8.263c.632.367 1.149-.051 1.149-.93 0-.881-.518-1.89-1.149-2.255-.633-.371-1.15.043-1.15.924-.001.882.517 1.89 1.15 2.261zm0 8.259c.632.37 1.149-.045 1.149-.925s-.518-1.89-1.149-2.261c-.633-.366-1.15.048-1.15.929-.001.876.517 1.889 1.15 2.257zm0 8.264c.632.365 1.149-.05 1.149-.93 0-.872-.518-1.889-1.149-2.255-.633-.366-1.15.045-1.15.926-.001.878.517 1.885 1.15 2.259zM275.295 108.714l16.997 9.862v3.983l-16.997-9.859zm0 7.787l16.997 9.858v3.986l-16.997-9.862zm0 7.788l42.124 24.437v3.982l-42.124-24.436zm31.001 44.087l-30.949-17.956v-3.982l30.949 17.957zm91.177 52.756l-30.949-17.956v-3.983l30.949 17.956zm-91.177-44.971l-30.949-17.953v-3.983l30.949 17.952zm48.6-17.278l-58.63-34.016v-3.983l58.63 34.016zm43.582 25.215l-39.394-22.859v-3.983l39.394 22.854zm12.684 15.216L296.266 132.65v-3.983l114.896 66.66zm-8.708 2.733l-74.578-43.27v-3.987l74.578 43.273zm-39.89-1.026l-52.294-30.34v-3.982l52.294 30.336zm28.816 24.506l-81.11-47.058v-3.982l81.11 47.057zm-68.048-30.041l-30.948-17.957v-3.983l30.948 17.956zm87.358 50.636l-83.285-48.32v-3.987l83.285 48.319zm8.988 13.048l-127.294-73.854v-3.982l127.294 73.85zm-54.514-23.842l-72.78-42.227v-3.983l72.78 42.227zm54.182 31.437l-49.71-28.842v-3.983l49.71 28.838z" fill="#626FA6"/><path d="M292.292 110.788l-16.997-9.858v3.983l16.997 9.862zm14.004 45.818l-30.949-17.956v3.987l30.949 17.952zm68.194 1.873l-78.224-45.383v3.983l78.224 45.382zm-64.22.432v3.986l100.557 58.339v-3.981zm-34.733 32.204l30.949 17.956v-3.987l-30.949-17.952z" fill="#71D4FF"/><path fill="#626FA6" d="M354.754 244.862l-79.217-45.959v-3.987l79.217 45.96zm64.924 37.572l-60.332-35.005v-3.984l60.332 35.006zm-85.933-41.977l-58.208-33.77v-3.983l58.208 33.77zm11.547 14.485l-69.755-40.468v-3.981l69.755 40.466zm25.93 23.347l-77.135-44.753v-3.983l77.135 44.749z"/><path fill="#71D4FF" d="M390.909 297.498l-96.822-56.174v-3.988l96.822 56.175z"/><path fill="#626FA6" d="M325.035 267.064l-30.948-17.956v-3.982l30.948 17.955zm91.521 60.784l-12.303-7.144v-3.979l12.303 7.137zm-17.226-9.891l-105.243-61.061v-3.983l105.243 61.058zm-69.181-32.355l-30.951-17.957v-3.983l30.951 17.956zm79.259 45.987l-75.002-43.514v-3.987l75.002 43.518zm-18.96-3.215l-96.361-55.908v-3.982l96.361 55.907zm30.055-143.106l31.17 18.085v3.982l-31.17-18.085zm0 7.789l31.17 18.084v3.983l-31.17-18.085zm0 15.57l47.165 27.367v3.982l-47.165-27.363zm47.165 41.7v3.982l-36.891-21.406v-3.983zm0-37.693v3.983l-11.091-6.436v-3.983zm0 7.788v3.982l-11.091-6.435v-3.983zm0 54.913v3.983l-9.31-5.399v-3.986zm0 7.788v3.983l-9.31-5.402v-3.984zm0 23.356v3.985l-21.496-12.471v-3.982zm0 15.575v3.985l-21.496-12.476v-3.983zm0 8.301v3.983l-8.078-4.685v-3.986zm0 23.361v3.98l-8.078-4.684v-3.987zm0 15.569v3.984l-8.078-4.686V364.6z"/></g><path fill="#626FA6" d="M487.518 210.416L276.069 87.738c-3.106-1.802-5.649-6.685-5.649-10.845 0-4.164 2.542-6.097 5.649-4.293l211.449 122.674c3.105 1.805 5.649 6.684 5.649 10.848 0 4.163-2.543 6.096-5.649 4.294zm4.289 181.376c-1.327-.77-2.414-2.855-2.414-4.634V222.395c0-1.779 1.087-2.603 2.414-1.831 1.329.767 2.417 2.853 2.417 4.632v164.761c0 1.78-1.088 2.607-2.417 1.835z"/><path opacity=".32" fill="#71D4FF" d="M491.695 271.179c-1.369-.795-2.489-2.95-2.489-4.782v-4.292c0-1.833 1.12-2.684 2.489-1.893 1.372.798 2.488 2.95 2.488 4.782v4.294c0 1.835-1.116 2.682-2.488 1.891z"/><path fill="#FFF" d="M488.679 207.142l-2.154-3.741c.363-.379.577-.972.577-1.746 0-1.989-1.398-4.423-3.124-5.422-1.722-.999-3.123-.191-3.123 1.798 0 1.993 1.401 4.423 3.123 5.423.743.429 1.424.525 1.957.335l2.136 3.704c.17.294.444.453.608.356.17-.099.17-.416 0-.707zm-7.06-8.667c0-1.504 1.061-2.114 2.359-1.36 1.306.756 2.36 2.596 2.36 4.101 0 1.504-1.055 2.113-2.36 1.359-1.299-.755-2.359-2.595-2.359-4.1z"/><path opacity=".43" fill="#0C25BA" d="M260.394 572.264l-32.273-18.825a10.251 10.251 0 00-10.318-.009l-41.335 23.977 36.335 21.67h15.625l32.059-19.835c2.601-1.611 2.552-5.435-.093-6.978z"/><linearGradient id="j" gradientUnits="userSpaceOnUse" x1="6991.882" y1="577.223" x2="7076.492" y2="577.223" gradientTransform="matrix(-1 0 0 1 7253.015 0)"><stop offset=".292" stop-color="#eaeaf9"/><stop offset=".388" stop-color="#e3e3f7"/><stop offset=".525" stop-color="#d0d0f2"/><stop offset=".627" stop-color="#bebeed"/></linearGradient><path fill="url(#j)" d="M251.351 555.187v20.246c0 .981-.489 1.97-1.461 2.535l-34.342 19.926a10.11 10.11 0 01-10.146 0l-34.229-19.858a2.792 2.792 0 01-1.396-2.603h-.215v-20.246h81.789z"/><path fill="#F0F0FC" d="M215.506 577.437l34.343-19.922c1.944-1.13 1.944-3.95 0-5.08l-34.529-20.033a9.195 9.195 0 00-9.225 0l-34.963 20.284c-1.873 1.085-1.873 3.805 0 4.895l34.229 19.856a10.084 10.084 0 0010.145 0z"/><linearGradient id="k" gradientUnits="userSpaceOnUse" x1="6950.162" y1="511.337" x2="7010.18" y2="511.337" gradientTransform="matrix(-1 0 0 1 7227.466 0)"><stop offset="0" stop-color="#38c3e8"/><stop offset=".254" stop-color="#35c0e7"/><stop offset=".477" stop-color="#2db5e5"/><stop offset=".689" stop-color="#20a3e1"/><stop offset=".893" stop-color="#0d8adc"/><stop offset="1" stop-color="#0179d9"/></linearGradient><path fill="url(#k)" d="M258.581 528.885c-1.098 0-2.147-.226-2.934-.678l-37.095-21.524c-.818-.474-1.267-1.148-1.267-1.893 0-.878.629-1.744 1.724-2.382l13.227-7.676c1.977-1.146 4.979-1.263 6.703-.267l37.095 21.523c.818.477 1.271 1.146 1.271 1.898 0 .873-.631 1.739-1.728 2.375l-13.228 7.676c-1.077.626-2.456.948-3.768.948zm-2.599-1.262c1.538.893 4.246.776 6.033-.261l13.231-7.675c.883-.515 1.393-1.17 1.393-1.799 0-.502-.336-.972-.937-1.316l-37.095-21.523c-1.542-.891-4.249-.771-6.036.266l-13.228 7.672c-.887.516-1.396 1.168-1.396 1.805 0 .494.335.963.936 1.314l37.099 21.517z"/><path fill="#212D60" d="M229.948 478.363l72.088 41.824c2.162 1.254 4.866-.314 4.866-2.825V476.08a6.046 6.046 0 00-3.003-5.227l-74.181-43.037a.928.928 0 00-1.393.806v46.919a3.27 3.27 0 001.623 2.822z"/><path d="M239.548 445.683l-8.474-4.916v.885l8.474 4.918zm0 3.187l-8.474-4.917v.885l8.474 4.916zm-8.474-13.296v.883l2.965 1.719v-.882zm0 1.73v.885l2.965 1.72v-.884zm0 12.208v.887l2.489 1.439v-.882zm0 1.732v.886l2.489 1.44v-.884zm0 5.192v.888l5.742 3.329v-.882zm0 3.461v.886l5.742 3.332v-.884zm0 1.846v.886l2.159 1.251v-.882zm0 5.194v.887l2.159 1.25v-.884zm0 3.459v.889l2.159 1.252v-.885z" fill="#71D4FF"/><linearGradient id="l" gradientUnits="userSpaceOnUse" x1="606.867" y1="538.96" x2="635.901" y2="538.96" gradientTransform="matrix(-1 0 0 1 843.852 0)"><stop offset="0" stop-color="#6732ef"/><stop offset=".276" stop-color="#450d95"/></linearGradient><path fill="url(#l)" d="M210.296 538.992c4.547-1.706 9.092-3.406 13.639-5.109 4.532-1.696 11.69-4.354 12.844 3.021.388 2.453.167 5.14-.145 7.796l-6.923-4.03.063-1.566s-4.411 1.642-6.274 2.342c-3.789 1.414-7.574 2.836-11.363 4.252-4.189 1.568-5.975-5.156-1.841-6.706z"/><linearGradient id="m" gradientUnits="userSpaceOnUse" x1="596.497" y1="545.125" x2="625.243" y2="545.125" gradientTransform="matrix(-1 0 0 1 843.852 0)"><stop offset=".13" stop-color="#6732ef"/><stop offset=".778" stop-color="#450d95"/></linearGradient><path fill="url(#m)" d="M220.955 545.032c4.518-1.691 9.034-3.384 13.553-5.07 1.654-.624 3.377-1.491 5.161-1.657 3.583-.334 6.888 2.237 7.493 5.793.355 2.065.174 4.366-.149 6.666l-6.756-3.941c-.006-.091.006-.189-.006-.27-.174-1.199.255-.858-.831-1.038-1.284-.213-4.43 1.658-5.629 2.107a8722.794 8722.794 0 00-10.994 4.12c-4.188 1.565-5.979-5.159-1.842-6.71z"/><path fill="#FF7A93" d="M218.856 508.53c1.061-.614.926-1.7-.296-2.406l-2.071-1.199c-1.222-.711-3.089-.79-4.147-.174-1.057.615-.923 1.698.298 2.409l2.071 1.196c1.219.709 3.087.789 4.145.174z"/><path fill="#FF969B" d="M242.687 514.708c-1.835 1.04-3.671 2.077-5.507 3.114-2.159 1.218-4.851 3.489-7.251 4.101-1.473.376-2.853-.647-4.096-2.225l-2.643 1.867c1.383 2.354 2.929 4.643 6.138 4.229 2.558-.325 5.246-2.51 7.403-3.727l7.704-4.358c1.94-1.092.2-4.099-1.748-3.001z"/><linearGradient id="n" gradientUnits="userSpaceOnUse" x1="627.683" y1="552.793" x2="627.683" y2="516.709" gradientTransform="matrix(-1 0 0 1 843.852 0)"><stop offset=".011" stop-color="#9faffc"/><stop offset="1" stop-color="#e6f6ff"/></linearGradient><path fill="url(#n)" d="M206.916 531.28c.854-7.235 1.392-13.297 3.211-20.271 2.21-8.509 5.743-7.548 8.37-5.769 3.716 2.524 5.39 4.81 5.443 11.521.585 1.053 1.215 2.08 1.893 2.938l-2.042 1.44a70.1 70.1 0 01-.08 1.255c-.759 9.873-1.557 9.099.576 23.431.262 1.755.485 3.697-.314 5.206-1.316 2.482-4.04 2.298-6.38 1.704-10.097-2.56-12.106-9.403-10.677-21.455z"/><path fill="#FF969B" d="M214.873 499.026c.039 2.163.084 4.323.129 6.485.028 1.489 3.626 1.492 3.595 0-.045-2.162-.085-4.322-.13-6.485-.027-1.487-3.627-1.491-3.594 0z"/><path fill="#FF969B" d="M216.325 500.727c-.33 0-.642-.153-.85-.407-1.579-1.91-1.519-5.719-.469-8.372.688-1.733 1.311-2.525 4.047-2.621.687-.024 2.586-.183 3.297.756.202.096.399.192.592.298v5.424c0 2.72-2.19 4.923-4.894 4.923h-1.723z"/><path fill="#FF7A93" d="M221.397 494.017c-.891.676-1.895 1.231-2.538 2.19-.54.809-.763 1.826-1.259 2.669-.5.838-1.493 1.51-2.312 1.062-1.627-.887-3.773-6.759-1.82-10.358 1.364-2.518 7.561-2.132 9.119-.656 1.599 1.518.086 4.124-1.19 5.093z"/><linearGradient id="o" gradientUnits="userSpaceOnUse" x1="-162.412" y1="504.436" x2="-137.723" y2="504.436" gradientTransform="translate(361.14)"><stop offset=".119" stop-color="#fda758"/><stop offset=".675" stop-color="#fd2a6e"/><stop offset="1" stop-color="#fd256f"/></linearGradient><path fill="url(#o)" d="M210.369 493.22c-.358 2.004.182 4.282-.98 5.952-1.254 1.804-5.867 2.978-8.605 6.312-4.601 5.587-1.152 14.677 7.068 16.192 8.135 1.501 12.283-6.153 8.131-12.933-2.09-3.413 1.278-3.136 2.457-4.884.585-.871 1.235-2.686.798-3.644-.439-.95-.5-1.037-.831-2.032-1.502-4.507 4.056-2.692 4.894-6.4 1.462-6.467-11.47-6.729-12.932 1.437z"/><path fill="#FF969B" d="M241.82 517.025a2.002 2.002 0 01.795-2.707l2.154-1.173a1.98 1.98 0 012.688.801 2.005 2.005 0 01-.795 2.702l-2.155 1.175a1.981 1.981 0 01-2.687-.798z"/><path opacity=".38" fill="#9FAFFC" d="M266.329 467.964v2.33c-2.292-1.301-4.153-.233-4.176 2.402l-2.022-1.145c.011-3.937 2.784-5.541 6.198-3.587z"/><path opacity=".38" fill="#9FAFFC" d="M266.099 486.78c5.63 3.263 10.213.642 10.213-5.852 0-6.49-4.583-14.43-10.213-17.693-.042-.024-.077-.041-.116-.064v-5.623c.04.019.074.04.116.063 8.32 4.827 15.092 16.557 15.092 26.15 0 9.592-6.771 13.472-15.092 8.645-.042-.022-.077-.049-.116-.071v-5.631c.039.022.074.05.116.076z"/><path fill="#FFD33F" d="M256.086 469.085c0 .043-.003.073-.003.11 0 6.443 4.516 14.312 10.091 17.62v5.63c-8.264-4.87-14.97-16.53-14.97-26.078.001-.048 4.882 2.718 4.882 2.718z"/><path opacity=".43" fill="#0C25BA" d="M90.119 467.681L59.371 449.75a9.772 9.772 0 00-9.826-.012l-39.374 22.846 34.614 20.641h14.88l30.538-18.896c2.483-1.538 2.434-5.178-.084-6.648zm81.183 52.998l-30.744-17.932a9.768 9.768 0 00-9.825-.013l-39.379 22.849 34.614 20.638h14.886l30.538-18.896c2.479-1.533 2.432-5.179-.09-6.646z"/><linearGradient id="p" gradientUnits="userSpaceOnUse" x1="7090.84" y1="472.408" x2="7171.437" y2="472.408" gradientTransform="matrix(-1 0 0 1 7181.661 0)"><stop offset=".292" stop-color="#eaeaf9"/><stop offset=".388" stop-color="#e3e3f7"/><stop offset=".525" stop-color="#d0d0f2"/><stop offset=".627" stop-color="#bebeed"/></linearGradient><path fill="url(#p)" d="M81.504 451.417v19.278a2.773 2.773 0 01-1.393 2.422l-32.716 18.98a9.62 9.62 0 01-9.665 0l-32.603-18.92c-.944-.545-1.384-1.525-1.331-2.482h-.202v-19.278h77.91z"/><path fill="#FFF" d="M47.359 472.614l32.712-18.982c1.857-1.078 1.857-3.767 0-4.841l-32.889-19.084a8.762 8.762 0 00-8.79 0L5.087 449.031c-1.784 1.034-1.784 3.624 0 4.662l32.608 18.921a9.651 9.651 0 009.664 0z"/><linearGradient id="q" gradientUnits="userSpaceOnUse" x1="7049.884" y1="409.64" x2="7107.059" y2="409.64" gradientTransform="matrix(-1 0 0 1 7156.112 0)"><stop offset="0" stop-color="#38c3e8"/><stop offset=".254" stop-color="#35c0e7"/><stop offset=".477" stop-color="#2db5e5"/><stop offset=".689" stop-color="#20a3e1"/><stop offset=".893" stop-color="#0d8adc"/><stop offset="1" stop-color="#0179d9"/></linearGradient><path fill="url(#q)" d="M88.392 426.354c-1.049 0-2.046-.211-2.792-.646l-35.34-20.502c-.779-.448-1.207-1.089-1.207-1.804 0-.836.598-1.661 1.643-2.268l12.603-7.306c1.88-1.099 4.741-1.209 6.383-.257l35.335 20.503c.779.45 1.21 1.093 1.21 1.803 0 .836-.602 1.665-1.647 2.268l-12.598 7.313c-1.024.593-2.339.896-3.59.896zm-2.477-1.194c1.465.847 4.048.734 5.75-.256l12.602-7.31c.843-.489 1.327-1.114 1.327-1.716 0-.471-.318-.919-.896-1.25l-35.335-20.502c-1.465-.852-4.043-.734-5.749.25l-12.597 7.31c-.844.487-1.33 1.112-1.33 1.717 0 .477.315.922.893 1.256l35.335 20.501z"/><path fill="#FF969B" d="M74.273 408.365a1.86 1.86 0 012.636-.012c.729.727.733 1.917.011 2.651l-2.083 2.109a1.865 1.865 0 01-2.639.012 1.889 1.889 0 01-.011-2.649l2.086-2.111zm-9.067-2.377a1.866 1.866 0 012.635-.012c.73.727.735 1.923.012 2.651l-2.082 2.115a1.87 1.87 0 01-2.639.008 1.892 1.892 0 01-.012-2.651l2.086-2.111z"/><linearGradient id="r" gradientUnits="userSpaceOnUse" x1="7090.083" y1="411.254" x2="7116.204" y2="411.254" gradientTransform="matrix(-1 0 0 1 7156.112 0)"><stop offset=".546" stop-color="#ff7364"/><stop offset=".715" stop-color="#ff9457"/><stop offset="1" stop-color="#ffd33f"/></linearGradient><path fill="url(#r)" d="M65.085 411.453a3374.251 3374.251 0 00-7.025 3.975c-2.014 1.133-4.657 3.253-7.111 3.14-2.94-.128-4.309-2.794-5.806-4.907-1.626-2.304-3.257-4.608-4.882-6.907-1.44-2.043 1.9-3.98 3.33-1.962 1.202 1.703 2.405 3.402 3.606 5.105 1.045 1.473 2.551 5.047 4.697 4.567 2.01-.448 4.396-2.487 6.182-3.5 1.687-.951 3.374-1.908 5.061-2.862 2.166-1.225 4.115 2.123 1.948 3.351z"/><linearGradient id="s" gradientUnits="userSpaceOnUse" x1="7091.374" y1="435.261" x2="7119.026" y2="435.261" gradientTransform="matrix(-1 0 0 1 7156.112 0)"><stop offset=".011" stop-color="#2234a4"/><stop offset=".135" stop-color="#263299"/><stop offset=".455" stop-color="#2f2d81"/><stop offset=".752" stop-color="#342a72"/><stop offset="1" stop-color="#36296d"/></linearGradient><path fill="url(#s)" d="M54.876 428.118c-5.593 2.614-10.899 6.152-16.277 9.191-3.467 1.956-.352 7.316 3.114 5.359l14.091-7.958c.31-.176.714-.48 1.126-.742.019-.261.27-.355 1.024-.478-.311.054-.67.251-1.024.478-.021.236.144.604.309 1.271.033.125.053.254.086.381l7.412 4.271c-.991-7.954-3.675-14.667-9.861-11.773z"/><path fill="#2A4280" d="M56.931 433.968c.354-.227.713-.424 1.024-.478-.754.123-1.005.218-1.024.478z"/><path fill="#212D60" d="M41.254 388.246c.459-.213 1.009-.32 1.323-.725.265-.337.305-.82.6-1.135.728-.777 2.143.113 3.055-.433.238-.141.419-.377.678-.479.89-.354 1.691 1.036 2.626.852.255-.049.485-.213.743-.201.217.012.407.15.568.299.332.307.655.805.876 1.368.206.102.383.236.492.426.098.183.127.388.138.591.028.638-.186 1.399-.557 2.066a3.59 3.59 0 01-.259.86c-.326.744-.871 1.42-1.375 1.798-.247.19-.5.366-.755.549v1.061a.406.406 0 01-.408.408.398.398 0 01-.233-.086c.012-.104.024-.216.024-.33 0-.771-.34-1.392-.752-1.392-.411 0-.746.621-.746 1.392 0 .407.092.771.247 1.023-.258.571-.453 1.179-.768 1.711-.443.753-1.328 1.35-2.062.949a1.734 1.734 0 01-.359-.286 3.682 3.682 0 01-.481-.588.778.778 0 01-.322-.234c-.141-.193-.186-.449-.316-.655-.31-.482-1.064-.621-1.209-1.177-.09-.34.108-.707.027-1.051-.12-.539-.819-.745-1.044-1.246-.218-.482.064-1.021.161-1.539.169-.889-.218-1.782-.601-2.603-.21-.463.229-.975.689-1.193z"/><path fill="#FF969B" d="M44.712 398.818c.734.4 1.618-.196 2.062-.949.314-.532.509-1.14.768-1.711-.154-.252-.247-.616-.247-1.023 0-.771.334-1.392.746-1.392s.752.621.752 1.392c0 .114-.012.227-.024.33a.395.395 0 00.233.086.406.406 0 00.408-.408v-1.061c.254-.183.508-.358.755-.549.505-.378 1.05-1.054 1.375-1.798v3.399a4.377 4.377 0 01-3.958 4.366l.084 4.292c.027 1.328-3.18 1.325-3.208 0-.036-1.755-.068-3.511-.105-5.261.121.119.242.224.359.287z"/><path fill="#FFAB83" d="M47.738 405.315c.734-.43.641-1.178-.207-1.673l-1.093-.634c-.851-.494-2.146-.546-2.881-.124-.733.429-.641 1.18.207 1.671l1.093.639c.852.492 2.147.545 2.881.121z"/><path fill="#212D60" d="M61.119 378.233l68.669 39.842c2.059 1.194 4.633-.298 4.633-2.691v-39.326c0-2.055-1.09-3.95-2.857-4.979l-70.667-41.003a.886.886 0 00-1.324.771v44.696c0 1.109.589 2.133 1.546 2.69z"/><path d="M70.262 347.101l-8.074-4.687v.844l8.074 4.686zm0 3.032l-8.074-4.682v.847l8.074 4.68zm-8.074-12.665v.844l2.825 1.638v-.842zm0 1.651v.843l2.825 1.64v-.844zm0 11.631v.843l2.373 1.372v-.84zm0 1.65v.841l2.373 1.374v-.845zm0 4.947v.841l5.472 3.173v-.844zm0 3.295v.843l5.472 3.173v-.842zm0 1.756v.848l2.058 1.189v-.841zm0 4.948v.846l2.058 1.188v-.842zm0 3.299v.845l2.058 1.189v-.844z" fill="#71D4FF"/><path fill="#2A4280" d="M65.578 438.193c.201-.11.403-.196.589-.238-.468.102-.622.073-.589.238z"/><linearGradient id="t" gradientUnits="userSpaceOnUse" x1="7081.968" y1="439.978" x2="7111.332" y2="439.978" gradientTransform="matrix(-1 0 0 1 7156.112 0)"><stop offset=".011" stop-color="#2234a4"/><stop offset=".135" stop-color="#263299"/><stop offset=".455" stop-color="#2f2d81"/><stop offset=".752" stop-color="#342a72"/><stop offset="1" stop-color="#36296d"/></linearGradient><path fill="url(#t)" d="M46.152 442.535c3.753-2.207 7.478-4.628 11.271-6.859 1.893-1.11 3.797-2.187 5.743-3.143 6.121-3.002 8.437 3.594 9.833 8.209a55.299 55.299 0 011.146 4.57l-7.591-4.374c-.181-.556-.342-1.113-.544-1.662-.237-.659-.402-.941-.431-1.083.201-.11.403-.196.589-.238-.468.103-.622.073-.589.238-.553.298-1.138.779-1.581 1.04-.069.038-.13.078-.2.118-4.825 2.84-9.122 5.525-13.961 8.368-3.438 2.022-7.115-3.166-3.685-5.184z"/><linearGradient id="u" gradientUnits="userSpaceOnUse" x1="7101.248" y1="443.198" x2="7100.121" y2="412.555" gradientTransform="matrix(-1 0 0 1 7156.112 0)"><stop offset=".546" stop-color="#ff7364"/><stop offset=".715" stop-color="#ff9457"/><stop offset="1" stop-color="#ffd33f"/></linearGradient><path fill="url(#u)" d="M37.478 414.492c.285-4.724 1.981-13.197 6.136-11.98 3.79 1.106 6.933 1.916 8.409 4.767.118.103.247.185.349.324 1.201 1.704 6.153 10.148 8.298 9.674 1.969-.438 1.769-1.002 11.247-6.36 2.166-1.228 4.111 2.123 1.945 3.35-11.157 6.306-11.856 7.215-14.135 7.113-2.405-.106-3.353-1.281-6.944-6.452-.202 3.67-.484 10.552-.25 25.64.02 1.214.504 5.323-.133 6.335-.706 1.134-1.207 2.002-2.481 1.954-1.271-.053-2.534-.437-3.665-1.058-9.28-5.076-9.36-6.089-9.651-11.905-.361-7.123.446-14.285.875-21.402z"/><path fill="#9FAFFC" d="M84.587 368.106c0-8.994 6.344-12.63 14.147-8.104 7.8 4.527 14.147 15.525 14.147 24.521 0 8.993-6.348 12.632-14.147 8.105-7.803-4.526-14.147-15.525-14.147-24.522zm.933.541c0 8.403 5.926 18.68 13.214 22.904 7.283 4.229 13.215.831 13.215-7.568 0-8.405-5.932-18.681-13.215-22.905-7.288-4.228-13.214-.833-13.214 7.569z" opacity=".36"/><path opacity=".36" fill="#9FAFFC" d="M89.869 371.017c0-5.526 3.898-7.761 8.687-4.979 4.794 2.78 8.691 9.531 8.691 15.058 0 5.523-3.897 7.759-8.691 4.98-4.789-2.782-8.687-9.536-8.687-15.059zm.464.27c0 5.227 3.691 11.622 8.223 14.251 4.535 2.631 8.222.518 8.222-4.712 0-5.225-3.687-11.619-8.222-14.253-4.532-2.628-8.223-.516-8.223 4.714z"/><path fill="#FF7364" d="M83.231 367.23c0-1.042.735-1.47 1.638-.939.908.524 1.646 1.801 1.646 2.845 0 .041-.008.071-.012.104.093 7.633 5.459 16.885 12.053 20.708 6.643 3.854 12.048.761 12.048-6.903 0-7.59-5.304-16.851-11.862-20.767a.716.716 0 01-.141-.09c-.887-.6-1.554-1.791-1.554-2.784s.667-1.411 1.509-1.002c.065.034.097.038.134.062.057.033.109.076.165.115 8.305 5.007 15.015 16.739 15.015 26.358 0 9.738-6.873 13.676-15.314 8.777-8.356-4.853-15.163-16.558-15.305-26.236-.007-.081-.02-.166-.02-.248z"/><path fill="#FF7364" d="M98.556 365.142c5.189 3.011 9.415 10.297 9.466 16.294-.012.687-.46.942-1.017.62-.561-.322-1.01-1.106-1.01-1.749-.059-4.779-3.372-10.478-7.44-12.837-4.104-2.381-7.445-.468-7.445 4.263 0 4.739 3.34 10.528 7.445 12.912.583.336 1.034 1.113 1.034 1.763 0 .64-.451.901-1.009.575-5.242-3.039-9.487-10.398-9.487-16.418.001-6.018 4.246-8.449 9.463-5.423z"/><linearGradient id="v" gradientUnits="userSpaceOnUse" x1="-1808.472" y1="525.339" x2="-1724.549" y2="525.339" gradientTransform="matrix(-1 0 0 1 -1636.084 0)"><stop offset=".292" stop-color="#eaeaf9"/><stop offset=".388" stop-color="#e3e3f7"/><stop offset=".525" stop-color="#d0d0f2"/><stop offset=".627" stop-color="#bebeed"/></linearGradient><path fill="url(#v)" d="M162.686 503.48v20.082c0 .975-.483 1.954-1.448 2.514l-34.066 19.766a10.008 10.008 0 01-10.063 0l-33.951-19.697c-.985-.57-1.441-1.592-1.389-2.582h-.21V503.48h81.127z"/><path fill="#F0F0FC" d="M127.133 525.552l34.065-19.764c1.928-1.12 1.928-3.92 0-5.039l-34.25-19.873a9.113 9.113 0 00-9.152 0l-34.678 20.122c-1.859 1.079-1.859 3.772 0 4.855l33.952 19.698a10.02 10.02 0 0010.063.001z"/><linearGradient id="w" gradientUnits="userSpaceOnUse" x1="-139.591" y1="459.982" x2="-79.955" y2="459.982" gradientTransform="translate(268.435)"><stop offset="0" stop-color="#ff6f1b"/><stop offset="1" stop-color="#ff3933"/></linearGradient><path fill="url(#w)" d="M169.866 477.448c-1.093 0-2.139-.228-2.943-.688l-36.795-21.349c-.828-.479-1.284-1.161-1.284-1.923 0-.889.633-1.767 1.74-2.408l13.118-7.609c2.005-1.162 4.947-1.283 6.698-.266l36.796 21.354c.828.479 1.284 1.161 1.284 1.92 0 .884-.635 1.765-1.736 2.403l-13.121 7.61c-1.091.637-2.454.956-3.757.956zm-2.559-1.353c1.509.878 4.173.76 5.936-.264l13.119-7.613c.862-.497 1.356-1.134 1.356-1.739 0-.479-.311-.915-.9-1.258l-36.797-21.351c-1.508-.877-4.171-.759-5.935.261l-13.123 7.616c-.86.495-1.355 1.134-1.355 1.741 0 .481.311.915.904 1.256l36.795 21.351z"/><path fill="#FF969B" d="M155.157 458.655c.75-.763 1.985-.765 2.743-.012s.767 1.997.012 2.761l-2.167 2.194a1.944 1.944 0 01-2.747.017 1.967 1.967 0 01-.014-2.76l2.173-2.2zm-9.442-2.474a1.946 1.946 0 012.748-.013c.757.755.763 1.999.007 2.762l-2.167 2.2a1.945 1.945 0 01-2.748.012 1.963 1.963 0 01-.008-2.761l2.168-2.2z"/><linearGradient id="x" gradientUnits="userSpaceOnUse" x1="-1808.207" y1="461.666" x2="-1781.006" y2="461.666" gradientTransform="matrix(-1 0 0 1 -1661.633 0)"><stop offset=".011" stop-color="#9faffc"/><stop offset="1" stop-color="#e6f6ff"/></linearGradient><path fill="url(#x)" d="M145.59 461.868c-2.438 1.381-4.879 2.76-7.316 4.14-2.094 1.182-4.846 3.385-7.404 3.274-3.06-.139-4.484-2.912-6.045-5.114-1.695-2.402-3.39-4.799-5.084-7.195-1.501-2.123 1.981-4.14 3.469-2.037l3.753 5.31c1.09 1.539 2.656 5.259 4.891 4.759 2.094-.47 4.579-2.586 6.439-3.641 1.755-.992 3.511-1.991 5.27-2.981 2.256-1.276 4.283 2.208 2.027 3.485z"/><linearGradient id="y" gradientUnits="userSpaceOnUse" x1="-1806.86" y1="486.66" x2="-1778.069" y2="486.66" gradientTransform="matrix(-1 0 0 1 -1661.633 0)"><stop offset=".011" stop-color="#2234a4"/><stop offset=".135" stop-color="#263299"/><stop offset=".455" stop-color="#2f2d81"/><stop offset=".752" stop-color="#342a72"/><stop offset="1" stop-color="#36296d"/></linearGradient><path fill="url(#y)" d="M134.957 479.222c-5.823 2.72-11.343 6.408-16.947 9.57-3.608 2.037-.363 7.62 3.243 5.577 4.896-2.759 9.782-5.524 14.672-8.284.327-.18.748-.495 1.176-.77.019-.274.278-.371 1.064-.498-.323.054-.698.26-1.064.498-.021.248.148.629.321 1.322.033.132.058.263.089.396l7.715 4.447c-1.032-8.279-3.821-15.273-10.269-12.258z"/><path fill="#2A4280" d="M137.101 485.316c.366-.238.741-.444 1.064-.498-.786.127-1.045.224-1.064.498z"/><path fill="#FFAB83" d="M127.528 455.474c.768-.442.669-1.224-.214-1.736l-1.141-.663c-.884-.514-2.236-.568-2.998-.126-.767.444-.67 1.229.214 1.743l1.142.658c.883.516 2.231.569 2.997.124z"/><path fill="#212D60" d="M141.458 427.28l71.501 41.483c2.148 1.244 4.831-.311 4.831-2.801V425.01a6.005 6.005 0 00-2.979-5.185l-73.583-42.689a.922.922 0 00-1.381.801v46.541c0 1.152.614 2.224 1.611 2.802z"/><path fill="#FF7364" d="M150.981 394.86l-8.405-4.874v.877l8.405 4.878z"/><path fill="#71D4FF" d="M150.981 398.021l-8.405-4.875v.879l8.405 4.874z"/><path fill="#FF7364" d="M142.576 384.833v.878l2.937 1.705v-.877zm0 1.717v.877l2.937 1.707v-.878zm0 12.112v.875l2.464 1.431v-.875zm0 1.713v.88l2.464 1.433v-.88zm0 5.155v.875l5.697 3.305v-.875zm0 3.432v.877l5.697 3.303v-.874z"/><path fill="#71D4FF" d="M142.576 410.789v.882l2.138 1.242v-.88z"/><path fill="#FF7364" d="M142.576 415.943v.875l2.138 1.243v-.876z"/><path fill="#71D4FF" d="M142.576 419.376v.876l2.138 1.244v-.876z"/><path fill="#2A4280" d="M146.106 489.714c.209-.113.417-.207.61-.247-.484.105-.646.073-.61.247z"/><linearGradient id="z" gradientUnits="userSpaceOnUse" x1="-1816.656" y1="491.571" x2="-1786.081" y2="491.571" gradientTransform="matrix(-1 0 0 1 -1661.633 0)"><stop offset=".011" stop-color="#2234a4"/><stop offset=".135" stop-color="#263299"/><stop offset=".455" stop-color="#2f2d81"/><stop offset=".752" stop-color="#342a72"/><stop offset="1" stop-color="#36296d"/></linearGradient><path fill="url(#z)" d="M125.878 494.232c3.906-2.294 7.784-4.815 11.734-7.142 1.969-1.154 3.951-2.277 5.977-3.272 6.376-3.126 8.789 3.745 10.24 8.551a57.93 57.93 0 011.194 4.757l-7.905-4.557c-.189-.574-.358-1.159-.563-1.729-.251-.683-.421-.978-.449-1.125.209-.113.417-.207.61-.247-.484.104-.646.072-.61.247-.581.309-1.187.811-1.649 1.081-.073.04-.138.08-.206.121-5.025 2.962-9.5 5.754-14.539 8.716-3.58 2.106-7.41-3.3-3.834-5.401z"/><linearGradient id="A" gradientUnits="userSpaceOnUse" x1="-1796.582" y1="494.922" x2="-1797.755" y2="463.016" gradientTransform="matrix(-1 0 0 1 -1661.633 0)"><stop offset=".011" stop-color="#9faffc"/><stop offset="1" stop-color="#e6f6ff"/></linearGradient><path fill="url(#A)" d="M116.843 465.03c.299-4.913 2.058-13.736 6.388-12.473 3.945 1.154 7.223 1.999 8.757 4.96.124.108.258.193.362.345 1.251 1.771 6.408 10.566 8.644 10.071 2.049-.461 1.839-1.043 11.709-6.623 2.255-1.274 4.282 2.207 2.025 3.486-11.616 6.568-12.343 7.517-14.72 7.409-2.501-.109-3.487-1.334-7.227-6.717-.213 3.816-.509 10.986-.261 26.693.02 1.267.524 5.544-.138 6.603-.739 1.178-1.259 2.084-2.586 2.028-1.324-.051-2.639-.455-3.817-1.101-9.66-5.283-9.745-6.34-10.047-12.396-.371-7.415.464-14.867.911-22.285z"/><path fill="#FF969B" d="M130.179 444.667c-.278.167-.564.328-.85.495v.959c0 .201-.203.368-.457.368a.55.55 0 01-.266-.074c.016-.102.027-.2.027-.306 0-.694-.378-1.255-.842-1.255s-.843.561-.843 1.255c0 .37.109.698.277.93-.29.517-.507 1.066-.862 1.547-.5.68-1.499 1.215-2.321.855a2.175 2.175 0 01-.408-.259l.122 4.755c.027 1.199 3.643 1.199 3.61 0-.031-1.295-.064-2.586-.096-3.882 2.5-.185 4.458-1.88 4.458-3.946v-3.069a4.59 4.59 0 01-1.549 1.627z"/><path fill="#212D60" d="M124.042 449.442c.822.359 1.82-.176 2.321-.855.355-.48.572-1.03.862-1.547a1.595 1.595 0 01-.277-.93c0-.694.379-1.255.843-1.255s.842.561.842 1.255c0 .105-.011.204-.027.306a.553.553 0 00.266.074c.254 0 .457-.167.457-.368v-.959c.286-.167.572-.328.85-.495a4.609 4.609 0 001.55-1.627c.136-.254.237-.517.29-.78.419-.603.662-1.286.625-1.867a.996.996 0 00-.153-.53c-.258-.373-.867-.535-1.428-.572a2.415 2.415 0 00-.602.028c-.416.09-.717.352-1.081.521-2.473-.472-6.149-.25-7.166 1.257-1.8 2.659-.128 6.862 1.42 8.087a2.3 2.3 0 00.408.257z"/><path fill="#71D4FF" d="M177.569 435.675c5.734 3.329 10.401.654 10.401-5.961 0-6.614-4.667-14.698-10.401-18.028-.042-.024-.081-.04-.122-.062v-5.735c.042.024.081.045.122.066 8.478 4.917 15.373 16.871 15.373 26.645 0 9.774-6.896 13.723-15.373 8.809-.042-.023-.081-.052-.122-.076V435.6c.041.023.08.052.122.075z"/><path opacity=".38" fill="#9898ED" d="M177.661 406.013v5.733c-5.649-3.2-10.226-.574-10.277 5.912l-4.976-2.822c.024-9.691 6.843-13.624 15.253-8.823z"/><path fill="#212D60" d="M219.477 390.071L168.164 360.3c-2.906-1.688-2.906-5.905 0-7.59l51.592-29.934a13.73 13.73 0 0113.78 0l52.238 30.311c2.801 1.624 2.801 5.688 0 7.31l-51.14 29.674a15.097 15.097 0 01-15.157 0z"/><linearGradient id="B" gradientUnits="userSpaceOnUse" x1="280.345" y1="339.649" x2="153.868" y2="339.649"><stop offset=".292" stop-color="#eaeaf9"/><stop offset=".34" stop-color="#e3e5f8"/><stop offset=".408" stop-color="#d0d5f4"/><stop offset=".49" stop-color="#b1bdee"/><stop offset=".58" stop-color="#879ae5"/><stop offset=".627" stop-color="#6d86e0"/></linearGradient><path fill="url(#B)" d="M168.125 356.704l51.687-29.863a13.782 13.782 0 0113.808 0l52.332 30.238c.67.389 1.174.914 1.521 1.512 1.122-1.909.618-4.553-1.521-5.789L233.62 322.56a13.787 13.787 0 00-13.808 0l-51.687 29.865c-2.188 1.264-2.727 3.954-1.63 5.927a4.342 4.342 0 011.63-1.648z"/><linearGradient id="C" gradientUnits="userSpaceOnUse" x1="-9131.043" y1="314.07" x2="-9024.717" y2="314.07" gradientTransform="translate(9293.242)"><stop offset=".351" stop-color="#ffd33f"/><stop offset=".676" stop-color="#ff7364"/></linearGradient><path fill="url(#C)" d="M275.437 298.325l-43.27 25.041a12.756 12.756 0 01-12.783 0l-43.123-24.957a3.508 3.508 0 01-1.771-3.07v7.702h.266c-.073 1.264.507 2.554 1.755 3.277l43.015 24.957a12.702 12.702 0 0012.751 0l43.16-25.042a3.663 3.663 0 001.835-3.192v-7.892a3.65 3.65 0 01-1.835 3.176z"/><path fill="#FFD33F" d="M275.437 291.94l-24.776-14.336-18.731-10.839a11.593 11.593 0 00-11.622 0l-18.727 10.839-25.319 14.655a3.51 3.51 0 00-1.771 3.072c0 1.201.589 2.396 1.771 3.078l43.123 24.957a12.756 12.756 0 0012.783 0l43.27-25.041a3.645 3.645 0 001.835-3.176c-.005-1.264-.615-2.502-1.836-3.209z"/><defs><filter id="D" filterUnits="userSpaceOnUse" x="174.322" y="297.239" width="102.546" height="86.034"><feFlood result="back" flood-color="#fff" flood-opacity="1"/><feBlend in="SourceGraphic" in2="back"/></filter></defs><mask maskUnits="userSpaceOnUse" x="174.322" y="297.239" width="102.546" height="86.034" id="E"><g filter="url(#D)"><linearGradient id="F" gradientUnits="userSpaceOnUse" x1="225.596" y1="291.563" x2="225.596" y2="397.809"><stop offset="0"/><stop offset="1" stop-color="#fff"/></linearGradient><path mask="url(#E)" fill="url(#F)" d="M174.324 297.239v56.083h.027c-.072 1.264.509 2.555 1.756 3.277l43.014 24.957a12.706 12.706 0 0012.751 0l43.161-25.043a3.653 3.653 0 001.835-3.191v-56.084H174.324z"/></g></mask><linearGradient id="G" gradientUnits="userSpaceOnUse" x1="225.595" y1="291.563" x2="225.595" y2="397.809"><stop offset="0" stop-color="#ffd33f"/><stop offset="1" stop-color="#ff7364"/></linearGradient><path fill="url(#G)" d="M174.324 297.239v56.083c-.044 1.264.536 2.555 1.783 3.277l43.014 24.957a12.706 12.706 0 0012.751 0l43.161-25.043a3.653 3.653 0 001.835-3.191v-56.084H174.324z"/><path fill="#212D60" d="M303.069 435.221l-51.314-29.772c-2.906-1.688-2.906-5.902 0-7.592l51.592-29.928a13.731 13.731 0 0113.781 0l52.239 30.304c2.8 1.626 2.8 5.69 0 7.316l-51.142 29.672a15.105 15.105 0 01-15.156 0z"/><linearGradient id="H" gradientUnits="userSpaceOnUse" x1="363.936" y1="384.799" x2="237.459" y2="384.799"><stop offset=".292" stop-color="#eaeaf9"/><stop offset=".34" stop-color="#e3e5f8"/><stop offset=".408" stop-color="#d0d5f4"/><stop offset=".49" stop-color="#b1bdee"/><stop offset=".58" stop-color="#879ae5"/><stop offset=".627" stop-color="#6d86e0"/></linearGradient><path fill="url(#H)" d="M251.717 401.853l51.686-29.864a13.803 13.803 0 0113.809 0l52.331 30.24c.67.388 1.172.916 1.521 1.509 1.123-1.91.618-4.551-1.521-5.787l-52.331-30.238a13.798 13.798 0 00-13.809 0l-51.686 29.862c-2.186 1.269-2.727 3.953-1.63 5.929a4.363 4.363 0 011.63-1.651z"/><defs><filter id="I" filterUnits="userSpaceOnUse" x="257.914" y="270.554" width="102.544" height="157.866"><feFlood result="back" flood-color="#fff" flood-opacity="1"/><feBlend in="SourceGraphic" in2="back"/></filter></defs><mask maskUnits="userSpaceOnUse" x="257.914" y="270.554" width="102.544" height="157.866" id="J"><g filter="url(#I)"><linearGradient id="K" gradientUnits="userSpaceOnUse" x1="309.187" y1="260.138" x2="309.187" y2="455.092"><stop offset="0"/><stop offset=".579" stop-color="#969696"/><stop offset="1" stop-color="#fff"/></linearGradient><path mask="url(#J)" fill="url(#K)" d="M257.916 270.554v127.917h.028c-.073 1.263.507 2.554 1.755 3.276l43.014 24.958a12.713 12.713 0 0012.752 0l43.158-25.039a3.656 3.656 0 001.834-3.195v-125.18l-102.541-2.737z"/></g></mask><linearGradient id="L" gradientUnits="userSpaceOnUse" x1="309.186" y1="260.138" x2="309.186" y2="455.092"><stop offset="0" stop-color="#fda758"/><stop offset=".199" stop-color="#fd8d5d"/><stop offset="1" stop-color="#fd256f"/></linearGradient><path fill="url(#L)" d="M257.916 270.554v127.917c-.045 1.263.536 2.554 1.783 3.276l43.014 24.958a12.713 12.713 0 0012.752 0l43.158-25.039a3.656 3.656 0 001.834-3.195V273.29l-102.541-2.736z"/><path fill="#212D60" d="M384.216 480.021l-51.309-29.77c-2.906-1.688-2.906-5.904 0-7.591l51.595-29.934a13.714 13.714 0 0113.777 0l52.242 30.31c2.8 1.624 2.8 5.688 0 7.31l-51.146 29.675a15.105 15.105 0 01-15.159 0z"/><linearGradient id="M" gradientUnits="userSpaceOnUse" x1="445.09" y1="429.598" x2="318.611" y2="429.598"><stop offset=".292" stop-color="#eaeaf9"/><stop offset=".34" stop-color="#e3e5f8"/><stop offset=".408" stop-color="#d0d5f4"/><stop offset=".49" stop-color="#b1bdee"/><stop offset=".58" stop-color="#879ae5"/><stop offset=".627" stop-color="#6d86e0"/></linearGradient><path fill="url(#M)" d="M332.874 446.653l51.684-29.863a13.805 13.805 0 0113.81 0l52.331 30.24a4.145 4.145 0 011.52 1.51c1.123-1.908.617-4.554-1.52-5.785l-52.331-30.246a13.805 13.805 0 00-13.81 0l-51.684 29.87c-2.188 1.261-2.734 3.951-1.633 5.924a4.362 4.362 0 011.633-1.65z"/><defs><filter id="N" filterUnits="userSpaceOnUse" x="339.065" y="352.576" width="102.548" height="120.647"><feFlood result="back" flood-color="#fff" flood-opacity="1"/><feBlend in="SourceGraphic" in2="back"/></filter></defs><mask maskUnits="userSpaceOnUse" x="339.065" y="352.576" width="102.548" height="120.647" id="O"><g filter="url(#N)"><linearGradient id="P" gradientUnits="userSpaceOnUse" x1="390.339" y1="288.873" x2="390.339" y2="502.442"><stop offset="0"/><stop offset=".334" stop-color="#595959"/><stop offset=".795" stop-color="#d0d0d0"/><stop offset="1" stop-color="#fff"/></linearGradient><path mask="url(#O)" fill="url(#P)" d="M339.067 354.554v88.719h.032c-.074 1.263.507 2.556 1.749 3.277l43.019 24.957a12.705 12.705 0 0012.753 0l43.158-25.042c1.225-.711 1.831-1.949 1.835-3.192v-90.697l-102.546 1.978z"/></g></mask><linearGradient id="Q" gradientUnits="userSpaceOnUse" x1="390.339" y1="288.873" x2="390.339" y2="502.442"><stop offset="0" stop-color="#cad2fc"/><stop offset=".169" stop-color="#a6c9fb"/><stop offset=".745" stop-color="#2fadf9"/><stop offset="1" stop-color="#00a2f8"/></linearGradient><path fill="url(#Q)" d="M339.067 354.554v88.719c-.042 1.263.539 2.556 1.781 3.277l43.019 24.957a12.705 12.705 0 0012.753 0l43.158-25.042c1.225-.711 1.831-1.949 1.835-3.192v-90.697l-102.546 1.978z"/><linearGradient id="R" gradientUnits="userSpaceOnUse" x1="-8966.297" y1="368.32" x2="-8859.971" y2="368.32" gradientTransform="translate(9293.242)"><stop offset=".519" stop-color="#38c3e8"/><stop offset=".522" stop-color="#37c2e8"/><stop offset=".589" stop-color="#23a7e2"/><stop offset=".662" stop-color="#1493de"/><stop offset=".744" stop-color="#0984db"/><stop offset=".843" stop-color="#037cda"/><stop offset="1" stop-color="#0179d9"/></linearGradient><path fill="url(#R)" d="M440.182 352.576l-43.271 25.043a12.762 12.762 0 01-12.781 0L341 352.662a3.53 3.53 0 01-1.766-3.076v7.708h.266c-.071 1.26.51 2.554 1.751 3.271l43.019 24.964a12.707 12.707 0 0012.754 0l43.158-25.043c1.223-.71 1.831-1.953 1.835-3.191v-7.898c-.004 1.237-.612 2.473-1.835 3.179z"/><path fill="#71D4FF" d="M440.182 346.192l-24.776-14.335-18.732-10.839a11.593 11.593 0 00-11.619 0l-18.729 10.839L341 346.506a3.519 3.519 0 00-1.766 3.074 3.53 3.53 0 001.766 3.081l43.13 24.957a12.762 12.762 0 0012.781 0l43.271-25.043c1.223-.706 1.831-1.941 1.835-3.181-.004-1.262-.612-2.495-1.835-3.202z"/><linearGradient id="S" gradientUnits="userSpaceOnUse" x1="258.081" y1="284.32" x2="360.862" y2="284.32"><stop offset="0" stop-color="#fda758"/><stop offset=".256" stop-color="#fda558"/><stop offset=".348" stop-color="#fd9e5a"/><stop offset=".414" stop-color="#fd935c"/><stop offset=".467" stop-color="#fd825f"/><stop offset=".513" stop-color="#fd6c63"/><stop offset=".553" stop-color="#fd5067"/><stop offset=".589" stop-color="#fd316d"/><stop offset=".6" stop-color="#fd256f"/></linearGradient><path fill="url(#S)" d="M359.029 268.576l-43.27 25.039a12.761 12.761 0 01-12.783 0l-43.124-24.958a3.508 3.508 0 01-1.772-3.07v7.704h.267c-.072 1.262.508 2.553 1.752 3.276l43.018 24.958a12.7 12.7 0 0012.75 0l43.162-25.04a3.658 3.658 0 001.833-3.194v-7.893a3.65 3.65 0 01-1.833 3.178z"/><path fill="#FF7364" d="M359.029 262.193l-24.777-14.34-18.729-10.838a11.59 11.59 0 00-11.62 0l-18.731 10.838-25.319 14.655a3.509 3.509 0 00-1.772 3.071c0 1.202.589 2.396 1.772 3.079l43.124 24.958a12.761 12.761 0 0012.783 0l43.27-25.039a3.648 3.648 0 001.833-3.178c-.004-1.265-.613-2.499-1.834-3.206z"/><path fill="#FF969B" d="M218.275 226.201c.952-1.678 3.938-.214 2.989 1.457-1.762 3.099-3.526 6.202-5.29 9.301l-3.442-.985c1.651-3.326 3.915-6.559 5.743-9.773z"/><path fill="#2A4280" d="M220.938 289.511c-1.005-.48-2.772-.42-3.93.137l-1.529.738c-1.158.558-1.283 1.409-.282 1.893 1.005.485 2.772.422 3.929-.137l1.53-.733c1.156-.563 1.287-1.415.282-1.898zm8.538 4.335c-1.004-.484-2.773-.421-3.93.137l-1.529.738c-1.158.557-1.283 1.408-.283 1.893 1.003.484 2.772.419 3.931-.137l1.528-.733c1.159-.564 1.286-1.415.283-1.898z"/><path fill="#FF969B" d="M219.718 267.121c.405 6.912.553 14.921.958 21.83.108 1.86-3.355 1.853-3.462 0l-1.21-20.729c-.11-1.855 3.353-1.852 3.46 0l.254-1.101zm9.092 3.244c.172 7.751.347 15.501.52 23.254.042 1.859-3.421 1.859-3.461 0-.173-7.752-1.304-16.868-1.479-24.618-.038-1.861 4.38-.497 4.42 1.364z"/><linearGradient id="T" gradientUnits="userSpaceOnUse" x1="224.438" y1="234.768" x2="224.438" y2="279.591"><stop offset="0" stop-color="#ffd33f"/><stop offset="1" stop-color="#ff7364"/></linearGradient><path fill="url(#T)" d="M217.108 231.108c-.851 3.332-.677 13.965-1.4 17.351-1.926 9.054-3.375 11.37-.497 21.337.242.84.681 1.675 1.379 2.38 2.911 2.958 15.777 6.057 18.066 4.43 1.125-.807.549-2.565-.214-3.981-1.238-2.301-7.387-10.851-6.852-20.604.319-5.726 2.062-11.456 2.377-17.181.125-2.208.214-4.547-1.089-6.8-1.346-2.324-6.364-3.734-8.932-2.933-2.81.879-2.245 3.683-2.838 6.001z"/><path fill="#FF969B" d="M229.667 229.848c.516 2.676 1.027 5.347 1.541 8.021.387 1.99 1.812 5.408.292 7.247-3.043 3.677-6.199-.447-15.14-6.667-1.712-1.189.027-2.836 1.73-1.653 1.824 1.267 3.648 2.538 5.471 3.805 1.13.787 2.304 1.892 3.583 2.494.832.387 1.17.851 1.558-.154.238-.626-.177-2.089-.298-2.735-1.15-5.967-.912-3.546-2.074-9.587-.352-1.82 2.985-2.603 3.337-.771z"/><path fill="#FF969B" d="M212.532 235.973l3.442.985c-.198.347-.392.693-.589 1.037-.129.23-.685.924-.528 1.105.178.201 2.506.129 2.801.146 2.214.118 4.43.234 6.648.354 2.211.112 2.082 1.978-.146 1.857-3.51-.187-14.735 1.803-12.477-3.648a32.4 32.4 0 01.849-1.836zm13.039-9.027c.697-.334.608-.927-.198-1.318l-1.017-.488c-.807-.392-2.038-.432-2.741-.097-.697.338-.609.932.197 1.324l1.018.487c.807.387 2.042.432 2.741.092z"/><path fill="#FF969B" d="M223.447 218.19c.274-.044.334.379.403.603.105.343.024.771.364 1 .027.016.06.028.092.045a1.133 1.133 0 01-.039-.307c0-.488.278-.884.625-.884.342 0 .625.396.625.884 0 .448-.239.815-.545.876.024.06.036.125.04.198 0 .094.004.185.004.278l.097 4.503c.024 1.097-2.776 1.092-2.796 0-.02-.896-.04-1.793-.056-2.688h-.291c-1.593 0-2.885-1.078-2.885-2.406v-3.61c2.162-.433.534 2.098 4.362 1.508z"/><linearGradient id="U" gradientUnits="userSpaceOnUse" x1="222.976" y1="218.273" x2="222.976" y2="212.464"><stop offset="0" stop-color="#ffd33f"/><stop offset="1" stop-color="#ff7364"/></linearGradient><path fill="url(#U)" d="M219.763 215.242c.726-.579 1.428-.792 2.449-.792.057-.004.113.004.174.009.028-.042.052-.082.101-.11.081-.053.178-.082.257-.134.324-.226.138-.65 0-.981-.229-.553-.213-1.234.28-1.649.432-.369 1.118-.44 1.722-.352 1.187.174 2.297 1.029 2.22 2.033-.065.868-.964 1.634-.799 2.494.041.21.141.403.21.611.222.636.141 1.472-.138 2.197-.023.142-.056.28-.101.416a4.856 4.856 0 01-.165.409c-.137.311-.275.629-.465.924-.128.207-.299.39-.491.564 0-.094-.004-.185-.004-.278a.617.617 0 00-.04-.198c.306-.061.545-.428.545-.876 0-.488-.283-.884-.625-.884-.347 0-.625.396-.625.884 0 .109.012.209.039.307-.032-.017-.065-.029-.092-.045-.339-.229-.259-.657-.364-1-.069-.224-.129-.646-.403-.603-3.829.59-2.2-1.941-4.326-1.505-.456.014.311-1.181.641-1.441z"/><path fill="#FF969B" d="M225.375 238.781c.92-.019 1.695.59 1.72 1.356.028.771-.707 1.417-1.623 1.438l-2.655.06c-.92.024-1.69-.589-1.72-1.355-.023-.767.708-1.413 1.628-1.436l2.65-.063zm-9.518-2.937c.92-.02 1.694.588 1.719 1.355.028.771-.703 1.417-1.622 1.437l-2.655.061c-.919.023-1.691-.585-1.718-1.357-.024-.767.706-1.411 1.626-1.432l2.65-.064z"/><linearGradient id="V" gradientUnits="userSpaceOnUse" x1="235.265" y1="262.666" x2="242.362" y2="262.666" gradientTransform="matrix(-1 0 0 1 545.251 0)"><stop offset=".011" stop-color="#120a9d"/><stop offset=".051" stop-color="#160a97"/><stop offset=".317" stop-color="#2a0776"/><stop offset=".571" stop-color="#39055e"/><stop offset=".805" stop-color="#42044f"/><stop offset="1" stop-color="#45044a"/></linearGradient><path fill="url(#V)" d="M309.311 261c-1.004-.582-2.776-.51-3.935.166l-1.53.887c-1.156.67-1.285 1.7-.281 2.28 1.005.585 2.775.509 3.934-.161l1.528-.887c1.159-.676 1.284-1.701.284-2.285z"/><linearGradient id="W" gradientUnits="userSpaceOnUse" x1="226.028" y1="268.584" x2="233.127" y2="268.584" gradientTransform="matrix(-1 0 0 1 545.251 0)"><stop offset=".011" stop-color="#120a9d"/><stop offset=".051" stop-color="#160a97"/><stop offset=".317" stop-color="#2a0776"/><stop offset=".571" stop-color="#39055e"/><stop offset=".805" stop-color="#42044f"/><stop offset="1" stop-color="#45044a"/></linearGradient><path fill="url(#W)" d="M318.546 266.918c-1.004-.585-2.775-.509-3.934.161l-1.528.888c-1.16.675-1.288 1.7-.283 2.285 1.005.581 2.771.508 3.935-.166l1.527-.887c1.161-.674 1.284-1.699.283-2.281z"/><linearGradient id="X" gradientUnits="userSpaceOnUse" x1="315.098" y1="256.554" x2="315.098" y2="219.373"><stop offset=".13" stop-color="#6732ef"/><stop offset=".778" stop-color="#450d95"/></linearGradient><path fill="url(#X)" d="M319.273 265.805c-.461-4.245-.916-8.489-1.377-12.734-.474-4.402-1.388-8.974-1.449-13.401-.003-.222.007-.444.007-.667-.045-8.183 1.224-16.58 1.81-24.734.254-3.583-5.288-3.555-5.542 0-.575 8.01-1.81 16.255-1.81 24.3 0 .368-.012.733-.006 1.102.063 4.427.971 8.999 1.447 13.401.461 4.245.922 8.49 1.378 12.734.382 3.53 5.927 3.557 5.542-.001z"/><linearGradient id="Y" gradientUnits="userSpaceOnUse" x1="305.842" y1="256.554" x2="305.842" y2="219.373"><stop offset=".13" stop-color="#6732ef"/><stop offset=".778" stop-color="#450d95"/></linearGradient><path fill="url(#Y)" d="M307.33 233.673c.238-5.621 1.028-11.189 2.437-16.492.921-3.47-4.426-4.939-5.347-1.48-1.423 5.366-2.263 10.975-2.573 16.644-.518 9.492.46 19.152 2.69 28.109.868 3.479 6.211 1.998 5.342-1.48a89.812 89.812 0 01-2.549-25.301z"/><path fill="#FFF" d="M301.515 198.536c.419-.577.804-1.248 1.15-1.901l2.202 1.409c-.402.657-.811 1.358-1.259 2.02l-2.093-1.528z"/><path fill="#FF969B" d="M295.184 187.557c.496 2.013.997 4.03 1.497 6.047.354 1.433.827 6.869 3.042 6.393.65-.142 1.247-.719 1.792-1.461l2.094 1.528c-1.093 1.627-2.446 3.015-4.668 2.863-3.207-.219-3.652-3.411-4.273-5.917-.719-2.905-1.437-5.81-2.159-8.716-.427-1.739 2.244-2.481 2.675-.737z"/><path fill="#FFF" d="M323.877 201.941l-2.703.633a19.674 19.674 0 00-.833-2.425l2.711-.674c.323.812.604 1.631.825 2.466z"/><linearGradient id="Z" gradientUnits="userSpaceOnUse" x1="312.859" y1="224.616" x2="312.859" y2="190.982"><stop offset=".119" stop-color="#fda758"/><stop offset=".675" stop-color="#fd2a6e"/><stop offset="1" stop-color="#fd256f"/></linearGradient><path fill="url(#Z)" d="M304.364 197.809c-.375 5.841-1.098 11.713-.742 17.561.258 4.249.376 5.383 6.499 8.546.215.11.417.218.646.331.573.291 1.19.598 1.864.923 1.054.513 2.229.837 3.415.879 1.182.045 1.643-.664 2.297-1.593.586-.827.126-4.2.102-5.201-.313-14.326.06-19.644.224-22.278a19.542 19.542 0 011.673 3.171l2.711-.674c-1.169-2.989-2.995-5.798-5.548-8.252a1.384 1.384 0 00-.355-.246c-1.306-1.348-3.336-1.98-5.731-2.615-.218-.061-.448-.118-.67-.178-.242-.06-.473-.121-.72-.185-2.064-.542-3.466 1.186-4.365 3.499-.613.995-1.23 1.989-1.847 2.981-.312.5-.699 1.307-1.15 2.154l1.706 1.095c-.005.026-.005.053-.009.082zm5.487-7.36c-.912-.504-1.013-1.275-.222-1.711.79-.436 2.187-.379 3.1.125l1.148.634c.916.504 1.02 1.271.226 1.707-.79.439-2.186.382-3.102-.122l-1.15-.633z"/><path fill="#FF969B" d="M309.629 188.738c.79-.436 2.187-.379 3.1.125l1.148.634c.916.504 1.02 1.271.226 1.707-.79.439-2.186.382-3.102-.122l-1.15-.633c-.912-.504-1.013-1.275-.222-1.711zm-15.35-.258a1.6 1.6 0 00.457-2.207l-1.079-1.652a1.582 1.582 0 00-2.194-.459 1.607 1.607 0 00-.456 2.212l1.074 1.646c.481.735 1.468.94 2.198.46zm23.778 34.562a1.588 1.588 0 00-2.126.718l-.87 1.767a1.6 1.6 0 00.713 2.139c.783.391 1.74.063 2.127-.72l.877-1.767a1.603 1.603 0 00-.721-2.137z"/><linearGradient id="aa" gradientUnits="userSpaceOnUse" x1="304.265" y1="174.454" x2="318.003" y2="182.173"><stop offset=".119" stop-color="#fda758"/><stop offset=".675" stop-color="#fd2a6e"/><stop offset="1" stop-color="#fd256f"/></linearGradient><path fill="url(#aa)" d="M305.444 175.382c.013-.214.045-.432.167-.618.273-.435.927-.625 1.528-.667.218-.015.44-.015.647.033.576.137.955.619 1.532.751.379.088.795.016 1.162.122 1.331.007 2.591.632 3.546 1.479.651.577.917 1.109.917 1.789.02.011.036.048.049.112.023.161.029.327.04.488.024.313.038.628.021.944a4.646 4.646 0 01-.166 1.061c-.054.177-.123.351-.185.525-.155.408-.31.815-.524 1.199a3.562 3.562 0 01-.56.733c-.004-.121-.004-.242-.006-.362a.936.936 0 00-.041-.259c.342-.072.608-.548.608-1.13 0-.634-.314-1.146-.708-1.146-.388 0-.705.511-.705 1.146 0 .142.018.274.047.396a.51.51 0 01-.106-.057c-.383-.299-.29-.853-.41-1.296-.076-.291-.248-.549-.457-.778-1.243-1.412-3.394-.287-4.732-1.102a1.875 1.875 0 01-.706-.774c-.626-.802-1.001-1.787-.958-2.589z"/><path fill="#FF969B" d="M311.84 179.849c.209.229.381.487.457.778.12.443.027.997.41 1.296a.51.51 0 00.106.057 1.719 1.719 0 01-.047-.396c0-.634.317-1.146.705-1.146.394 0 .708.511.708 1.146 0 .582-.267 1.058-.608 1.13a.936.936 0 01.041.259c.002.121.002.242.006.362.037 1.941.075 3.887.11 5.831.024 1.42-3.14 1.417-3.164 0-.024-1.215-.044-2.432-.068-3.648-1.913-.242-3.389-1.799-3.389-3.691v-3.079c1.34.814 3.49-.31 4.733 1.101zm7.078 44.645c-1.066 1.406-3.477.023-2.394-1.405 4.635-6.128 6.494-13.691 4.649-20.514l2.703-.633c1.995 7.512.112 15.85-4.958 22.552z"/><linearGradient id="ab" gradientUnits="userSpaceOnUse" x1="154.827" y1="349.405" x2="161.926" y2="349.405" gradientTransform="matrix(-1 0 0 1 545.251 0)"><stop offset=".011" stop-color="#120a9d"/><stop offset=".051" stop-color="#160a97"/><stop offset=".317" stop-color="#2a0776"/><stop offset=".571" stop-color="#39055e"/><stop offset=".805" stop-color="#42044f"/><stop offset="1" stop-color="#45044a"/></linearGradient><path fill="url(#ab)" d="M389.746 347.738c-1.004-.58-2.771-.509-3.932.165l-1.526.886c-1.164.671-1.288 1.703-.285 2.283 1.003.581 2.776.507 3.936-.166l1.526-.882c1.158-.676 1.286-1.705.281-2.286z"/><linearGradient id="ac" gradientUnits="userSpaceOnUse" x1="145.591" y1="355.32" x2="152.69" y2="355.32" gradientTransform="matrix(-1 0 0 1 545.251 0)"><stop offset=".011" stop-color="#120a9d"/><stop offset=".051" stop-color="#160a97"/><stop offset=".317" stop-color="#2a0776"/><stop offset=".571" stop-color="#39055e"/><stop offset=".805" stop-color="#42044f"/><stop offset="1" stop-color="#45044a"/></linearGradient><path fill="url(#ac)" d="M398.985 353.652c-1.007-.58-2.776-.508-3.937.165l-1.524.892c-1.163.669-1.288 1.697-.286 2.277 1.006.584 2.775.508 3.935-.16l1.528-.888c1.158-.674 1.286-1.699.284-2.286z"/><linearGradient id="ad" gradientUnits="userSpaceOnUse" x1="395.536" y1="332.949" x2="395.536" y2="294.956"><stop offset=".011" stop-color="#2234a4"/><stop offset=".135" stop-color="#263299"/><stop offset=".455" stop-color="#2f2d81"/><stop offset=".752" stop-color="#342a72"/><stop offset="1" stop-color="#36296d"/></linearGradient><path fill="url(#ad)" d="M399.709 352.542c-.457-4.242-.915-8.492-1.376-12.737-.477-4.399-1.383-8.972-1.45-13.4-.004-.219.006-.443.006-.666-.045-8.178 1.227-16.581 1.812-24.734.258-3.58-5.287-3.552-5.54 0-.572 8.01-1.809 16.258-1.813 24.298 0 .369-.01.739-.001 1.103.063 4.429.972 9.001 1.447 13.4.458 4.245.915 8.495 1.376 12.737.382 3.527 5.927 3.555 5.539-.001z"/><linearGradient id="ae" gradientUnits="userSpaceOnUse" x1="386.282" y1="332.95" x2="386.282" y2="294.955"><stop offset=".011" stop-color="#2234a4"/><stop offset=".135" stop-color="#263299"/><stop offset=".455" stop-color="#2f2d81"/><stop offset=".752" stop-color="#342a72"/><stop offset="1" stop-color="#36296d"/></linearGradient><path fill="url(#ae)" d="M387.765 320.406c.243-5.615 1.028-11.183 2.437-16.485.925-3.473-4.421-4.938-5.342-1.48-1.422 5.361-2.269 10.972-2.574 16.642-.52 9.493.458 19.154 2.69 28.114.866 3.477 6.208 1.99 5.345-1.482a89.632 89.632 0 01-2.556-25.309z"/><path fill="#FF969B" d="M390.072 275.476c.788-.439 2.186-.382 3.096.122l1.152.634c.909.503 1.011 1.275.221 1.71-.792.437-2.188.383-3.1-.121l-1.151-.638c-.914-.499-1.011-1.271-.218-1.707z"/><linearGradient id="af" gradientUnits="userSpaceOnUse" x1="392.648" y1="280.004" x2="392.648" y2="320.169"><stop offset="0" stop-color="#38c3e8"/><stop offset=".254" stop-color="#35c0e7"/><stop offset=".477" stop-color="#2db5e5"/><stop offset=".689" stop-color="#20a3e1"/><stop offset=".893" stop-color="#0d8adc"/><stop offset="1" stop-color="#0179d9"/></linearGradient><path fill="url(#af)" d="M404.314 288.68c-.221-.835-.5-1.658-.818-2.469-1.176-2.991-3.002-5.8-5.549-8.249a1.691 1.691 0 00-.359-.25c-1.309-1.343-3.34-1.981-5.735-2.614-.216-.057-.443-.118-.668-.175-.237-.063-.472-.124-.72-.188-2.063-.537-3.468 1.187-4.362 3.502-.615.993-1.234 1.989-1.851 2.982-.312.5-.698 1.308-1.149 2.155-3.584 6.667-3.852 14.979-.771 22.59.473 1.16 1.96 1.139 2.542.433.751 1.378 2.296 2.508 5.685 4.254.213.113.421.219.65.337.575.29 1.192.593 1.863.923 1.054.508 2.229.832 3.411.876.903.036 1.388-.372 1.857-.977a1.423 1.423 0 001.015-.576c5.071-6.705 6.951-15.043 4.959-22.554zm-19.654-2.094c-.39 5.169-.912 10.354-.597 15.52.007.176.02.336.031.506-1.616-5.467-1.469-11.14.566-16.026zm9.881-8.644c-.792.437-2.188.383-3.1-.121l-1.151-.638c-.913-.5-1.011-1.272-.218-1.708.788-.439 2.186-.382 3.096.122l1.152.634c.909.504 1.011 1.276.221 1.711zm4.397 28.884a26.356 26.356 0 01-.055-.833c-.311-14.322.055-19.64.226-22.28a19.924 19.924 0 011.674 3.172c.331.794.609 1.606.831 2.429 1.553 5.746.471 12.013-2.676 17.512z"/><path fill="#71D4FF" d="M517.482 391.657c0 1.147-.812 2.553-1.808 3.136-1 .581-1.813.116-1.813-1.037 0-1.15.813-2.558 1.813-3.138.996-.58 1.808-.118 1.808 1.039z"/><path fill="#FFD33F" d="M396.294 263.578c-.163-.166-.42-.255-.586-.42-.408-.396-.184-1.061-.555-1.481-.609-.681-2.095-.089-2.801-.701-.25-.219-.349-.563-.662-.715-.443-.218-.977.081-1.366.355-.393.274-.948.553-1.369.315-.104-.061-.196-.15-.32-.154s-.229.076-.311.157a2.813 2.813 0 00-.732 1.235c-.078.288-.122.614-.399.787-.208.134-.505.146-.691.299-.218.187-.189.488-.145.746.07.38.125.766.196 1.15a.36.36 0 00.029.242c.037.077.041.117.049.162.005-.024.005-.057.008-.085.189.299.423.508.69.651 1.409.766 3.671-.292 4.98 1.036.213.212.397.46.479.73.123.419.027.94.436 1.218.032.025.069.036.105.057a1.504 1.504 0 01-.048-.375c0-.593.334-1.077.745-1.077s.742.484.742 1.077c0 .549-.276.993-.641 1.064a.69.69 0 01.043.242c.005.113.005.227.009.339.226-.21.431-.435.585-.69.146-.231.263-.473.372-.718a.717.717 0 00.357-.355c.117-.29-.035-.63.117-.908.092-.161.268-.269.378-.424.329-.459-.074-1.045-.043-1.581.021-.384.259-.727.415-1.086.164-.358.227-.797-.066-1.092z"/><path fill="#FF969B" d="M394.129 269.852c.364-.072.641-.516.641-1.064 0-.593-.331-1.077-.742-1.077s-.745.484-.745 1.077c0 .133.018.258.048.375-.036-.021-.073-.032-.105-.057-.408-.278-.313-.799-.436-1.218-.082-.271-.267-.518-.479-.73-1.31-1.328-3.571-.27-4.98-1.036v2.892c0 1.78 1.554 3.232 3.563 3.462.026 1.146.05 2.292.074 3.437.025 1.336 3.355 1.341 3.327 0-.035-1.823-.076-3.651-.112-5.479-.004-.112-.004-.227-.009-.339a.71.71 0 00-.045-.243zm4.367 39.928a1.589 1.589 0 00-2.127.719l-.873 1.768a1.61 1.61 0 00.713 2.137c.783.388 1.74.068 2.132-.72l.873-1.765a1.605 1.605 0 00-.718-2.139z"/><path fill="#FFF" d="M274.903 269.194l-4.12-2.389 7.898-4.58a69.732 69.732 0 012.694-1.489c-.561.033-1.195.033-1.905.008l-3.098-.177.462-2.713 9.326.569 3.65 2.119-14.907 8.652zm86.049 85.657l-10.893-6.318 2.653-1.536 7.344-.01c2.139-.028 3.563-.06 4.285-.104.716-.045 1.283-.114 1.696-.205.41-.094.775-.231 1.087-.413.389-.22.567-.47.539-.748-.028-.276-.274-.551-.731-.817-.474-.275-1.081-.472-1.835-.599-.751-.124-1.69-.208-2.825-.257l.362-2.797c1.46.05 2.604.145 3.425.279.824.135 1.622.336 2.397.601.776.271 1.552.629 2.325 1.079.968.56 1.665 1.163 2.091 1.804.422.639.528 1.261.322 1.875-.209.606-.706 1.14-1.485 1.596a9.594 9.594 0 01-1.844.812c-.642.2-1.36.349-2.147.451-.786.101-1.697.158-2.739.165-1.042.014-3.132-.033-6.279-.139l-.1.063 5.678 3.291-3.326 1.927zm-154.747-62.524c-.928.542-2.004.837-3.236.893-1.23.053-2.53-.146-3.907-.593l-.059.036c2.191 1.634 2.267 3.042.229 4.225-1.388.807-3.035 1.118-4.935.936-1.9-.177-3.833-.835-5.795-1.977a16.1 16.1 0 01-2.069-1.401 9.926 9.926 0 01-1.599-1.661l3.345-1.94a6.538 6.538 0 001.267 1.593 9.014 9.014 0 001.643 1.23c.887.517 1.661.82 2.316.913.657.093 1.25-.017 1.779-.323.407-.236.617-.48.624-.729.009-.255-.169-.55-.528-.889-.358-.338-.915-.727-1.678-1.171l-.925-.537 3.031-1.755.943.549c2.063 1.194 3.613 1.488 4.662.879.392-.229.532-.488.42-.774-.112-.288-.429-.577-.941-.876-.957-.556-2.267-.948-3.938-1.17l1.014-2.537c1.34.144 2.538.391 3.599.738 1.062.347 2.13.832 3.208 1.458 1.549.899 2.465 1.788 2.735 2.654.272.862-.132 1.609-1.205 2.229z"/><path fill="#FFE115" d="M307.554 143.917l-1.713-.708-5.193-2.146c-.368-.149-.672-.116-.88.04-.013-.007 4.632-2.654 4.632-2.654.217-.129.496-.149.844-.008l5.149 2.127-1.748 3.072c-.21.365-.618.469-1.091.277zm19.099 13.884a2.85 2.85 0 00-.232-1.045 3.673 3.673 0 00-.218-.422 2.98 2.98 0 00-.789-.898l-1.767-1.323-5.14-3.841a3.772 3.772 0 01-.228-.194 5.147 5.147 0 01-.258-.274l4.516-2.731c.168.225.363.422.563.575l6.912 5.165c1.185.889 1.659 2.841.799 3.309l-4.316 2.348c.111-.176.158-.411.158-.669zm-12.4-18.267c-.024-.057-.045-.117-.073-.173a3.134 3.134 0 00-.299-.513c-.016-.024-.036-.049-.051-.072a3.043 3.043 0 00-.243-.291 2.467 2.467 0 00-.582-.463c-.248-.138-.49-.207-.708-.186a.643.643 0 00-.242.068l4.47-2.542c.603-.485 1.776.246 2.309 1.494l-4.56 2.725c-.006-.015-.012-.031-.021-.047z"/><path fill="#FFE115" d="M317.845 149.565a3.223 3.223 0 01-.148-.237 2 2 0 01-.138-.264 4.613 4.613 0 01-.14-.338l-1.262-3.675-1.832-5.335c-.009-.049-.036-.089-.052-.134l4.56-2.725c.034.075.064.153.092.237l3.087 9.01c.121.348.305.683.526.97l-4.516 2.731c-.06-.079-.121-.155-.177-.24zm4.136 21.754l-.824-6.024-.354-2.595c-.081-.59.072-1.049.417-1.233l4.337-2.361c-.149.238-.209.573-.159.972l1.183 8.619c.09.661-.108 1.09-.45 1.251l-4.49 2.558c.272-.195.42-.598.34-1.187z"/><linearGradient id="ag" gradientUnits="userSpaceOnUse" x1="3269.517" y1="161.528" x2="3255.545" y2="147.269" gradientTransform="matrix(-1 0 0 1 3575.593 0)"><stop offset=".009" stop-color="#ff7364"/><stop offset=".185" stop-color="#ff855d"/><stop offset="1" stop-color="#ffd33f"/></linearGradient><path fill="url(#ag)" d="M300.648 141.063l5.193 2.146 1.713.708c.473.193.881.088 1.091-.277l1.748-3.072 1.343-2.357a.677.677 0 01.319-.306.625.625 0 01.242-.068c.218-.021.46.048.708.186.194.108.394.263.574.456.093.097.174.193.251.298.015.023.035.048.051.072.109.157.215.327.299.513.028.056.049.116.073.173.036.092.063.132.072.181l1.832 5.335 1.262 3.675a2.93 2.93 0 00.235.529c.08.141.122.209.164.274.144.205.273.364.412.501.122.117.2.18.277.242l5.14 3.841 1.767 1.323a3.002 3.002 0 01.789.898c.084.138.154.28.218.422.12.285.197.577.221.847.007.068.011.132.011.198 0 .258-.047.493-.157.668a.7.7 0 01-.278.275l-.661.359-4.337 2.361c-.345.184-.498.644-.417 1.233l.354 2.595.824 6.024c.08.589-.068.992-.342 1.186-.416.294-1.118.113-1.757-.646l-6.18-7.332c-.421-.5-.922-.791-1.345-.779l-6.178.162c-1.062.024-2.305-1.731-2.1-2.977l1.178-7.251c.082-.493-.076-1.135-.415-1.716l-5-8.522c-.593-1.009-.549-1.99-.076-2.341.211-.153.514-.186.882-.037z"/></svg>