<svg xmlns="http://www.w3.org/2000/svg" xmlns:xlink="http://www.w3.org/1999/xlink" width="2169.47" height="971"><path fill="#BF00DC" d="M0 0h2169.47v971H0z"/><defs><path id="a" d="M-355.363-297.555h2603.214V1437.92H-355.363z"/></defs><clipPath id="b"><use xlink:href="#a" overflow="visible"/></clipPath><g clip-path="url(#b)"><g fill="#FFF"><g opacity=".5"><circle cx="-261.959" cy="-216.547" r="6.165"/><path d="M-202.668-216.547a6.167 6.167 0 01-12.332 0 6.162 6.162 0 016.167-6.163 6.164 6.164 0 016.165 6.163zm53.123 0a6.164 6.164 0 11-12.329 0 6.162 6.162 0 016.162-6.163 6.164 6.164 0 016.167 6.163zm53.125 0a6.165 6.165 0 11-12.332 0 6.164 6.164 0 016.165-6.163 6.164 6.164 0 016.167 6.163z"/><circle cx="-49.461" cy="-216.547" r="6.166"/><circle cx="3.662" cy="-216.547" r="6.163"/><circle cx="56.785" cy="-216.547" r="6.166"/><circle cx="109.909" cy="-216.547" r="6.165"/><circle cx="-261.959" cy="-163.421" r="6.165"/><path d="M-202.668-163.421a6.165 6.165 0 01-6.165 6.164 6.163 6.163 0 01-6.167-6.164 6.164 6.164 0 016.167-6.166 6.165 6.165 0 016.165 6.166zm53.123 0a6.164 6.164 0 01-6.167 6.164 6.162 6.162 0 01-6.162-6.164 6.164 6.164 0 1112.329 0zm53.125 0a6.163 6.163 0 01-6.167 6.164 6.165 6.165 0 110-12.33 6.164 6.164 0 016.167 6.166z"/><circle cx="-49.461" cy="-163.421" r="6.166"/><circle cx="3.662" cy="-163.421" r="6.163"/><circle cx="56.785" cy="-163.421" r="6.166"/><path d="M116.073-163.421a6.164 6.164 0 11-6.162-6.166 6.163 6.163 0 016.162 6.166z"/><circle cx="-261.959" cy="-110.298" r="6.165"/><path d="M-202.668-110.298a6.164 6.164 0 01-6.165 6.163 6.165 6.165 0 110-12.329 6.166 6.166 0 016.165 6.166zm53.123 0a6.164 6.164 0 01-6.167 6.163 6.162 6.162 0 01-6.162-6.163 6.164 6.164 0 1112.329 0zm53.125 0a6.163 6.163 0 01-6.167 6.163 6.165 6.165 0 010-12.329 6.165 6.165 0 016.167 6.166z"/><circle cx="-49.461" cy="-110.298" r="6.166"/><circle cx="3.662" cy="-110.298" r="6.163"/><circle cx="56.785" cy="-110.298" r="6.166"/><path d="M116.073-110.298a6.165 6.165 0 11-12.328-.004 6.165 6.165 0 0112.328.004z"/><circle cx="-261.959" cy="-57.175" r="6.165"/><path d="M-202.668-57.175a6.166 6.166 0 11-12.333.001 6.166 6.166 0 0112.333-.001zm53.123 0a6.166 6.166 0 11-12.329 0 6.165 6.165 0 1112.329 0zm53.125 0a6.167 6.167 0 11-12.33 0 6.167 6.167 0 0112.33 0z"/><circle cx="-49.461" cy="-57.175" r="6.166"/><circle cx="3.662" cy="-57.175" r="6.163"/><circle cx="56.785" cy="-57.175" r="6.166"/><circle cx="109.909" cy="-57.175" r="6.165"/><circle cx="-261.959" cy="-4.051" r="6.165"/><path d="M-202.668-4.051a6.167 6.167 0 01-12.332 0 6.166 6.166 0 0112.332 0zm53.123 0a6.164 6.164 0 11-12.329 0 6.165 6.165 0 0112.329 0zm53.125 0a6.165 6.165 0 11-12.332 0 6.165 6.165 0 016.165-6.165 6.165 6.165 0 016.167 6.165z"/><circle cx="-49.461" cy="-4.051" r="6.166"/><circle cx="3.662" cy="-4.051" r="6.163"/><circle cx="56.785" cy="-4.051" r="6.166"/><circle cx="109.909" cy="-4.051" r="6.165"/><circle cx="-261.959" cy="49.074" r="6.165"/><path d="M-202.668 49.074a6.165 6.165 0 01-6.165 6.165 6.165 6.165 0 110-12.33 6.165 6.165 0 016.165 6.165zm53.123 0a6.164 6.164 0 01-6.167 6.165 6.163 6.163 0 01-6.162-6.165 6.164 6.164 0 1112.329 0zm53.125 0a6.163 6.163 0 01-6.167 6.165 6.165 6.165 0 010-12.33 6.165 6.165 0 016.167 6.165z"/><circle cx="-49.461" cy="49.074" r="6.166"/><circle cx="3.662" cy="49.074" r="6.163"/><circle cx="56.785" cy="49.074" r="6.166"/><circle cx="109.909" cy="49.074" r="6.165"/></g><g opacity=".5"><circle cx="1854.165" cy="707.011" r="6.166"/><circle cx="1854.165" cy="760.134" r="6.163"/><circle cx="1854.165" cy="813.257" r="6.166"/><circle cx="1854.165" cy="866.383" r="6.166"/><path d="M1854.165 925.67a6.164 6.164 0 11.002-12.328 6.164 6.164 0 01-.002 12.328zm0 53.125a6.164 6.164 0 01-6.163-6.164 6.165 6.165 0 116.163 6.164zm0 53.123a6.164 6.164 0 11.003-12.329 6.164 6.164 0 01-.003 12.329z"/><circle cx="1854.165" cy="1078.877" r="6.166"/><circle cx="1801.042" cy="707.011" r="6.166"/><circle cx="1801.042" cy="760.134" r="6.163"/><circle cx="1801.042" cy="813.257" r="6.166"/><circle cx="1801.042" cy="866.383" r="6.166"/><path d="M1801.042 925.67a6.164 6.164 0 110-12.328 6.167 6.167 0 016.166 6.161 6.167 6.167 0 01-6.166 6.167zm0 53.125a6.163 6.163 0 01-6.164-6.164 6.166 6.166 0 116.164 6.164zm0 53.123a6.164 6.164 0 01-6.164-6.162 6.164 6.164 0 016.164-6.167 6.167 6.167 0 016.166 6.167 6.167 6.167 0 01-6.166 6.162z"/><circle cx="1801.042" cy="1078.877" r="6.166"/><path d="M1747.917 713.177a6.166 6.166 0 11.003-12.33 6.166 6.166 0 01-.003 12.33zm0 53.12a6.165 6.165 0 01-6.164-6.164 6.165 6.165 0 016.164-6.162 6.162 6.162 0 110 12.326zm0 53.126a6.166 6.166 0 010-12.332 6.167 6.167 0 016.166 6.167 6.164 6.164 0 01-6.166 6.165zm0 53.126a6.167 6.167 0 010-12.332 6.166 6.166 0 010 12.332zm0 53.121a6.166 6.166 0 01-6.164-6.167c0-3.4 2.763-6.161 6.164-6.161a6.164 6.164 0 110 12.328zm0 53.125a6.166 6.166 0 11.003-12.331 6.166 6.166 0 01-.003 12.331zm0 53.123a6.167 6.167 0 01-6.164-6.162 6.164 6.164 0 116.164 6.162zm0 53.125a6.166 6.166 0 11.004-12.332 6.166 6.166 0 01-.004 12.332zm-53.126-371.866a6.166 6.166 0 01-6.161-6.167 6.165 6.165 0 116.161 6.167zm0 53.12a6.162 6.162 0 01-6.161-6.164 6.161 6.161 0 016.161-6.162 6.164 6.164 0 110 12.326zm0 53.126a6.166 6.166 0 010-12.332 6.165 6.165 0 110 12.332zm0 53.126a6.165 6.165 0 01-6.161-6.166 6.166 6.166 0 116.161 6.166zm0 53.121a6.163 6.163 0 01-6.161-6.167 6.165 6.165 0 116.161 6.167zm0 53.125a6.162 6.162 0 01-6.161-6.164 6.162 6.162 0 016.161-6.166 6.164 6.164 0 110 12.33zm0 53.123a6.163 6.163 0 01-6.161-6.162 6.165 6.165 0 116.161 6.162zm0 53.125a6.163 6.163 0 01-6.161-6.166 6.165 6.165 0 1112.329 0 6.165 6.165 0 01-6.168 6.166zm-53.12-371.866a6.166 6.166 0 110-12.332 6.166 6.166 0 010 12.332zm0 53.12a6.162 6.162 0 01-6.166-6.164 6.162 6.162 0 016.166-6.162 6.164 6.164 0 110 12.326zm0 53.126a6.167 6.167 0 010-12.332 6.166 6.166 0 010 12.332zm0 53.126a6.166 6.166 0 110-12.332 6.166 6.166 0 010 12.332zm0 53.121a6.164 6.164 0 110-12.328 6.166 6.166 0 016.165 6.161 6.166 6.166 0 01-6.165 6.167zm0 53.125a6.163 6.163 0 01-6.166-6.164 6.163 6.163 0 016.166-6.166 6.165 6.165 0 010 12.33zm0 53.123a6.164 6.164 0 01-6.166-6.162 6.166 6.166 0 1112.331 0 6.166 6.166 0 01-6.165 6.162zm0 53.125a6.163 6.163 0 01-6.166-6.166 6.165 6.165 0 0112.331 0 6.166 6.166 0 01-6.165 6.166z"/><circle cx="1588.546" cy="707.011" r="6.166"/><circle cx="1588.546" cy="760.134" r="6.163"/><circle cx="1588.546" cy="813.257" r="6.166"/><circle cx="1588.546" cy="866.383" r="6.166"/><path d="M1588.546 925.67a6.168 6.168 0 01-6.167-6.167c0-3.4 2.764-6.161 6.167-6.161a6.165 6.165 0 110 12.328zm0 53.125a6.167 6.167 0 01-6.167-6.164 6.167 6.167 0 0112.332 0 6.164 6.164 0 01-6.165 6.164zm0 53.123a6.168 6.168 0 01-6.167-6.162 6.168 6.168 0 016.167-6.167 6.165 6.165 0 110 12.329z"/><circle cx="1588.546" cy="1078.877" r="6.166"/></g><g opacity=".5"><circle cx="1169.821" cy="-88.383" r="6.165"/><circle cx="1222.946" cy="-88.383" r="6.166"/><circle cx="1276.07" cy="-88.383" r="6.165"/><circle cx="1169.821" cy="-35.258" r="6.165"/><circle cx="1222.946" cy="-35.258" r="6.166"/><circle cx="1276.07" cy="-35.258" r="6.165"/><circle cx="1169.821" cy="17.866" r="6.165"/><circle cx="1222.946" cy="17.866" r="6.166"/><circle cx="1276.07" cy="17.866" r="6.165"/></g><g opacity=".5"><circle cx="673.815" cy="383.605" r="6.166"/><circle cx="726.938" cy="383.605" r="6.164"/><circle cx="780.062" cy="383.605" r="6.167"/><circle cx="673.815" cy="436.729" r="6.166"/><circle cx="726.938" cy="436.729" r="6.164"/><circle cx="780.062" cy="436.729" r="6.167"/><circle cx="673.815" cy="489.853" r="6.166"/><circle cx="726.938" cy="489.853" r="6.164"/><circle cx="780.062" cy="489.853" r="6.167"/></g></g><path d="M1599.362-113.096l-223.804 223.804m219.589-228.019l-223.805 223.804m219.591-228.019l-223.805 223.804m219.589-228.019L1362.913 98.063m219.59-228.019L1358.698 93.848m219.59-228.018L1354.483 89.633m219.59-228.018L1350.269 85.418m219.588-228.019L1346.054 81.204m219.59-228.019L1341.839 76.989m219.59-228.019L1337.625 72.774m219.588-228.019L1333.409 68.56m219.59-228.019L1329.194 64.344m219.59-228.018L1324.979 60.129m219.59-228.018L1320.765 55.915m219.589-228.019L1316.55 51.7m219.589-228.019L1312.335 47.485m219.59-228.019L1308.12 43.271m219.589-228.02L1303.905 39.055m219.59-228.018L1299.69 34.84m219.589-228.018L1295.476 30.625m219.589-228.018L1291.262 26.411m219.588-228.019L1287.046 22.196m219.59-228.019L1282.831 17.981m219.589-228.019L1278.617 13.766m219.588-228.018L1274.401 9.551m219.59-228.018L1270.187 5.337m219.588-228.019L1265.972 1.122m219.59-228.019L1261.758-3.093m219.588-228.019L1257.542-7.307m219.59-228.02L1253.327-11.522m219.589-228.02L1249.113-15.737m219.588-228.019L1244.898-19.952m219.588-228.019L1240.683-24.167m219.588-228.019L1236.469-28.381m219.588-228.02L1232.254-32.597m219.588-228.019L1228.039-36.811m219.588-228.02L1223.824-41.026m219.588-228.019L1219.609-45.241m219.588-228.019L1215.395-49.456m219.587-228.019L1211.18-53.67m219.588-228.02L1206.965-57.885m219.588-228.02L1202.75-62.1m219.588-228.02L1198.535-66.315m219.588-228.019L1194.32-70.53m219.588-228.019L1190.105-74.745m219.588-228.019L1185.891-78.959m219.588-228.02L1181.676-83.174m219.588-228.02L1177.461-87.389m219.588-228.02L1173.246-91.604m219.588-228.02L1169.031-95.819m219.588-228.019l-223.803 223.804m219.588-228.019l-223.802 223.804m219.587-228.019l-223.802 223.805m219.588-228.02l-223.803 223.805m219.588-228.02l-223.803 223.805m219.588-228.02l-223.803 223.805m219.588-228.019l-223.803 223.804m219.588-228.019l-223.802 223.804M1354.9-357.557l-223.802 223.805m219.588-228.02l-223.803 223.805m219.589-228.02l-223.804 223.805m219.588-228.02l-223.803 223.805m219.588-228.02l-223.804 223.806m219.589-228.02l-223.803 223.805m219.588-228.02l-223.802 223.805m219.587-228.02l-223.802 223.805m219.588-228.02l-223.803 223.805m219.588-228.02l-223.803 223.805m219.588-228.02L1088.949-175.9m219.588-228.02l-223.803 223.805m150.679 1698.719l-223.801 223.801m220.803-229.005l-223.801 226.007m220.803-231.21l-223.801 228.212m220.803-233.414l-223.801 230.416m220.803-235.62l-223.802 232.622m220.803-237.824l-223.801 234.825m220.804-240.027l-223.802 237.029m220.803-242.233l-223.801 239.235m220.802-244.438l-223.8 241.44m220.803-246.643l-223.802 243.645m220.803-248.848l-223.8 245.849m220.803-251.052l-223.802 248.054m220.804-253.257l-223.802 250.259m220.803-255.462l-223.801 252.464m220.802-257.666l-223.8 254.668m220.802-259.871l-223.8 256.873m220.802-262.077l-223.8 259.079m220.802-264.282l-223.801 261.283m220.803-266.486l-223.801 263.488m220.803-268.691l-223.802 265.692m220.803-270.894l-223.801 267.896m220.803-273.099L948.65 1679.443m220.803-275.304l-223.801 272.306m220.803-277.509l-223.801 274.511m220.803-279.715l-223.802 276.717m220.804-281.92L936.657 1667.45m220.804-284.123l-223.802 281.125m220.804-286.328l-223.802 283.33m220.804-288.533l-223.802 285.534m220.804-290.737l-223.803 287.739m220.804-292.942l-223.802 289.944m220.804-295.147l-223.802 292.149m220.803-297.352L915.67 1646.463m220.803-299.557l-223.801 296.559m220.803-301.762l-223.801 298.764m220.803-303.967l-223.801 300.969m220.803-306.172L903.677 1634.47m220.803-308.376l-223.8 305.378m220.802-310.58l-223.801 307.582m220.803-312.786l-223.801 309.788m220.803-314.991l-223.801 311.993m220.803-317.195l-223.802 314.196m220.803-319.399l-223.801 316.4m220.803-321.603l-223.802 318.605m220.804-323.808l-223.802 320.81m220.804-326.013l-223.802 323.015m220.804-328.218l-223.802 325.22m220.803-330.424L870.697 1601.49m220.803-332.629l-223.801 329.631m220.803-334.834l-223.801 331.836m220.803-337.038l-223.801 334.04m220.803-339.243l-223.802 336.244m220.804-341.447l-223.802 338.449m220.804-343.651l-223.803 340.653m220.805-345.856L849.71 1580.502m220.804-348.061l-223.803 345.063m220.805-350.266l-223.803 347.268m220.805-352.471l-223.803 349.473m220.805-354.676L837.717 1568.51m220.804-356.881l-223.802 353.883m220.803-359.086l-223.801 356.088m220.803-361.291l-223.802 358.293m220.804-363.495l-223.801 360.497m220.802-365.701l-223.801 362.702m220.803-367.905l-223.801 364.907m220.803-370.11l-223.802 367.111m220.804-372.313l-223.802 369.315m220.804-374.518l-223.802 371.52m220.804-376.723l-223.803 373.724m220.805-378.927l-223.803 375.929m220.805-381.133l-223.803 378.135m220.804-383.338l-223.802 380.34m220.804-385.543l-223.802 382.545m220.804-387.748l-223.802 384.75m220.804-389.952l-223.802 386.954m220.804-392.156L786.748 1517.54m220.804-394.36l-223.803 391.362m220.805-396.565l-223.803 393.567m220.805-398.771l-223.803 395.773m220.804-400.976l-223.802 397.978m220.804-403.181l-223.803 400.182m220.805-405.385l-223.802 402.388m220.804-407.591L765.76 1496.553m220.804-409.794l-223.802 406.796m220.804-411.999l-223.802 409.001m220.804-414.204l-223.802 411.206m220.804-416.41l-223.802 413.412m220.803-418.615L750.77 1481.562m220.804-420.818l-223.803 417.82m220.804-423.023l-223.803 420.025m220.805-425.228l-223.803 422.229m220.805-427.432l-223.804 424.434m220.806-429.637l-223.803 426.639m220.804-431.842L732.78 1463.573m220.805-434.048l-223.803 431.05m220.804-436.252l-223.803 433.253m220.806-438.457l-223.804 435.459m220.805-440.661L720.787 1451.58" opacity=".5" fill="none" stroke="#FFF" stroke-width="2.122" stroke-miterlimit="10"/><g opacity=".8" fill="none" stroke="#FFF" stroke-miterlimit="10"><path stroke-width=".5" d="M1150.768-168.287c0 270.207-219.044 489.252-489.254 489.252-270.205 0-489.252-219.046-489.252-489.252 0-270.207 219.047-489.25 489.252-489.25 270.21 0 489.254 219.043 489.254 489.25z"/><circle stroke-width=".545" cx="661.515" cy="-168.286" r="482.211"/><path stroke-width=".589" d="M1136.684-168.287c0 262.428-212.739 475.167-475.171 475.167-262.426 0-475.166-212.74-475.166-475.167 0-262.428 212.74-475.167 475.166-475.167 262.431.001 475.171 212.739 475.171 475.167z"/><path stroke-width=".634" d="M1129.641-168.287c0 258.539-209.585 468.126-468.127 468.126-258.537 0-468.125-209.587-468.125-468.126s209.588-468.124 468.125-468.124c258.542 0 468.127 209.585 468.127 468.124z"/><circle stroke-width=".679" cx="661.515" cy="-168.287" r="461.084"/><path stroke-width=".723" d="M1115.557-168.287c0 250.761-203.279 454.042-454.043 454.042-250.759 0-454.041-203.281-454.041-454.042 0-250.76 203.282-454.039 454.041-454.039 250.763 0 454.043 203.279 454.043 454.039z"/><path stroke-width=".768" d="M1108.514-168.287c0 246.871-200.125 447-447 447-246.869 0-446.999-200.129-446.999-447s200.13-446.998 446.999-446.998c246.875.001 447 200.127 447 446.998z"/><path stroke-width=".813" d="M1101.473-168.287c0 242.982-196.974 439.958-439.959 439.958-242.979 0-439.957-196.976-439.957-439.958s196.978-439.956 439.957-439.956c242.985.001 439.959 196.974 439.959 439.956z"/><path stroke-width=".857" d="M1094.431-168.286c0 239.092-193.821 432.915-432.917 432.915-239.091 0-432.914-193.823-432.914-432.915 0-239.093 193.823-432.914 432.914-432.914 239.095 0 432.917 193.821 432.917 432.914z"/><path stroke-width=".902" d="M1087.388-168.287c0 235.204-190.667 425.874-425.874 425.874-235.201 0-425.872-190.67-425.872-425.874 0-235.203 190.671-425.871 425.872-425.871 235.207 0 425.874 190.668 425.874 425.871z"/><path stroke-width=".946" d="M1080.346-168.286c0 231.313-187.515 418.831-418.832 418.831-231.313 0-418.83-187.517-418.83-418.831 0-231.314 187.518-418.829 418.83-418.829 231.317 0 418.832 187.514 418.832 418.829z"/><path stroke-width=".991" d="M1073.304-168.286c0 227.424-184.362 411.788-411.79 411.788-227.423 0-411.788-184.364-411.788-411.788 0-227.425 184.365-411.788 411.788-411.788 227.427 0 411.79 184.363 411.79 411.788z"/><circle stroke-width="1.036" cx="661.514" cy="-168.287" r="404.747"/><path stroke-width="1.08" d="M1059.219-168.287c0 219.646-178.056 397.704-397.705 397.704-219.645 0-397.703-178.058-397.703-397.704 0-219.646 178.059-397.703 397.703-397.703 219.649.001 397.705 178.057 397.705 397.703z"/><path stroke-width="1.125" d="M1052.177-168.287c0 215.756-174.903 390.663-390.663 390.663-215.755 0-390.661-174.906-390.661-390.663s174.906-390.661 390.661-390.661c215.759.001 390.663 174.905 390.663 390.661z"/><path stroke-width="1.17" d="M1045.135-168.286c0 211.867-171.75 383.62-383.621 383.62-211.866 0-383.619-171.752-383.619-383.62s171.753-383.619 383.619-383.619c211.871 0 383.621 171.751 383.621 383.619z"/><path stroke-width="1.214" d="M1038.093-168.286c0 207.978-168.598 376.578-376.579 376.578-207.977 0-376.577-168.6-376.577-376.578 0-207.979 168.601-376.577 376.577-376.577 207.981 0 376.579 168.598 376.579 376.577z"/><circle stroke-width="1.259" cx="661.515" cy="-168.287" r="369.536"/><path stroke-width="1.304" d="M1024.008-168.287c0 200.2-162.291 362.494-362.494 362.494-200.197 0-362.493-162.294-362.493-362.494s162.296-362.492 362.493-362.492c200.203.001 362.494 162.293 362.494 362.492z"/><path stroke-width="1.348" d="M1016.966-168.287c0 196.31-159.139 355.452-355.452 355.452-196.309 0-355.451-159.142-355.451-355.452s159.143-355.45 355.451-355.45c196.313.001 355.452 159.14 355.452 355.45z"/><path stroke-width="1.393" d="M1009.924-168.287c0 192.421-155.985 348.41-348.41 348.41-192.42 0-348.408-155.989-348.408-348.41 0-192.42 155.988-348.407 348.408-348.407 192.424 0 348.41 155.986 348.41 348.407z"/><path stroke-width="1.438" d="M1002.882-168.286c0 188.531-152.833 341.367-341.368 341.367-188.53 0-341.366-152.835-341.366-341.367s152.836-341.366 341.366-341.366c188.535 0 341.368 152.834 341.368 341.366z"/><path stroke-width="1.482" d="M995.84-168.287c0 184.643-149.681 334.325-334.326 334.325-184.641 0-334.324-149.683-334.324-334.325s149.684-334.324 334.324-334.324c184.645.001 334.326 149.682 334.326 334.324z"/><path stroke-width="1.527" d="M988.797-168.287c0 180.753-146.526 327.283-327.283 327.283-180.752 0-327.281-146.529-327.281-327.283 0-180.753 146.529-327.281 327.281-327.281 180.757 0 327.283 146.528 327.283 327.281z"/><path stroke-width="1.571" d="M981.755-168.287c0 176.864-143.374 320.241-320.241 320.241-176.862 0-320.24-143.376-320.24-320.241 0-176.864 143.378-320.239 320.24-320.239 176.867 0 320.241 143.376 320.241 320.239z"/><path stroke-width="1.616" d="M974.713-168.287c0 172.975-140.221 313.199-313.199 313.199-172.973 0-313.197-140.224-313.197-313.199 0-172.974 140.225-313.197 313.197-313.197 172.978.001 313.199 140.223 313.199 313.197z"/><path stroke-width="1.661" d="M967.671-168.287c0 169.086-137.068 306.157-306.157 306.157-169.084 0-306.156-137.071-306.156-306.157 0-169.085 137.072-306.155 306.156-306.155 169.089.001 306.157 137.07 306.157 306.155z"/><path stroke-width="1.705" d="M960.629-168.287c0 165.196-133.916 299.115-299.115 299.115C496.318 130.828 362.4-3.09 362.4-168.287c0-165.196 133.918-299.113 299.113-299.113 165.2.001 299.116 133.918 299.116 299.113z"/><path stroke-width="1.75" d="M953.586-168.287c0 161.307-130.762 292.072-292.072 292.072-161.305 0-292.071-130.765-292.071-292.072 0-161.307 130.767-292.071 292.071-292.071 161.31.001 292.072 130.765 292.072 292.071z"/><path stroke-width="1.795" d="M946.544-168.287c0 157.417-127.609 285.03-285.03 285.03-157.416 0-285.029-127.613-285.029-285.03s127.613-285.029 285.029-285.029c157.421.001 285.03 127.612 285.03 285.029z"/><path stroke-width="1.839" d="M939.502-168.287c0 153.529-124.457 277.988-277.988 277.988-153.526 0-277.987-124.459-277.987-277.988 0-153.528 124.461-277.987 277.987-277.987 153.531.001 277.988 124.46 277.988 277.987z"/><path stroke-width="1.884" d="M932.459-168.287c0 149.639-121.303 270.946-270.945 270.946-149.637 0-270.945-121.307-270.945-270.946s121.309-270.944 270.945-270.944c149.642 0 270.945 121.306 270.945 270.944z"/><path stroke-width="1.929" d="M925.418-168.287c0 145.75-118.15 263.904-263.904 263.904-145.748 0-263.902-118.154-263.902-263.904 0-145.749 118.154-263.901 263.902-263.901 145.754 0 263.904 118.152 263.904 263.901z"/><path stroke-width="1.973" d="M918.375-168.287c0 141.861-114.997 256.862-256.861 256.862-141.859 0-256.86-115.001-256.86-256.862 0-141.86 115.001-256.86 256.86-256.86 141.864.001 256.861 115 256.861 256.86z"/><path stroke-width="2.018" d="M911.333-168.287c0 137.971-111.845 249.82-249.819 249.82-137.97 0-249.818-111.849-249.818-249.82s111.849-249.818 249.818-249.818c137.974.001 249.819 111.848 249.819 249.818z"/><path stroke-width="2.063" d="M904.291-168.287C904.291-34.204 795.6 74.49 661.514 74.49c-134.08 0-242.775-108.695-242.775-242.777s108.695-242.776 242.775-242.776c134.086 0 242.777 108.695 242.777 242.776z"/><path stroke-width="2.107" d="M897.249-168.286c0 130.192-105.539 235.735-235.735 235.735-130.19 0-235.733-105.543-235.733-235.735S531.324-404.02 661.514-404.02c130.196-.001 235.735 105.541 235.735 235.734z"/><path stroke-width="2.152" d="M890.207-168.287c0 126.305-102.387 228.694-228.693 228.694-126.301 0-228.691-102.389-228.691-228.694 0-126.303 102.391-228.691 228.691-228.691 126.306-.001 228.693 102.388 228.693 228.691z"/><path stroke-width="2.196" d="M883.164-168.287c0 122.415-99.232 221.651-221.65 221.651-122.412 0-221.649-99.236-221.649-221.651 0-122.413 99.237-221.648 221.649-221.648 122.418-.001 221.65 99.235 221.65 221.648z"/><path stroke-width="2.241" d="M876.123-168.287c0 118.525-96.081 214.609-214.609 214.609-118.523 0-214.607-96.084-214.607-214.609 0-118.524 96.084-214.607 214.607-214.607 118.528 0 214.609 96.083 214.609 214.607z"/><path stroke-width="2.286" d="M869.08-168.287c0 114.636-92.928 207.567-207.566 207.567-114.634 0-207.565-92.931-207.565-207.567 0-114.635 92.932-207.565 207.565-207.565 114.638 0 207.566 92.93 207.566 207.565z"/><path stroke-width="2.33" d="M862.038-168.287c0 110.747-89.774 200.524-200.524 200.524-110.744 0-200.523-89.778-200.523-200.524S550.77-368.81 661.514-368.81c110.75 0 200.524 89.778 200.524 200.523z"/><path stroke-width="2.375" d="M854.996-168.286c0 106.857-86.621 193.482-193.482 193.482-106.855 0-193.48-86.625-193.48-193.482 0-106.856 86.625-193.481 193.48-193.481 106.861-.001 193.482 86.624 193.482 193.481z"/><path stroke-width="2.42" d="M847.953-168.287c0 102.968-83.468 186.44-186.439 186.44-102.966 0-186.438-83.472-186.438-186.44 0-102.967 83.473-186.439 186.438-186.439 102.971 0 186.439 83.472 186.439 186.439z"/><path stroke-width="2.464" d="M840.911-168.287c0 99.079-80.315 179.398-179.397 179.398-99.077 0-179.396-80.319-179.396-179.398 0-99.078 80.319-179.396 179.396-179.396 99.082 0 179.397 80.319 179.397 179.396z"/><path stroke-width="2.509" d="M833.869-168.287c0 95.189-77.162 172.356-172.355 172.356-95.188 0-172.354-77.167-172.354-172.356s77.167-172.355 172.354-172.355c95.193 0 172.355 77.166 172.355 172.355z"/><path stroke-width="2.554" d="M826.827-168.287c0 91.3-74.01 165.314-165.313 165.314-91.298 0-165.313-74.014-165.313-165.314 0-91.299 74.015-165.313 165.313-165.313 91.303.001 165.313 74.015 165.313 165.313z"/><path stroke-width="2.598" d="M819.785-168.287c0 87.411-70.857 158.271-158.271 158.271-87.408 0-158.271-70.86-158.271-158.271 0-87.41 70.862-158.271 158.271-158.271 87.414.001 158.271 70.862 158.271 158.271z"/><path stroke-width="2.643" d="M812.743-168.287c0 83.522-67.704 151.23-151.229 151.23-83.52 0-151.229-67.708-151.229-151.23 0-83.52 67.709-151.228 151.229-151.228 83.525 0 151.229 67.708 151.229 151.228z"/><path stroke-width="2.688" d="M805.7-168.287c0 79.633-64.551 144.188-144.187 144.188-79.631 0-144.186-64.555-144.186-144.188 0-79.631 64.555-144.186 144.186-144.186 79.636 0 144.187 64.555 144.187 144.186z"/><path stroke-width="2.732" d="M798.658-168.287c0 75.743-61.398 137.146-137.145 137.146-75.741 0-137.144-61.402-137.144-137.146 0-75.742 61.402-137.144 137.144-137.144 75.747 0 137.145 61.403 137.145 137.144z"/><path stroke-width="2.777" d="M791.616-168.287c0 71.854-58.245 130.103-130.103 130.103-71.852 0-130.102-58.249-130.102-130.103 0-71.853 58.25-130.102 130.102-130.102 71.858 0 130.103 58.25 130.103 130.102z"/><path stroke-width="2.821" d="M784.574-168.287c0 67.965-55.092 123.061-123.061 123.061-67.962 0-123.06-55.096-123.06-123.061 0-67.963 55.098-123.06 123.06-123.06 67.969.001 123.061 55.097 123.061 123.06z"/><path stroke-width="2.866" d="M777.532-168.287c0 64.076-51.94 116.019-116.019 116.019-64.073 0-116.017-51.943-116.017-116.019 0-64.074 51.943-116.018 116.017-116.018 64.079.001 116.019 51.944 116.019 116.018z"/><path stroke-width="2.911" d="M770.489-168.287c0 60.186-48.786 108.977-108.976 108.977-60.184 0-108.975-48.791-108.975-108.977 0-60.185 48.791-108.976 108.975-108.976 60.19.001 108.976 48.792 108.976 108.976z"/><path stroke-width="2.955" d="M763.448-168.287c0 56.297-45.635 101.935-101.935 101.935-56.295 0-101.933-45.637-101.933-101.935 0-56.295 45.638-101.934 101.933-101.934 56.3.001 101.935 45.639 101.935 101.934z"/><path stroke-width="3" d="M756.405-168.287c0 52.408-42.48 94.893-94.892 94.893-52.405 0-94.891-42.485-94.891-94.893 0-52.406 42.485-94.891 94.891-94.891 52.412 0 94.892 42.485 94.892 94.891z"/></g><g opacity=".79" fill="none" stroke="#FFF" stroke-miterlimit="10"><circle stroke-width=".5" cx="1205.239" cy="522.479" r="320.135"/><circle stroke-width=".564" cx="1205.239" cy="522.479" r="313.772"/><circle stroke-width=".628" cx="1205.239" cy="522.479" r="307.41"/><circle stroke-width=".692" cx="1205.239" cy="522.479" r="301.048"/><circle stroke-width=".756" cx="1205.239" cy="522.479" r="294.685"/><circle stroke-width=".821" cx="1205.24" cy="522.479" r="288.html"/><circle stroke-width=".885" cx="1205.239" cy="522.479" r="281.96"/><circle stroke-width=".949" cx="1205.24" cy="522.479" r="275.598"/><circle stroke-width="1.013" cx="1205.239" cy="522.479" r="269.235"/><circle stroke-width="1.077" cx="1205.24" cy="522.479" r="262.873"/><circle stroke-width="1.141" cx="1205.24" cy="522.479" r="256.51"/><circle stroke-width="1.205" cx="1205.24" cy="522.479" r="250.148"/><circle stroke-width="1.269" cx="1205.24" cy="522.479" r="243.786"/><circle stroke-width="1.333" cx="1205.24" cy="522.479" r="237.423"/><circle stroke-width="1.397" cx="1205.24" cy="522.479" r="231.061"/><circle stroke-width="1.462" cx="1205.24" cy="522.479" r="224.699"/><circle stroke-width="1.526" cx="1205.24" cy="522.479" r="218.336"/><circle stroke-width="1.59" cx="1205.24" cy="522.479" r="211.974"/><circle stroke-width="1.654" cx="1205.24" cy="522.479" r="205.611"/><circle stroke-width="1.718" cx="1205.24" cy="522.479" r="199.248"/><circle stroke-width="1.782" cx="1205.24" cy="522.479" r="192.887"/><circle stroke-width="1.846" cx="1205.24" cy="522.479" r="186.523"/><circle stroke-width="1.91" cx="1205.241" cy="522.479" r="180.162"/><circle stroke-width="1.974" cx="1205.24" cy="522.479" r="173.799"/><circle stroke-width="2.038" cx="1205.241" cy="522.479" r="167.437"/><circle stroke-width="2.103" cx="1205.24" cy="522.479" r="161.074"/><circle stroke-width="2.167" cx="1205.241" cy="522.479" r="154.711"/><circle stroke-width="2.231" cx="1205.241" cy="522.479" r="148.349"/><circle stroke-width="2.295" cx="1205.241" cy="522.479" r="141.987"/><circle stroke-width="2.359" cx="1205.241" cy="522.479" r="135.625"/><circle stroke-width="2.423" cx="1205.241" cy="522.479" r="129.262"/><circle stroke-width="2.487" cx="1205.241" cy="522.479" r="122.9"/><circle stroke-width="2.551" cx="1205.241" cy="522.479" r="116.537"/><circle stroke-width="2.615" cx="1205.241" cy="522.479" r="110.174"/><circle stroke-width="2.679" cx="1205.241" cy="522.479" r="103.812"/><circle stroke-width="2.744" cx="1205.241" cy="522.479" r="97.45"/><circle stroke-width="2.808" cx="1205.241" cy="522.479" r="91.087"/><circle stroke-width="2.872" cx="1205.241" cy="522.479" r="84.726"/><circle stroke-width="2.936" cx="1205.241" cy="522.479" r="78.362"/><circle stroke-width="3" cx="1205.241" cy="522.479" r="72"/></g><g opacity=".89" fill="none" stroke="#FFF" stroke-linecap="round" stroke-linejoin="round"><circle stroke-width=".813" stroke-dasharray="0,4.335" cx="165.97" cy="224.75" r="280.79"/><circle stroke-width=".85" stroke-dasharray="0,4.3009" cx="165.97" cy="224.75" r="275.159"/><circle stroke-width=".888" stroke-dasharray="0,4.2767" cx="165.971" cy="224.75" r="269.529"/><circle stroke-width=".925" stroke-dasharray="0,4.2409" cx="165.971" cy="224.75" r="263.898"/><circle stroke-width=".963" stroke-dasharray="0,4.2042" cx="165.971" cy="224.75" r="258.268"/><circle stroke-dasharray="0,4.1774" cx="165.971" cy="224.75" r="252.637"/><circle stroke-width="1.038" stroke-dasharray="0,4.1499" cx="165.971" cy="224.75" r="247.006"/><circle stroke-width="1.076" stroke-dasharray="0,4.1214" cx="165.97" cy="224.75" r="241.375"/><circle stroke-width="1.113" stroke-dasharray="0,4.0807" cx="165.971" cy="224.75" r="235.745"/><circle stroke-width="1.151" stroke-dasharray="0,4.0502" cx="165.971" cy="224.75" r="230.114"/><circle stroke-width="1.188" stroke-dasharray="0,4.0186" cx="165.971" cy="224.75" r="224.483"/><circle stroke-width="1.226" stroke-dasharray="0,3.9859" cx="165.971" cy="224.75" r="218.853"/><circle stroke-width="1.263" stroke-dasharray="0,3.9638" cx="165.971" cy="224.75" r="213.222"/><path stroke-width="1.301" stroke-dasharray="0,3.9289" d="M373.563 224.75c0 114.65-92.939 207.592-207.592 207.592C51.32 432.342-41.62 339.4-41.62 224.75c0-114.651 92.94-207.592 207.591-207.592 114.652 0 207.592 92.941 207.592 207.592z"/><circle stroke-width="1.339" stroke-dasharray="0,3.8927" cx="165.971" cy="224.75" r="201.96"/><circle stroke-width="1.376" stroke-dasharray="0,3.8672" cx="165.971" cy="224.75" r="196.33"/><circle stroke-width="1.414" stroke-dasharray="0,3.8405" cx="165.971" cy="224.75" r="190.699"/><circle stroke-width="1.451" stroke-dasharray="0,3.8002" cx="165.972" cy="224.75" r="185.069"/><circle stroke-width="1.489" stroke-dasharray="0,3.7709" cx="165.972" cy="224.75" r="179.438"/><circle stroke-width="1.526" stroke-dasharray="0,3.7401" cx="165.972" cy="224.75" r="173.808"/><circle stroke-width="1.564" stroke-dasharray="0,3.7078" cx="165.972" cy="224.75" r="168.177"/><path stroke-width="1.601" stroke-dasharray="0,3.6739" d="M328.518 224.75c0 89.772-72.772 162.546-162.547 162.546-89.772 0-162.545-72.773-162.545-162.546S76.198 62.203 165.971 62.203c89.774 0 162.547 72.774 162.547 162.547z"/><circle stroke-width="1.639" stroke-dasharray="0,3.6517" cx="165.972" cy="224.75" r="156.915"/><circle stroke-width="1.677" stroke-dasharray="0,3.6144" cx="165.971" cy="224.75" r="151.285"/><circle stroke-width="1.714" stroke-dasharray="0,3.5891" cx="165.972" cy="224.75" r="145.654"/><circle stroke-width="1.752" stroke-dasharray="0,3.5477" cx="165.972" cy="224.75" r="140.023"/><circle stroke-width="1.789" stroke-dasharray="0,3.5186" cx="165.972" cy="224.75" r="134.393"/><path stroke-width="1.827" stroke-dasharray="0,3.4874" d="M294.734 224.75c0 71.114-57.647 128.762-128.764 128.762-71.114 0-128.761-57.648-128.761-128.762S94.856 95.987 165.971 95.987c71.116 0 128.763 57.649 128.763 128.763z"/><circle stroke-width="1.864" stroke-dasharray="0,3.454" cx="165.972" cy="224.75" r="123.131"/><circle stroke-width="1.902" stroke-dasharray="0,3.434" cx="165.972" cy="224.75" r="117.5"/><path stroke-width="1.94" stroke-dasharray="0,3.3958" d="M277.843 224.75c0 61.785-50.085 111.87-111.872 111.87-61.784 0-111.869-50.085-111.869-111.87 0-61.786 50.084-111.871 111.869-111.871 61.787 0 111.872 50.085 111.872 111.871z"/><circle stroke-width="1.977" stroke-dasharray="0,3.3715" cx="165.972" cy="224.75" r="106.24"/><circle stroke-width="2.015" stroke-dasharray="0,3.3448" cx="165.972" cy="224.75" r="100.609"/><circle stroke-width="2.052" stroke-dasharray="0,3.2972" cx="165.972" cy="224.75" r="94.978"/><circle stroke-width="2.09" stroke-dasharray="0,3.2831" cx="165.972" cy="224.75" r="89.347"/><circle stroke-width="2.127" stroke-dasharray="0,3.2471" cx="165.972" cy="224.75" r="83.717"/><path stroke-width="2.165" stroke-dasharray="0,3.2069" d="M244.059 224.75c0 43.126-34.959 78.086-78.088 78.086-43.125 0-78.084-34.959-78.084-78.086 0-43.127 34.959-78.086 78.084-78.086 43.129 0 78.088 34.959 78.088 78.086z"/><circle stroke-width="2.203" stroke-dasharray="0,3.1837" cx="165.973" cy="224.75" r="72.455"/><circle stroke-width="2.24" stroke-dasharray="0,3.1568" cx="165.973" cy="224.75" r="66.824"/><circle stroke-width="2.278" stroke-dasharray="0,3.1256" cx="165.973" cy="224.75" r="61.194"/><circle stroke-width="2.315" stroke-dasharray="0,3.0887" cx="165.973" cy="224.75" r="55.563"/></g><g opacity=".81" fill="none" stroke="#FFF" stroke-linecap="round" stroke-linejoin="round"><circle stroke-width="1.053" stroke-dasharray="0,5.6179" cx="2247.851" cy="-293.114" r="520.329"/><circle stroke-width="1.079" stroke-dasharray="0,5.5954" cx="2247.851" cy="-293.114" r="514.688"/><circle stroke-width="1.106" stroke-dasharray="0,5.5727" cx="2247.851" cy="-293.115" r="509.048"/><circle stroke-width="1.132" stroke-dasharray="0,5.5496" cx="2247.851" cy="-293.114" r="503.408"/><circle stroke-width="1.158" stroke-dasharray="0,5.5261" cx="2247.851" cy="-293.114" r="497.769"/><circle stroke-width="1.185" stroke-dasharray="0,5.5024" cx="2247.851" cy="-293.114" r="492.128"/><circle stroke-width="1.211" stroke-dasharray="0,5.4881" cx="2247.851" cy="-293.114" r="486.488"/><circle stroke-width="1.237" stroke-dasharray="0,5.4637" cx="2247.852" cy="-293.114" r="480.848"/><circle stroke-width="1.264" stroke-dasharray="0,5.439" cx="2247.851" cy="-293.114" r="475.208"/><circle stroke-width="1.29" stroke-dasharray="0,5.4238" cx="2247.851" cy="-293.114" r="469.567"/><circle stroke-width="1.316" stroke-dasharray="0,5.3983" cx="2247.851" cy="-293.115" r="463.928"/><circle stroke-width="1.343" stroke-dasharray="0,5.3725" cx="2247.851" cy="-293.114" r="458.288"/><circle stroke-width="1.369" stroke-dasharray="0,5.3563" cx="2247.851" cy="-293.114" r="452.648"/><circle stroke-width="1.395" stroke-dasharray="0,5.3297" cx="2247.851" cy="-293.114" r="447.008"/><circle stroke-width="1.421" stroke-dasharray="0,5.3128" cx="2247.85" cy="-293.114" r="441.368"/><circle stroke-width="1.448" stroke-dasharray="0,5.2855" cx="2247.851" cy="-293.114" r="435.728"/><circle stroke-width="1.474" stroke-dasharray="0,5.2679" cx="2247.851" cy="-293.114" r="430.087"/><circle stroke-width="1.5" stroke-dasharray="0,5.25" cx="2247.851" cy="-293.114" r="424.448"/><circle stroke-width="1.527" stroke-dasharray="0,5.2213" cx="2247.851" cy="-293.115" r="418.808"/><circle stroke-width="1.553" stroke-dasharray="0,5.2026" cx="2247.851" cy="-293.114" r="413.167"/><circle stroke-width="1.579" stroke-dasharray="0,5.1836" cx="2247.851" cy="-293.114" r="407.528"/><circle stroke-width="1.606" stroke-dasharray="0,5.1535" cx="2247.851" cy="-293.114" r="401.888"/><circle stroke-width="1.632" stroke-dasharray="0,5.1336" cx="2247.851" cy="-293.114" r="396.248"/><circle stroke-width="1.658" stroke-dasharray="0,5.1132" cx="2247.851" cy="-293.114" r="390.607"/><circle stroke-width="1.685" stroke-dasharray="0,5.0925" cx="2247.851" cy="-293.114" r="384.968"/><circle stroke-width="1.711" stroke-dasharray="0,5.0712" cx="2247.851" cy="-293.114" r="379.327"/><circle stroke-width="1.737" stroke-dasharray="0,5.0496" cx="2247.851" cy="-293.114" r="373.688"/><circle stroke-width="1.763" stroke-dasharray="0,5.0274" cx="2247.851" cy="-293.114" r="368.048"/><circle stroke-width="1.79" stroke-dasharray="0,5.0048" cx="2247.851" cy="-293.114" r="362.407"/><circle stroke-width="1.816" stroke-dasharray="0,4.9816" cx="2247.85" cy="-293.114" r="356.767"/><circle stroke-width="1.842" stroke-dasharray="0,4.958" cx="2247.851" cy="-293.114" r="351.128"/><circle stroke-width="1.869" stroke-dasharray="0,4.9337" cx="2247.851" cy="-293.114" r="345.487"/><circle stroke-width="1.895" stroke-dasharray="0,4.9203" cx="2247.85" cy="-293.114" r="339.847"/><circle stroke-width="1.921" stroke-dasharray="0,4.895" cx="2247.85" cy="-293.114" r="334.208"/><circle stroke-width="1.948" stroke-dasharray="0,4.8692" cx="2247.851" cy="-293.114" r="328.567"/><circle stroke-width="1.974" stroke-dasharray="0,4.8543" cx="2247.85" cy="-293.114" r="322.927"/><circle stroke-width="2" stroke-dasharray="0,4.8272" cx="2247.85" cy="-293.114" r="317.287"/><circle stroke-width="2.026" stroke-dasharray="0,4.8113" cx="2247.85" cy="-293.114" r="311.647"/><circle stroke-width="2.053" stroke-dasharray="0,4.783" cx="2247.851" cy="-293.114" r="306.007"/><circle stroke-width="2.079" stroke-dasharray="0,4.766" cx="2247.85" cy="-293.114" r="300.367"/><circle stroke-width="2.106" stroke-dasharray="0,4.7485" cx="2247.85" cy="-293.114" r="294.727"/><circle stroke-width="2.132" stroke-dasharray="0,4.7181" cx="2247.851" cy="-293.114" r="289.087"/><circle stroke-width="2.158" stroke-dasharray="0,4.6993" cx="2247.85" cy="-293.114" r="283.447"/><circle stroke-width="2.184" stroke-dasharray="0,4.6798" cx="2247.85" cy="-293.114" r="277.807"/><circle stroke-width="2.211" stroke-dasharray="0,4.6598" cx="2247.851" cy="-293.114" r="272.167"/><circle stroke-width="2.237" stroke-dasharray="0,4.6391" cx="2247.85" cy="-293.114" r="266.527"/><circle stroke-width="2.263" stroke-dasharray="0,4.6177" cx="2247.85" cy="-293.114" r="260.887"/><circle stroke-width="2.29" stroke-dasharray="0,4.5955" cx="2247.85" cy="-293.114" r="255.247"/><circle stroke-width="2.316" stroke-dasharray="0,4.5726" cx="2247.85" cy="-293.114" r="249.607"/><circle stroke-width="2.342" stroke-dasharray="0,4.5488" cx="2247.851" cy="-293.114" r="243.967"/><circle stroke-width="2.369" stroke-dasharray="0,4.5242" cx="2247.85" cy="-293.114" r="238.327"/><circle stroke-width="2.395" stroke-dasharray="0,4.4987" cx="2247.851" cy="-293.114" r="232.687"/><circle stroke-width="2.421" stroke-dasharray="0,4.4863" cx="2247.85" cy="-293.114" r="227.046"/><circle stroke-width="2.447" stroke-dasharray="0,4.459" cx="2247.85" cy="-293.114" r="221.407"/><circle stroke-width="2.474" stroke-dasharray="0,4.4306" cx="2247.851" cy="-293.114" r="215.767"/><circle stroke-width="2.5" stroke-dasharray="0,4.4158" cx="2247.85" cy="-293.114" r="210.126"/><circle stroke-width="2.526" stroke-dasharray="0,4.4003" cx="2247.85" cy="-293.114" r="204.486"/><circle stroke-width="2.553" stroke-dasharray="0,4.3687" cx="2247.85" cy="-293.114" r="198.846"/><circle stroke-width="2.579" stroke-dasharray="0,4.3513" cx="2247.85" cy="-293.114" r="193.207"/><circle stroke-width="2.605" stroke-dasharray="0,4.3329" cx="2247.851" cy="-293.114" r="187.566"/><circle stroke-width="2.632" stroke-dasharray="0,4.3137" cx="2247.85" cy="-293.114" r="181.926"/><circle stroke-width="2.658" stroke-dasharray="0,4.2768" cx="2247.85" cy="-293.114" r="176.287"/><circle stroke-width="2.684" stroke-dasharray="0,4.2549" cx="2247.85" cy="-293.114" r="170.646"/><circle stroke-width="2.711" stroke-dasharray="0,4.2319" cx="2247.85" cy="-293.114" r="165.006"/><circle stroke-width="2.737" stroke-dasharray="0,4.2252" cx="2247.85" cy="-293.114" r="159.367"/><circle stroke-width="2.763" stroke-dasharray="0,4.1997" cx="2247.849" cy="-293.114" r="153.726"/><circle stroke-width="2.789" stroke-dasharray="0,4.1726" cx="2247.85" cy="-293.114" r="148.086"/><circle stroke-width="2.816" stroke-dasharray="0,4.1438" cx="2247.85" cy="-293.114" r="142.446"/><circle stroke-width="2.842" stroke-dasharray="0,4.1327" cx="2247.85" cy="-293.114" r="136.806"/><circle stroke-width="2.869" stroke-dasharray="0,4.1004" cx="2247.85" cy="-293.114" r="131.166"/><circle stroke-width="2.895" stroke-dasharray="0,4.0867" cx="2247.849" cy="-293.114" r="125.526"/><circle stroke-width="2.921" stroke-dasharray="0,4.0719" cx="2247.85" cy="-293.114" r="119.886"/><circle stroke-width="2.947" stroke-dasharray="0,4.0329" cx="2247.85" cy="-293.114" r="114.246"/><circle stroke-width="2.974" stroke-dasharray="0,4.0142" cx="2247.85" cy="-293.114" r="108.605"/><circle stroke-width="3" stroke-dasharray="0,3.9937" cx="2247.85" cy="-293.114" r="102.966"/></g><g opacity=".77"><defs><path id="c" opacity=".77" d="M868.311 796.625c0 61.802-50.102 111.902-111.905 111.902-61.799 0-111.901-50.101-111.901-111.902 0-61.799 50.103-111.9 111.901-111.9 61.803 0 111.905 50.101 111.905 111.9z"/></defs><clipPath id="d"><use xlink:href="#c" overflow="visible"/></clipPath><g clip-path="url(#d)" fill="none" stroke="#FFF" stroke-width="2" stroke-miterlimit="10"><path d="M595.006 554.527L110.81 1038.723m492.186-484.196L118.8 1038.723m492.186-484.196L126.79 1038.723m492.187-484.196L134.78 1038.723m492.187-484.196l-484.196 484.196m492.186-484.196L150.76 1038.723m492.186-484.196L158.75 1038.723m492.187-484.196L166.74 1038.723m492.187-484.196L174.73 1038.723m492.187-484.196L182.72 1038.723m492.186-484.196L190.71 1038.723m492.186-484.196L198.7 1038.723m492.187-484.196L206.69 1038.723m492.187-484.196l-484.196 484.196m492.186-484.196l-484.196 484.196m492.185-484.196L230.66 1038.723m492.187-484.196L238.65 1038.723m492.187-484.196l-484.196 484.196m492.186-484.196l-484.196 484.196m492.186-484.196l-484.196 484.196m492.186-484.196l-484.196 484.196m492.186-484.196l-484.195 484.196m492.185-484.196l-484.196 484.196m492.186-484.196l-484.196 484.196m492.187-484.196L302.57 1038.723m492.188-484.196l-484.197 484.196m492.187-484.196l-484.197 484.196m492.187-484.196l-484.197 484.196m492.187-484.196l-484.197 484.196m492.187-484.196l-484.197 484.196m492.187-484.196l-484.196 484.196m492.186-484.196l-484.196 484.196m492.186-484.196l-484.197 484.196m492.187-484.196l-484.197 484.196m492.187-484.196l-484.196 484.196m492.186-484.196l-484.196 484.196m492.186-484.196l-484.197 484.196m492.187-484.196l-484.197 484.196m492.187-484.196l-484.196 484.196m492.186-484.196l-484.196 484.196m492.186-484.196l-484.196 484.196m492.186-484.196l-484.197 484.196m492.187-484.196l-484.196 484.196m492.186-484.196l-484.196 484.196m492.186-484.196l-484.196 484.196m492.187-484.196l-484.197 484.196m492.187-484.196l-484.197 484.196m492.187-484.196l-484.197 484.196m492.187-484.196l-484.197 484.196M986.52 554.527l-484.198 484.196m492.187-484.196l-484.196 484.196m492.186-484.196l-484.196 484.196m492.186-484.196l-484.197 484.196m492.187-484.196l-484.197 484.196m492.187-484.196l-484.197 484.196m492.187-484.196l-484.197 484.196m492.187-484.196l-484.197 484.196m492.187-484.196l-484.197 484.196m492.188-484.196l-484.198 484.196m492.188-484.196l-484.197 484.196m492.187-484.196l-484.197 484.196m492.186-484.196l-484.196 484.196m492.187-484.196l-484.198 484.196m492.188-484.196l-484.197 484.196m492.187-484.196l-484.197 484.196m492.186-484.196l-484.196 484.196m492.187-484.196l-484.197 484.196m492.187-484.196l-484.196 484.196m492.186-484.196l-484.197 484.196m492.187-484.196l-484.197 484.196m492.188-484.196l-484.198 484.196M1162.3 554.527l-484.196 484.196m492.186-484.196l-484.196 484.196m492.186-484.196l-484.196 484.196m492.187-484.196l-484.198 484.196m492.188-484.196l-484.198 484.196m492.187-484.196l-484.196 484.196m492.186-484.196l-484.197 484.196m492.187-484.196l-484.197 484.196m492.188-484.196l-484.198 484.196m492.188-484.196l-484.197 484.196m492.187-484.196l-484.197 484.196m492.187-484.196l-484.197 484.196m492.187-484.196l-484.197 484.196m492.187-484.196l-484.197 484.196m492.187-484.196l-484.197 484.196m492.187-484.196l-484.197 484.196m492.188-484.196l-484.199 484.196m492.188-484.196l-484.197 484.196m492.187-484.196l-484.197 484.196m492.187-484.196l-484.197 484.196m492.188-484.196l-484.198 484.196m492.188-484.196l-484.198 484.196m492.188-484.196l-484.198 484.196m492.187-484.196l-484.197 484.196m492.188-484.196l-484.198 484.196m492.188-484.196l-484.198 484.196m492.187-484.196l-484.196 484.196m492.186-484.196l-484.197 484.196m492.187-484.196l-484.197 484.196m492.188-484.196l-484.198 484.196m492.188-484.196l-484.197 484.196"/></g></g><g opacity=".81"><defs><circle id="e" opacity=".81" cx="1989.128" cy="1472.548" r="357.427"/></defs><clipPath id="f"><use xlink:href="#e" overflow="visible"/></clipPath><g clip-path="url(#f)" fill="none" stroke="#FFF" stroke-width="2" stroke-miterlimit="10"><path d="M1988.117 737.042L838.982 1886.178M1996.133 737.042L846.998 1886.178M2004.146 737.042L855.012 1886.178M2012.16 737.042L863.025 1886.178m1157.15-1149.136L871.04 1886.178M2028.189 737.042L879.054 1886.179M2036.202 737.042L887.067 1886.178m1157.15-1149.136L895.082 1886.178M2052.23 737.042L903.096 1886.178M2060.244 737.042L911.109 1886.178m1157.15-1149.136L919.124 1886.178M2076.273 737.042L927.138 1886.178M2084.287 737.042L935.151 1886.178m1157.15-1149.136L943.166 1886.178M2100.314 737.042L951.18 1886.178M2108.328 737.042L959.193 1886.178m1157.15-1149.136L967.208 1886.178M2124.356 737.042L975.222 1886.177M2132.37 737.042L983.235 1886.178m1157.15-1149.136L991.25 1886.178M2148.398 737.042L999.264 1886.178M2156.413 737.042L1007.278 1886.178M2164.427 737.042L1015.292 1886.178M2172.439 737.042L1023.306 1886.178M2180.455 737.042L1031.32 1886.178M2188.469 737.042L1039.334 1886.178M2196.482 737.042L1047.348 1886.178M2204.496 737.042L1055.361 1886.178M2212.51 737.042L1063.376 1886.178M2220.524 737.042L1071.39 1886.178M2228.539 737.042L1079.404 1886.178M2236.552 737.042L1087.418 1886.178M2244.566 737.042L1095.432 1886.178M2252.58 737.042L1103.446 1886.178M2260.595 737.042L1111.459 1886.178M2268.607 737.041L1119.473 1886.178M2276.622 737.042L1127.487 1886.178m1157.15-1149.136L1135.502 1886.178M2292.65 737.042L1143.516 1886.178M2300.664 737.042L1151.529 1886.178M2308.678 737.042L1159.543 1886.178M2316.692 737.043L1167.558 1886.178M2324.706 737.042L1175.571 1886.178M2332.72 737.041L1183.585 1886.178M2340.734 737.042L1191.6 1886.178M2348.749 737.042L1199.613 1886.178M2356.762 737.042L1207.627 1886.178M2364.775 737.042L1215.642 1886.178M2372.79 737.042L1223.655 1886.178m1157.15-1149.135L1231.67 1886.178M2388.818 737.042L1239.684 1886.178M2396.832 737.041L1247.697 1886.178m1157.15-1149.136L1255.711 1886.178M2412.86 737.042L1263.726 1886.178M2420.874 737.042L1271.739 1886.178m1157.15-1149.136L1279.754 1886.178M2436.902 737.042L1287.768 1886.178M2444.916 737.042L1295.781 1886.178M2452.93 737.042L1303.796 1886.178M2460.943 737.042L1311.809 1886.178m1157.15-1149.136L1319.823 1886.178m1157.15-1149.136L1327.838 1886.178M2484.986 737.042L1335.852 1886.178M2493 737.042L1343.865 1886.178M2501.014 737.042L1351.879 1886.178M2509.028 737.042L1359.894 1886.178M2517.042 737.042L1367.907 1886.178M2525.056 737.042L1375.921 1886.178M2533.07 737.042L1383.936 1886.178M2541.084 737.042L1391.949 1886.178M2549.098 737.042L1399.963 1886.178M2557.111 737.042L1407.977 1886.178M2565.126 737.042L1415.991 1886.178m1157.15-1149.136L1424.006 1886.178M2581.154 737.042L1432.02 1886.178M2589.168 737.042L1440.033 1886.178M2597.182 737.042L1448.047 1886.178M2605.195 737.042L1456.061 1886.178M2613.21 737.042L1464.075 1886.178m1157.15-1149.136L1472.089 1886.178M2629.238 737.042L1480.104 1886.178M2637.252 737.042L1488.117 1886.178M2645.266 737.042L1496.131 1886.178M2653.279 737.042L1504.145 1886.178M2661.293 737.042L1512.158 1886.178m1157.15-1149.136L1520.173 1886.178M2677.321 737.042L1528.187 1886.178M2685.336 737.042L1536.201 1886.178M2693.35 737.042L1544.215 1886.178M2701.363 737.042L1552.229 1886.178M2709.377 737.042L1560.242 1886.178m1157.15-1149.136L1568.256 1886.178M2725.405 737.042L1576.271 1886.178M2733.419 737.042L1584.285 1886.178M2741.434 737.042L1592.299 1886.178M2749.447 737.042L1600.313 1886.178M2757.461 737.042L1608.326 1886.178M2765.475 737.042L1616.34 1886.178M2773.489 737.042L1624.354 1886.178M2781.503 737.042L1632.368 1886.178M2789.517 737.042L1640.382 1886.178M2797.531 737.042L1648.396 1886.178M2805.545 737.042L1656.41 1886.178M2813.559 737.042L1664.424 1886.178M2821.572 737.042L1672.438 1886.178M2829.587 737.042L1680.452 1886.178M2837.601 737.042L1688.466 1886.178M2845.614 737.042L1696.479 1886.178m1157.15-1149.136L1704.494 1886.178M2861.643 737.042L1712.508 1886.178M2869.656 737.042L1720.521 1886.178M2877.67 737.042L1728.535 1886.178m1157.15-1149.136L1736.55 1886.178M2893.698 737.042L1744.563 1886.178m1157.15-1149.136L1752.577 1886.178m1157.15-1149.136L1760.592 1886.178M2917.74 737.042L1768.605 1886.178M2925.754 737.042L1776.619 1886.178M2933.768 737.042L1784.633 1886.178M2941.781 737.042L1792.647 1886.178M2949.796 737.042L1800.661 1886.178M2957.81 737.042L1808.676 1886.178M2965.824 737.042L1816.688 1886.178m1157.15-1149.136L1824.703 1886.178m1157.15-1149.136L1832.718 1886.178M2989.865 737.042L1840.731 1886.178M2997.879 737.042L1848.745 1886.178M3005.894 737.042L1856.759 1886.178M3013.907 737.042L1864.772 1886.178m1157.15-1149.136L1872.787 1886.178M3029.936 737.042L1880.801 1886.178M3037.95 737.042L1888.814 1886.178M3045.963 737.042L1896.828 1886.178M3053.977 737.042L1904.842 1886.178M3061.991 737.042L1912.856 1886.178M3070.005 737.042L1920.871 1886.178M3078.02 737.042L1928.885 1886.178M3086.033 737.042L1936.898 1886.178m1157.15-1149.136L1944.912 1886.178m1157.15-1149.136L1952.927 1886.178M3110.074 737.042L1960.94 1886.178M3118.089 737.042L1968.954 1886.178M3126.103 737.042L1976.968 1886.178M3134.117 737.042L1984.981 1886.178m1157.15-1149.136L1992.996 1886.178M3150.145 737.042L2001.01 1886.178M3158.159 737.042L2009.024 1886.178M3166.173 737.042L2017.038 1886.178M3174.187 737.042L2025.052 1886.178M3182.2 737.042L2033.066 1886.178M3190.215 737.042L2041.08 1886.178M3198.229 737.042L2049.094 1886.178"/></g></g><g opacity=".72" fill="none" stroke="#FFF" stroke-miterlimit="10"><path opacity=".5" stroke-width="50" d="M254.282 644.287l-665.178 743.19-544.863-544.863 665.182-743.19zM1702.98 297.768l544.856-544.856 544.857 544.856-544.857 544.857z"/><path opacity=".5" stroke-width="30" d="M1491.106 1377.861l-544.862 758.722-544.862-758.722L946.244 833z"/></g><linearGradient id="g" gradientUnits="userSpaceOnUse" x1="1547.116" y1="-324.398" x2="1547.116" y2="-1392.608" gradientTransform="matrix(-.3925 -.3925 .7383 -.7383 931.432 944.336)"><stop offset="0" stop-color="#fff"/><stop offset="1" stop-opacity="0"/></linearGradient><path opacity=".5" fill="url(#g)" d="M84.742 576.662l-.001.003C127.26 619.18 118.42 696.956 65 750.376l-595.223 595.22c-53.42 53.422-131.192 62.261-173.709 19.743-42.518-42.519-33.678-120.293 19.742-173.715l595.221-595.221c53.42-53.42 131.194-62.258 173.711-19.741z"/><linearGradient id="h" gradientUnits="userSpaceOnUse" x1="753.6" y1="-33.311" x2="753.6" y2="-817.727" gradientTransform="matrix(-.4114 -.41139 .82362 -.82365 741.054 1055.347)"><stop offset="0" stop-color="#fff"/><stop offset="1" stop-opacity="0"/></linearGradient><path opacity=".5" fill="url(#h)" d="M403.601 772.782c32.728 32.727 22.348 96.163-23.182 141.69l-481.166 481.171c-45.53 45.529-108.968 55.909-141.695 23.182-32.724-32.73-22.345-96.166 23.181-141.695l481.17-481.167c45.529-45.529 108.968-55.906 141.692-23.181z"/><linearGradient id="i" gradientUnits="userSpaceOnUse" x1="243.675" y1="-443.922" x2="243.675" y2="-962.211" gradientTransform="rotate(-134.999 720.91 339.568)"><stop offset="0" stop-color="#fff"/><stop offset="1" stop-opacity="0"/></linearGradient><path opacity=".5" fill="url(#i)" d="M504.357 1231.026c26.784 26.784 26.784 70.208 0 96.993l-269.488 269.49c-26.784 26.785-70.209 26.785-96.993 0-26.785-26.782-26.785-70.207 0-96.991l269.492-269.492c26.78-26.781 70.209-26.781 96.989 0z"/><linearGradient id="j" gradientUnits="userSpaceOnUse" x1="331.871" y1="713.9" x2="32.604" y2="1013.167" gradientTransform="matrix(.8005 -.1995 -.1995 .8005 268.554 268.553)"><stop offset="0" stop-color="#fff"/><stop offset="1" stop-opacity="0"/></linearGradient><path opacity=".5" fill="url(#j)" d="M347.68 818.023c21.542 21.54 9.951 68.057-25.886 103.894l-535.519 535.52c-35.836 35.838-82.352 47.428-103.893 25.885-21.543-21.541-9.953-68.056 25.886-103.894l535.516-535.519c35.838-35.836 82.353-47.425 103.896-25.886z"/><linearGradient id="k" gradientUnits="userSpaceOnUse" x1="1411.367" y1="-32.356" x2="1411.367" y2="-607.844" gradientTransform="matrix(.4882 .4882 -.8661 .8661 1203.22 -287.613)"><stop offset="0" stop-color="#fff"/><stop offset="1" stop-opacity="0"/></linearGradient><path opacity=".5" fill="url(#k)" d="M1920.269 373.391c-28.494-28.495-23.119-80.065 12.004-115.19l371.209-371.209c35.125-35.124 86.696-40.498 115.189-12.005 28.494 28.494 23.119 80.065-12.006 115.191l-371.207 371.208c-35.126 35.124-86.699 40.498-115.189 12.005z"/><linearGradient id="l" gradientUnits="userSpaceOnUse" x1="839.846" y1="101.742" x2="839.846" y2="-416.55" gradientTransform="rotate(45.001 1182.606 1044.25)"><stop offset="0" stop-color="#fff"/><stop offset="1" stop-opacity="0"/></linearGradient><path opacity=".5" fill="url(#l)" d="M1606.688 135.438c-26.784-26.784-26.784-70.209 0-96.991l269.493-269.493c26.782-26.782 70.207-26.782 96.991 0 26.785 26.783 26.785 70.209 0 96.992l-269.489 269.492c-26.787 26.783-70.209 26.783-96.995 0z"/><linearGradient id="m" gradientUnits="userSpaceOnUse" x1="1457.252" y1="22.287" x2="1457.252" y2="-496.003" gradientTransform="rotate(45.001 1182.606 1044.25)"><stop offset="0" stop-color="#fff"/><stop offset="1" stop-opacity="0"/></linearGradient><path opacity=".5" fill="url(#m)" d="M2099.439 515.823c-26.783-26.783-26.783-70.207 0-96.991l269.49-269.492c26.783-26.783 70.209-26.783 96.992 0v.002c26.785 26.783 26.785 70.207 0 96.991l-269.487 269.49c-26.786 26.784-70.208 26.784-96.995 0z"/></g></svg>