<svg height="512pt" viewBox="0 0 512 512" width="512pt" xmlns="http://www.w3.org/2000/svg"><path d="M467 0h-43.238l-30.696 30H467c8.277 0 15 6.723 15 15v22.852c0 30.234-10.398 59.882-29.297 83.496a133.254 133.254 0 01-62.094 43.3l-21.152 7.047c-7.852 2.621-12.102 11.118-9.492 18.985 2.094 6.285 7.953 10.254 14.238 10.254 1.567 0 3.164-.25 4.746-.762l21.153-7.063c29.984-9.988 56.277-28.328 76.039-53.011C499.258 141.184 512 104.868 512 67.852V45c0-24.813-20.188-45-45-45zm0 0" fill="#ff7816"/><path d="M142.543 201.695l-21.152-7.03c-24.493-8.177-45.965-23.145-62.094-43.317C40.398 127.734 30 98.086 30 67.852V45c0-8.277 6.723-15 15-15h77.516L88.238 0H45C20.187 0 0 20.188 0 45v22.852c0 37.015 12.742 73.332 35.86 102.246 19.761 24.683 46.054 43.023 76.038 53.027l21.153 7.047a15.41 15.41 0 004.746.762c6.285 0 12.144-3.97 14.238-10.254 2.61-7.868-1.64-16.364-9.492-18.985zm0 0" fill="#ff9f00"/><path d="M302 292.8V315c0 8.398 6.598 15 15 15 24.902 0 45 20.098 45 45v30c0 8.398-6.598 15-15 15H165c-8.402 0-15-6.602-15-15v-30c0-24.902 20.098-45 45-45 8.402 0 15-6.602 15-15v-22.2c-55.8-17.702-96.598-66.902-103.2-125.402L88.2 0h335.6l-18.6 167.398c-6.602 58.5-47.4 107.7-103.2 125.403zm0 0" fill="#ffd400"/><path d="M347 420h-91V0h167.8l-18.6 167.398c-6.602 58.5-47.4 107.7-103.2 125.403V315c0 8.398 6.598 15 15 15 24.902 0 45 20.098 45 45v30c0 8.398-6.598 15-15 15zm0 0" fill="#ff9f00"/><path d="M330.398 113.098c-1.8-5.7-6.597-9.598-12.296-10.496L284.5 97.8l-15-29.703c-2.7-5.098-8.102-7.5-13.5-7.5s-10.8 2.402-13.5 7.5l-15 29.703-33.602 4.797c-5.699.902-10.496 4.8-12.296 10.5-1.5 5.402 0 11.398 4.199 15.3l24 23.102-5.7 32.398c-.902 5.403 1.2 11.102 6 14.704 4.5 3.296 10.801 3.898 15.598 1.199L256 184.199l30.3 15.602c5.098 2.699 11.098 2.097 15.602-1.2 4.797-3.601 6.899-9.3 5.996-14.703L302.2 151.5l24-23.102c4.2-3.898 5.703-9.898 4.2-15.3zm0 0" fill="#ff9f00"/><path d="M392 405v90.8H120V405c0-8.402 6.598-15 15-15h242c8.402 0 15 6.598 15 15zm0 0" fill="#ec5569"/><path d="M286.3 199.8L256 184.2V60.597c5.398 0 10.8 2.402 13.5 7.5l15 29.703 33.602 4.8c5.699.899 10.496 4.797 12.296 10.497 1.5 5.402 0 11.402-4.199 15.3l-24 23.102 5.7 32.402c.902 5.399-1.2 11.098-6 14.7-4.5 3.296-10.5 3.898-15.598 1.199zm0 0" fill="#ff7816"/><path d="M392 405v90.8H256V390h121c8.402 0 15 6.598 15 15zm0 0" fill="#cc2e43"/><path d="M422 497c0 8.398-6.598 15-15 15H105c-8.402 0-15-6.602-15-15 0-8.402 6.598-15 15-15h302c8.402 0 15 6.598 15 15zm0 0" fill="#697c86"/><path d="M422 497c0 8.398-6.598 15-15 15H256v-30h151c8.402 0 15 6.598 15 15zm0 0" fill="#465a61"/></svg>