<svg height="640pt" viewBox="-30 0 640 640" width="640pt" xmlns="http://www.w3.org/2000/svg"><path d="M300.586 101.45L285.277 0H60.676C26.856 0 0 27.555 0 61.371V486.09c0 33.816 26.855 60.812 60.676 60.812H273.73L427.223 314.5V148.766zm0 0" fill="#00acea"/><path d="M285.277.14l141.528 148.626h-94.211c-26.164 0-47.317-21.153-47.317-47.317zm0 0" fill="#00efd1"/><path d="M279.992 318.676H98.527c-7.652 0-13.918 6.265-13.918 13.918 0 7.656 6.266 13.914 13.918 13.914h181.325c7.652 0 13.918-6.258 13.918-13.914 0-7.653-6.122-13.918-13.778-13.918zM98.527 276.93h140.97c7.651 0 13.917-6.262 13.917-13.918 0-7.653-6.266-13.914-13.918-13.914H98.527c-7.652 0-13.918 6.261-13.918 13.914 0 7.656 6.266 13.918 13.918 13.918zm135.539 112.718H98.527c-7.652 0-13.918 6.266-13.918 13.914 0 7.657 6.266 13.918 13.918 13.918h135.54c7.656 0 13.917-6.261 13.917-13.918 0-7.648-6.261-13.914-13.918-13.914zm0 0" fill="#083863"/><path d="M426.805 286.813c86.28 12.101 152.656 86.136 152.656 175.753 0 97.97-79.457 177.434-177.426 177.434-67.351 0-126.078-37.574-156-92.96-13.637-25.188-21.43-53.993-21.43-84.61 0-97.97 79.461-177.43 177.43-177.43 8.352.14 16.559.7 24.77 1.813zm0 0" fill="#fedb41"/><path d="M473.285 459.648l-57.195 61.645V369.332c0-7.652-6.262-13.918-13.918-13.918-7.652 0-13.914 6.266-13.914 13.918v151.961l-57.613-61.645c-5.29-5.566-14.196-5.988-19.762-.699-5.567 5.29-5.98 14.059-.7 19.625l81.415 87.528c2.64 2.785 6.261 4.453 10.156 4.453 3.894 0 7.512-1.668 10.16-4.453l81.406-87.528c5.29-5.566 5.008-14.472-.558-19.625-5.559-5.289-14.188-4.867-19.477.7zm0 0" fill="#083863"/></svg>