<svg xmlns="http://www.w3.org/2000/svg" id="pen-drag" viewBox="0 0 409.6 396"><defs><style>.cls-1{fill:#941cf9;}</style></defs><path class="cls-1" d="M256,290.1a27.3,27.3,0,1,0,27.3,27.3A27.34,27.34,0,0,0,256,290.1Zm0,41a13.7,13.7,0,1,1,13.7-13.7A13.72,13.72,0,0,1,256,331.1Z" transform="translate(-51.2 -58)"></path><path class="cls-1" d="M161.3,350.7a6.82,6.82,0,0,0-9.7,0l-4.8,4.8-4.8-4.8a6.86,6.86,0,1,0-9.7,9.7l4.8,4.8-4.8,4.8a6.82,6.82,0,0,0,0,9.7,6.76,6.76,0,0,0,9.6,0l4.8-4.8,4.8,4.8a6.76,6.76,0,0,0,9.6,0,6.82,6.82,0,0,0,0-9.7l-4.8-4.8,4.8-4.8a6.82,6.82,0,0,0,.2-9.7Z" transform="translate(-51.2 -58)"></path><circle class="cls-1" cx="355" cy="300.4" r="6.8"></circle><path class="cls-1" d="M433.5,58a27.13,27.13,0,0,0-26.3,20.5H283.3V70.4A12.46,12.46,0,0,0,270.9,58H241.1a12.46,12.46,0,0,0-12.4,12.4v8.1H104.8a27.3,27.3,0,1,0,0,13.6h91.8a136.26,136.26,0,0,0-74.4,96,27.2,27.2,0,0,0,0,53.8,136.4,136.4,0,0,0,65,91.1h0l14.2,40.2v20.5a20.11,20.11,0,0,0-13.7,19v34.5a6.8,6.8,0,1,0,13.6,0V412.7a6.49,6.49,0,0,1,6.5-6.5h96.4a6.49,6.49,0,0,1,6.5,6.5v34.5a6.8,6.8,0,1,0,13.6,0V412.7a20.07,20.07,0,0,0-13.7-19V373.2l14.2-40.4c.2-.1.5-.2.7-.3a136.69,136.69,0,0,0,64.3-90.6,27.2,27.2,0,0,0,0-53.8,136.51,136.51,0,0,0-74.4-96h91.8A27.24,27.24,0,1,0,433.5,58ZM242.3,71.7h27.3V99H242.3ZM78.5,99A13.65,13.65,0,1,1,92.2,85.4,13.72,13.72,0,0,1,78.5,99Zm34.1,116a13.7,13.7,0,1,1,13.7,13.7A13.72,13.72,0,0,1,112.6,215ZM215,392.5V378.8h82v13.7Zm84-27.3H213l-21.1-59.9,22.5-31.1a246.51,246.51,0,0,0,34.7-68.4v57a6.8,6.8,0,0,0,13.6,0V205.9a246.22,246.22,0,0,0,34.2,67.4l23,32ZM399.4,215a13.7,13.7,0,1,1-13.7-13.7A13.72,13.72,0,0,1,399.4,215Zm-23.3-25.4a27.22,27.22,0,0,0,0,51,122.41,122.41,0,0,1-43.6,70.5l1.6-4.5a7.1,7.1,0,0,0-.9-6.3l-25.1-34.9a229.59,229.59,0,0,1-39.2-90l-6.2-30.7a6.77,6.77,0,0,0-6.7-5.5c-3,.2-6.1,2.3-6.7,5.5l-6.5,31.9a232.05,232.05,0,0,1-39.4,89.8l-24.6,34a6.76,6.76,0,0,0-.9,6.3l1.6,4.5A122.26,122.26,0,0,1,136,240.7a27.22,27.22,0,0,0,0-51,123,123,0,0,1,92.8-94.3v4.9a12.46,12.46,0,0,0,12.4,12.4H271a12.46,12.46,0,0,0,12.4-12.4V95.4a122.33,122.33,0,0,1,92.7,94.2ZM433.5,99a13.7,13.7,0,1,1,13.7-13.7A13.72,13.72,0,0,1,433.5,99Z" transform="translate(-51.2 -58)"></path></svg>