<svg enable-background="new 0 0 110 110" height="512" viewBox="0 0 110 110" width="512" xmlns="http://www.w3.org/2000/svg"><path d="m94.3547821 50.9335785-3.6607819-7.9836655c-1.1550751-2.5191116-3.6722336-4.1340103-6.4434204-4.1340103h-58.5010509c-2.7713261 0-5.2884827 1.6148987-6.4435596 4.1340103l-3.6609144 7.9836655c-.6897316 1.5044556-.8315058 3.20298-.4003897 4.8009644l4.5426865 16.8387222c.8344707 3.0932846 3.6401615 5.2423248 6.8439503 5.2423248h56.7373657c3.2039261 0 6.0094833-2.1490402 6.8439484-5.2423248l4.5426865-16.8387222c.4311217-1.5979844.2894819-3.2965088-.4005205-4.8009644z" fill="#4d5c7d"/><path d="m37.815373 67.813187h34.369251v10.002403h-34.369251z" fill="#2f4859"/><path d="m37.021603 31.705414h35.956795v14.44311h-35.956795z" fill="#00abee"/><path d="m86.30056 60.9671021h-63.0261078c-4.4030819 0-7.9724836-3.5694008-7.9724836-7.9724846v-.0000076h78.9710693v.0000076c.0000029 4.4030838-3.5693941 7.9724846-7.9724779 7.9724846z" fill="#64798a"/><path d="m40.431313 71.246956h29.137377v17.044413h-29.137377z" fill="#ebf0f3"/><g fill="#d5d6db"><path d="m43.840977 75.053528h22.366024v1.590889h-22.366024z"/><path d="m43.840977 79.32888h22.366024v1.590889h-22.366024z"/><path d="m43.840977 83.604225h22.366024v1.590889h-22.366024z"/></g><path d="m37.021603 46.148525h35.956795v1.286124h-35.956795z" fill="#2f4859"/><path d="m40.431313 21.70863h29.137377v25.726019h-29.137377z" fill="#ebf0f3"/><circle cx="86.76" cy="56.66" fill="#e56353" r="1.222"/><circle cx="82.158" cy="56.66" fill="#fcd462" r="1.222"/><circle cx="77.556" cy="56.66" fill="#44c4a1" r="1.222"/></svg>