<svg height="512" width="512" xmlns="http://www.w3.org/2000/svg"><path d="M288.133 497h-64.267c-8.284 0-15-6.716-15-15v-66.4c0-8.284 6.716-15 15-15h64.267c8.284 0 15 6.716 15 15V482c0 8.284-6.715 15-15 15z" fill="#ec8600"/><path d="M288.133 400.6h-32.135V497h32.135c8.284 0 15-6.716 15-15v-66.4c0-8.285-6.715-15-15-15z" fill="#ff4d05"/><path d="M368.467 512H143.533c-8.284 0-15-6.716-15-15s6.716-15 15-15h224.934c8.284 0 15 6.716 15 15s-6.716 15-15 15z" fill="#ecbe00"/><path d="M368.467 482H255.999v30h112.468c8.284 0 15-6.716 15-15s-6.716-15-15-15z" fill="#ec8600"/><path d="M304.2 415.6h-96.4c-70.285 0-127.466-57.181-127.466-127.466V237.8c0-8.284 6.716-15 15-15H159.6c8.284 0 15 6.716 15 15s-6.716 15-15 15h-49.267v35.334c0 53.743 43.723 97.466 97.466 97.466h96.4c53.743 0 97.466-43.723 97.466-97.466V252.8H352.4c-8.284 0-15-6.716-15-15s6.716-15 15-15h64.267c8.284 0 15 6.716 15 15v50.334c0 70.285-57.182 127.466-127.467 127.466z" fill="#ecbe00"/><path d="M337.4 237.8c0 8.284 6.716 15 15 15h49.267v35.334c0 53.743-43.723 97.466-97.466 97.466H256v30h48.2c70.285 0 127.466-57.181 127.466-127.466V237.8c0-8.284-6.715-15-14.999-15h-64.269c-8.283 0-14.998 6.716-14.998 15z" fill="#ec8600"/><path d="M352.4 237.8H159.6c-8.284 0-15-6.716-15-15V63.2c0-34.849 28.351-63.2 63.2-63.2h96.4c34.849 0 63.2 28.352 63.2 63.2v159.6c0 8.284-6.716 15-15 15z" fill="#004c9c"/><path d="M304.2 0h-48.201v237.8H352.4c8.284 0 15-6.716 15-15V63.2c0-34.848-28.351-63.2-63.2-63.2z" fill="#00366d"/><path d="M367.4 138.532h-54.267V84.265H367.4V63.2c0-3.034-.228-6.014-.643-8.935h-53.624V.643A63.44 63.44 0 00304.2 0h-21.068v54.265h-54.267V0H207.8c-3.034 0-6.014.228-8.935.643v53.622h-53.622a63.457 63.457 0 00-.643 8.935v21.065h54.265v54.267H144.6v30h54.265V237.8h30v-69.268h54.267V237.8h30v-69.268H367.4zm-84.268 0h-54.267V84.265h54.267z" fill="#00366d"/><path d="M283.132 237.8h30v-69.268H367.4v-30h-54.267V84.265H367.4V63.2c0-3.034-.228-6.014-.643-8.935h-53.624V.643A63.44 63.44 0 00304.2 0h-21.068v54.265h-27.134v30h27.134v54.267h-27.134v30h27.134z" fill="#01223c"/><path d="M304.2 351.333h-96.4c-34.849 0-63.2-28.351-63.2-63.199V222.8h222.8v65.334c0 34.848-28.351 63.199-63.2 63.199z" fill="#ffd845"/><path d="M367.4 288.134V222.8H255.999v128.533H304.2c34.849 0 63.2-28.351 63.2-63.199z" fill="#ecbe00"/></svg>