<svg width="148" height="105" viewBox="0 0 148 105" fill="none" xmlns="http://www.w3.org/2000/svg">
<g clip-path="url(#clip0)">
<path d="M22.1058 96.4044L1.61177 41.717L0.998785 40.0997L0.200109 37.9652C0.036656 37.5302 -0.0314364 37.0651 0.000439659 36.6015C0.047037 35.9892 0.269762 35.4035 0.641757 34.9149C1.01375 34.4263 1.51914 34.0558 2.09697 33.848L94.8433 0.199804C95.6501 -0.0914587 96.5392 -0.053444 97.3182 0.305628C98.0973 0.6647 98.7037 1.31597 99.0064 2.11862L114.111 42.4059L120.914 60.5558C121.063 60.9505 121.132 61.371 121.117 61.7926C121.102 62.2142 121.003 62.6286 120.826 63.0117C120.649 63.3948 120.398 63.739 120.087 64.0242C119.777 64.3094 119.412 64.5299 119.015 64.673L104.579 69.9123L100.833 71.27L26.2669 98.3272C25.4597 98.6166 24.5712 98.5771 23.7928 98.2175C23.0144 97.8578 22.4085 97.2066 22.1058 96.4044Z" fill="#0099A1"/>
<path d="M23.5471 80.951L108.221 50.7949L111.421 59.4865L26.7478 89.6426L23.5471 80.951Z" fill="#F9FBFD"/>
<path d="M23.2056 80.0252L107.879 49.8691L108.015 50.2385L23.3413 80.3966L23.2056 80.0252Z" fill="#063A4F"/>
<path d="M26.9553 90.1951L111.629 60.0391L111.767 60.4085L27.0931 90.5645L26.9553 90.1951Z" fill="#063A4F"/>
<path d="M51.7144 37.4453L12.6471 51.3583L14.3503 55.9826L53.4175 42.0677L51.7144 37.4453Z" fill="#DA9A28"/>
<path d="M78.0348 37.4863L15.712 59.6815L17.4152 64.3059L79.7379 42.1087L78.0348 37.4863Z" fill="#DA9A28"/>
<path d="M31.2043 35.3418L9.58417 43.037L11.2853 47.6614L32.9095 39.9601L31.2043 35.3418Z" fill="#DA9A28"/>
<path d="M29.8986 95.4103V91.6485V82.1183V81.5193V81.12L29.9505 36.5398V32.9218C29.9521 32.0668 30.293 31.2473 30.8984 30.6434C31.5038 30.0395 32.3241 29.7006 33.1792 29.7012L131.712 29.799C132.135 29.7993 132.555 29.8829 132.946 30.0452C133.337 30.2075 133.692 30.4453 133.991 30.7449C134.291 31.0445 134.528 31.4002 134.69 31.7915C134.852 32.1828 134.935 32.6022 134.935 33.0257L134.871 95.5221C134.87 95.9456 134.787 96.3648 134.624 96.756C134.462 97.1471 134.224 97.5024 133.925 97.8017C133.625 98.1009 133.27 98.3382 132.878 98.5001C132.487 98.6619 132.067 98.745 131.644 98.7448H123.689L102.63 98.7088H98.437L87.1697 98.6968H83.975L58.9025 98.6649H56.3807H54.7095L33.1252 98.6449C32.7006 98.6457 32.28 98.5625 31.8877 98.4002C31.4953 98.2378 31.1389 97.9994 30.8391 97.6988C30.5392 97.3982 30.3017 97.0412 30.1403 96.6485C29.9789 96.2557 29.8967 95.8349 29.8986 95.4103Z" fill="#063A4F"/>
<path d="M41.7009 83.3926H37.9831V90.381H41.7009V83.3926Z" fill="#ECAB03"/>
<path d="M51.6126 83.4023H47.8948V90.3908H51.6126V83.4023Z" fill="#ECAB03"/>
<path d="M46.6548 83.3984H42.937V90.3869H46.6548V83.3984Z" fill="#ECAB03"/>
<path d="M58.6349 83.4102H54.9171V90.3986H58.6349V83.4102Z" fill="#ECAB03"/>
<path d="M68.5485 83.4199H64.8326V90.4083H68.5505L68.5485 83.4199Z" fill="#ECAB03"/>
<path d="M63.5907 83.4141H59.8749V90.4025H63.5927L63.5907 83.4141Z" fill="#ECAB03"/>
<path d="M75.5729 83.4277H71.855V90.4162H75.5729V83.4277Z" fill="#ECAB03"/>
<path d="M85.4864 83.4355H81.7686V90.424H85.4864V83.4355Z" fill="#ECAB03"/>
<path d="M80.5286 83.4316H76.8108V90.4201H80.5266L80.5286 83.4316Z" fill="#ECAB03"/>
<path d="M92.5087 83.4453H88.7909V90.4337H92.5067L92.5087 83.4453Z" fill="#ECAB03"/>
<path d="M102.43 83.4629H98.7125V90.4513H102.43V83.4629Z" fill="#ECAB03"/>
<path d="M97.4666 83.4492H93.7488V90.4376H97.4666V83.4492Z" fill="#ECAB03"/>
<path d="M102.45 53.8354L38.0131 53.7695V57.5792L102.45 57.6431V53.8354Z" fill="#ECAB03"/>
<path d="M76.8487 45.3485L38.0231 45.3086V49.1163L76.8507 49.1562L76.8487 45.3485Z" fill="#ECAB03"/>
<path d="M58.6828 37.0786L38.0311 37.0586V40.8663L58.6828 40.8882V37.0786Z" fill="#ECAB03"/>
<path d="M111.11 68.4869L111.106 72.025C111.106 72.1331 111.194 72.2208 111.302 72.2209L117.751 72.2277C117.859 72.2278 117.947 72.1403 117.947 72.0322L117.951 68.494C117.951 68.386 117.863 68.2983 117.755 68.2981L111.306 68.2914C111.198 68.2913 111.11 68.3788 111.11 68.4869Z" fill="#ECAB03"/>
<path d="M118.819 68.4244V71.9625C118.819 72.0706 118.907 72.1582 119.015 72.1582H125.464C125.572 72.1582 125.66 72.0706 125.66 71.9625V68.4244C125.66 68.3163 125.572 68.2287 125.464 68.2287H119.015C118.907 68.2287 118.819 68.3163 118.819 68.4244Z" fill="#ECAB03"/>
<path d="M111.114 61.4146L111.11 64.9528C111.11 65.0608 111.198 65.1485 111.306 65.1486L117.755 65.1554C117.863 65.1555 117.951 65.068 117.951 64.9599L117.955 61.4218C117.955 61.3137 117.867 61.226 117.759 61.2259L111.31 61.2191C111.202 61.219 111.114 61.3065 111.114 61.4146Z" fill="#ECAB03"/>
<path d="M118.957 61.4244L118.953 64.9625C118.953 65.0706 119.041 65.1583 119.149 65.1584L125.598 65.1652C125.706 65.1653 125.794 65.0778 125.794 64.9697L125.798 61.4316C125.798 61.3235 125.71 61.2358 125.602 61.2357L119.153 61.2289C119.045 61.2288 118.957 61.3163 118.957 61.4244Z" fill="#ECAB03"/>
<path d="M111.111 65.8707L111.109 67.5739C111.109 67.6819 111.197 67.7696 111.305 67.7697L117.754 67.7765C117.862 67.7766 117.95 67.6891 117.95 67.581L117.952 65.8778C117.952 65.7698 117.864 65.6821 117.756 65.682L111.307 65.6752C111.199 65.6751 111.111 65.7626 111.111 65.8707Z" fill="#ECAB03"/>
<path d="M118.952 65.8766L118.95 67.5797C118.95 67.6878 119.038 67.7755 119.146 67.7756L125.595 67.7823C125.703 67.7825 125.791 67.6949 125.791 67.5869L125.793 65.8837C125.793 65.7756 125.705 65.6879 125.597 65.6878L119.148 65.6811C119.04 65.681 118.952 65.7685 118.952 65.8766Z" fill="#ECAB03"/>
<path d="M116.98 63.7194L116.973 69.8892C116.973 70.124 117.163 70.3147 117.398 70.3149L119.495 70.3171C119.729 70.3173 119.92 70.1271 119.92 69.8922L119.927 63.7225C119.927 63.4876 119.737 63.297 119.502 63.2967L117.405 63.2945C117.171 63.2943 116.98 63.4845 116.98 63.7194Z" fill="#114B59" stroke="#063A4F" stroke-width="0.17"/>
<path d="M135.863 98.5955C135.862 98.617 135.853 98.6373 135.837 98.6522C135.821 98.6671 135.801 98.6754 135.779 98.6753C135.769 98.6751 135.759 98.6728 135.75 98.6686C135.74 98.6645 135.732 98.6585 135.725 98.651C135.718 98.6436 135.713 98.6348 135.71 98.6253C135.706 98.6157 135.705 98.6056 135.705 98.5955C135.705 98.5851 135.707 98.5748 135.711 98.5651C135.714 98.5554 135.72 98.5466 135.727 98.5391C135.735 98.5317 135.743 98.5258 135.753 98.5217C135.762 98.5177 135.773 98.5156 135.783 98.5156C135.804 98.5156 135.825 98.524 135.84 98.539C135.855 98.554 135.863 98.5743 135.863 98.5955Z" fill="#055072"/>
<path d="M134.024 104.997C141.399 104.997 147.378 99.0181 147.378 91.6429C147.378 84.2678 141.399 78.2891 134.024 78.2891C126.649 78.2891 120.67 84.2678 120.67 91.6429C120.67 99.0181 126.649 104.997 134.024 104.997Z" fill="#01838A"/>
<path d="M131.354 95.2962C131.387 95.3617 131.43 95.4211 131.482 95.472L132.021 96.0111C132.152 96.1414 132.329 96.2146 132.513 96.2146C132.698 96.2146 132.875 96.1414 133.006 96.0111L140.567 88.4536C140.697 88.3229 140.771 88.1459 140.771 87.9614C140.771 87.7769 140.697 87.5998 140.567 87.4692L140.028 86.9301C139.897 86.7998 139.72 86.7266 139.536 86.7266C139.351 86.7266 139.174 86.7998 139.044 86.9301L132.544 93.4293L130.384 91.2829C130.253 91.1524 130.076 91.0792 129.891 91.0792C129.706 91.0792 129.529 91.1524 129.398 91.2829L128.861 91.822C128.73 91.9526 128.657 92.1296 128.657 92.3142C128.657 92.4987 128.73 92.6757 128.861 92.8064L131.354 95.2962Z" fill="#01838A"/>
<path d="M133.958 104.6C141.333 104.6 147.312 98.6216 147.312 91.2465C147.312 83.8713 141.333 77.8926 133.958 77.8926C126.583 77.8926 120.604 83.8713 120.604 91.2465C120.604 98.6216 126.583 104.6 133.958 104.6Z" fill="#ECAB03"/>
<path d="M131.289 94.8975C131.322 94.9633 131.366 95.0233 131.418 95.0752L131.955 95.6123C132.02 95.6773 132.096 95.7289 132.181 95.7642C132.265 95.7994 132.356 95.8175 132.448 95.8175C132.539 95.8175 132.63 95.7994 132.714 95.7642C132.799 95.7289 132.875 95.6773 132.94 95.6123L140.493 88.0548C140.558 87.9904 140.61 87.9137 140.645 87.8293C140.68 87.7448 140.698 87.6542 140.698 87.5626C140.698 87.4711 140.68 87.3805 140.645 87.296C140.61 87.2115 140.558 87.1349 140.493 87.0704L139.956 86.5333C139.892 86.4683 139.815 86.4167 139.731 86.3815C139.646 86.3463 139.555 86.3281 139.464 86.3281C139.372 86.3281 139.282 86.3463 139.197 86.3815C139.113 86.4167 139.036 86.4683 138.972 86.5333L132.473 93.0306L130.322 90.8821C130.258 90.8171 130.181 90.7655 130.097 90.7303C130.012 90.6951 129.921 90.6769 129.83 90.6769C129.738 90.6769 129.648 90.6951 129.563 90.7303C129.479 90.7655 129.402 90.8171 129.338 90.8821L128.799 91.4193C128.668 91.5499 128.595 91.7269 128.595 91.9114C128.595 92.096 128.668 92.273 128.799 92.4036L131.289 94.8975Z" fill="white"/>
</g>
<defs>
<clipPath id="clip0">
<rect width="147.378" height="105" fill="white"/>
</clipPath>
</defs>
</svg>
