<svg width="100" height="85" viewBox="0 0 170 105" fill="none" xmlns="http://www.w3.org/2000/svg">
<path d="M103.636 38.6518H95.3604C95.809 38.6535 96.2386 38.8328 96.5554 39.1504C96.8722 39.4679 97.0504 39.8981 97.0509 40.3466V44.6895C97.0498 45.1377 96.8714 45.5673 96.5547 45.8844C96.238 46.2015 95.8086 46.3805 95.3604 46.3822H94.4756V84.4612H103.691C103.981 84.4612 104.259 84.5763 104.464 84.7811C104.668 84.9859 104.783 85.2637 104.783 85.5534V93.0486C104.783 93.353 104.663 93.6449 104.447 93.8602C104.232 94.0754 103.94 94.1963 103.636 94.1963H1.84581C1.6952 94.1963 1.54606 94.1666 1.40693 94.1089C1.26781 94.0512 1.14143 93.9666 1.03503 93.86C0.928625 93.7534 0.844289 93.6269 0.786845 93.4877C0.729402 93.3484 0.699977 93.1992 0.700258 93.0486V84.4612H9.44368V46.3822H8.55886C8.11094 46.3783 7.68244 46.1988 7.3655 45.8822C7.04856 45.5657 6.8685 45.1374 6.86403 44.6895V40.3466C6.86794 39.8984 7.04776 39.4695 7.36476 39.1525C7.68175 38.8355 8.11057 38.6557 8.55886 38.6518H1.84581C1.6952 38.6518 1.54606 38.6221 1.40693 38.5644C1.26781 38.5067 1.14143 38.4221 1.03503 38.3155C0.928625 38.2089 0.844289 38.0824 0.786845 37.9432C0.729402 37.8039 0.699977 37.6547 0.700258 37.5041V30.915H104.783V37.4977C104.783 37.8019 104.662 38.0935 104.447 38.3086C104.232 38.5237 103.94 38.6448 103.636 38.6454" fill="#063A4F"/>
<path d="M24.9019 43.8066H9.4433V87.6113H24.9019V43.8066Z" fill="#156990"/>
<path d="M60.9773 43.8066H45.5165V87.6113H60.9773V43.8066Z" fill="#156990"/>
<path d="M94.4765 43.8066H79.0136V87.6113H94.4765V43.8066Z" fill="#156990"/>
<g opacity="0.9">
<g opacity="0.9">
<path opacity="0.9" d="M104.784 85.5536V96.7719C104.785 96.9215 104.756 97.0698 104.7 97.2083C104.643 97.3468 104.56 97.4729 104.455 97.5793C104.35 97.6856 104.225 97.7703 104.087 97.8283C103.949 97.8863 103.801 97.9166 103.651 97.9174H1.13275C0.983156 97.9166 0.83519 97.8863 0.697304 97.8283C0.559418 97.7703 0.434312 97.6856 0.329128 97.5793C0.223943 97.4729 0.14074 97.3468 0.0842718 97.2083C0.0278031 97.0698 -0.000826222 96.9215 1.8147e-05 96.7719V85.5536C-0.00111907 85.2654 0.112113 84.9886 0.314862 84.7838C0.517611 84.5791 0.793311 84.4631 1.08146 84.4614H103.705C103.991 84.4659 104.264 84.5832 104.464 84.7877C104.664 84.9922 104.775 85.2674 104.774 85.5536" fill="#065072"/>
</g>
</g>
<path d="M52.7396 0L0.698059 30.9215H104.783L52.7396 0Z" fill="#065072"/>
<path d="M104.783 30.915V37.4977C104.783 37.8019 104.662 38.0935 104.447 38.3086C104.232 38.5237 103.94 38.6448 103.636 38.6454H1.84581C1.6952 38.6454 1.54606 38.6157 1.40693 38.558C1.26781 38.5003 1.14143 38.4157 1.03503 38.3091C0.928625 38.2025 0.844289 38.076 0.786845 37.9368C0.729402 37.7975 0.699977 37.6483 0.700258 37.4977V30.915H104.783Z" fill="#0E465F"/>
<path d="M104.035 97.9174H1.44829C1.2499 97.9174 1.05963 97.8386 0.919351 97.6983C0.779068 97.558 0.700256 97.3678 0.700256 97.1694V85.7459C0.700822 85.5569 0.77628 85.3759 0.910089 85.2425C1.0439 85.1091 1.22514 85.0342 1.41409 85.0342H104.07C104.259 85.0342 104.44 85.1091 104.574 85.2425C104.707 85.3759 104.783 85.5569 104.783 85.7459V97.1694C104.783 97.3678 104.705 97.558 104.564 97.6983C104.424 97.8386 104.234 97.9174 104.035 97.9174Z" fill="#156990"/>
<path d="M27.4788 40.3472V44.69C27.4777 45.1382 27.2993 45.5678 26.9826 45.8849C26.6658 46.2021 26.2365 46.381 25.7883 46.3827H8.56006C8.11214 46.3788 7.68364 46.1993 7.3667 45.8828C7.04976 45.5662 6.8697 45.1379 6.86523 44.69V40.3472C6.86914 39.8989 7.04896 39.4701 7.36596 39.1531C7.68295 38.8361 8.11177 38.6562 8.56006 38.6523H25.7883C26.2369 38.654 26.6665 38.8333 26.9833 39.1509C27.3001 39.4685 27.4783 39.8986 27.4788 40.3472Z" fill="#065072"/>
<path d="M62.4496 46.3827H44.0437C43.7514 46.3821 43.4712 46.2658 43.2645 46.0591C43.0578 45.8524 42.9415 45.5722 42.9409 45.2799V39.7573C42.9415 39.4648 43.0578 39.1844 43.2644 38.9774C43.471 38.7703 43.7512 38.6535 44.0437 38.6523H62.4496C62.7424 38.6529 63.0232 38.7695 63.2303 38.9766C63.4373 39.1837 63.5539 39.4644 63.5545 39.7573V45.2799C63.5539 45.5726 63.4373 45.8531 63.2301 46.0598C63.023 46.2666 62.7422 46.3827 62.4496 46.3827Z" fill="#065072"/>
<path d="M97.0513 40.3472V44.69C97.0502 45.1382 96.8718 45.5678 96.5551 45.8849C96.2383 46.2021 95.809 46.381 95.3608 46.3827H78.1326C77.6846 46.3788 77.2561 46.1993 76.9392 45.8828C76.6223 45.5662 76.4422 45.1379 76.4377 44.69V40.3472C76.4416 39.8989 76.6215 39.4701 76.9385 39.1531C77.2555 38.8361 77.6843 38.6562 78.1326 38.6523H95.3608C95.8094 38.654 96.239 38.8333 96.5558 39.1509C96.8726 39.4685 97.0508 39.8986 97.0513 40.3472Z" fill="#065072"/>
<path d="M52.74 6.74512L17.7258 27.5489H87.7564L52.74 6.74512Z" fill="#156990"/>
<path d="M152.384 53.5279H145.759C146.076 53.529 146.38 53.6555 146.604 53.8797C146.828 54.1039 146.954 54.4077 146.956 54.7247V58.5718C146.954 58.8886 146.828 59.1922 146.604 59.4161C146.379 59.6399 146.076 59.7659 145.759 59.7665H144.872V90.5426H152.431C152.636 90.5426 152.832 90.6239 152.977 90.7686C153.121 90.9133 153.203 91.1095 153.203 91.3141V97.5998C153.203 97.8146 153.117 98.0206 152.965 98.1725C152.814 98.3244 152.608 98.4098 152.393 98.4098H69.887C69.7807 98.4098 69.6753 98.3888 69.5771 98.3481C69.4788 98.3074 69.3895 98.2477 69.3143 98.1725C69.2391 98.0973 69.1794 98.008 69.1387 97.9097C69.098 97.8115 69.077 97.7061 69.077 97.5998V91.3206C69.0776 91.1157 69.1594 90.9195 69.3044 90.7749C69.4494 90.6302 69.6459 90.549 69.8507 90.549H76.1491V59.7665H75.2622C74.9451 59.7665 74.641 59.6407 74.4166 59.4167C74.1922 59.1927 74.0659 58.8888 74.0653 58.5718V54.7247C74.0653 54.4073 74.1914 54.1029 74.4159 53.8784C74.6403 53.654 74.9448 53.5279 75.2622 53.5279H69.887C69.7807 53.5279 69.6753 53.5069 69.5771 53.4662C69.4788 53.4255 69.3895 53.3659 69.3143 53.2906C69.2391 53.2154 69.1794 53.1261 69.1387 53.0279C69.098 52.9296 69.077 52.8243 69.077 52.7179V47.2808H153.201V52.7136C153.201 52.9284 153.115 53.1345 152.963 53.2864C152.811 53.4383 152.605 53.5236 152.391 53.5236" fill="#0A4649"/>
<path d="M88.6438 57.6938H76.1495V93.0971H88.6438V57.6938Z" fill="#0099A0"/>
<path d="M117.798 57.6938H105.304V93.0971H117.798V57.6938Z" fill="#0099A0"/>
<path d="M144.87 57.6938H132.376V93.0971H144.87V57.6938Z" fill="#0099A0"/>
<g opacity="0.9">
<g opacity="0.9">
<path opacity="0.9" d="M153.201 91.3204V100.16C153.201 100.375 153.115 100.581 152.963 100.733C152.811 100.885 152.605 100.97 152.391 100.97H69.887C69.7807 100.97 69.6753 100.949 69.5771 100.908C69.4788 100.868 69.3895 100.808 69.3143 100.733C69.2391 100.657 69.1794 100.568 69.1387 100.47C69.098 100.372 69.077 100.266 69.077 100.16V91.3204C69.0776 91.1155 69.1594 90.9193 69.3044 90.7747C69.4494 90.63 69.6459 90.5488 69.8507 90.5488H152.429C152.634 90.5488 152.83 90.6301 152.975 90.7748C153.119 90.9195 153.201 91.1157 153.201 91.3204Z" fill="#00848A"/>
</g>
</g>
<path d="M111.14 22.2925L69.0814 47.2831H153.201L111.14 22.2925Z" fill="#00848A"/>
<path d="M153.201 47.2808V52.7136C153.201 52.9284 153.115 53.1345 152.963 53.2864C152.811 53.4383 152.605 53.5236 152.391 53.5236H69.887C69.7807 53.5236 69.6753 53.5027 69.5771 53.462C69.4788 53.4213 69.3895 53.3616 69.3143 53.2864C69.2391 53.2112 69.1794 53.1219 69.1387 53.0236C69.098 52.9253 69.077 52.82 69.077 52.7136V47.2808H153.201Z" fill="#0B696D"/>
<path d="M152.453 101.427H69.8294C69.631 101.427 69.4407 101.348 69.3005 101.208C69.1602 101.067 69.0814 100.877 69.0814 100.679V91.7259C69.0819 91.5369 69.1574 91.3559 69.2912 91.2225C69.425 91.0891 69.6062 91.0142 69.7952 91.0142H152.487C152.676 91.0142 152.857 91.0891 152.991 91.2225C153.125 91.3559 153.2 91.5369 153.201 91.7259V100.679C153.201 100.877 153.122 101.067 152.982 101.208C152.841 101.348 152.651 101.427 152.453 101.427Z" fill="#0099A0"/>
<path d="M90.7258 54.7257V58.5727C90.7247 58.8896 90.5982 59.1931 90.3739 59.417C90.1496 59.6408 89.8459 59.7668 89.529 59.7674H75.263C74.9459 59.7674 74.6418 59.6416 74.4174 59.4176C74.193 59.1936 74.0667 58.8897 74.0661 58.5727V54.7257C74.0661 54.4082 74.1922 54.1038 74.4167 53.8794C74.6411 53.6549 74.9455 53.5288 75.263 53.5288H89.529C89.8462 53.5294 90.1503 53.6557 90.3746 53.88C90.599 54.1043 90.7253 54.4084 90.7258 54.7257Z" fill="#00848A"/>
<path d="M118.777 59.7665H104.325C104.032 59.766 103.752 59.6497 103.545 59.443C103.338 59.2364 103.221 58.9562 103.22 58.6637V54.6372C103.221 54.3445 103.338 54.0641 103.545 53.8571C103.752 53.6501 104.032 53.5334 104.325 53.5322H118.777C119.069 53.5334 119.349 53.6502 119.556 53.8572C119.763 54.0643 119.879 54.3447 119.88 54.6372V58.6765C119.879 58.9689 119.763 59.249 119.556 59.4557C119.349 59.6624 119.069 59.7788 118.777 59.7794" fill="#00848A"/>
<path d="M146.955 54.7257V58.5727C146.953 58.8892 146.827 59.1924 146.603 59.4162C146.38 59.64 146.076 59.7663 145.76 59.7674H131.49C131.173 59.7668 130.869 59.6408 130.645 59.4168C130.421 59.1929 130.295 58.8894 130.295 58.5727V54.7257C130.295 54.4086 130.421 54.1045 130.645 53.8801C130.869 53.6557 131.172 53.5294 131.49 53.5288H145.76C146.077 53.5299 146.381 53.6564 146.605 53.8806C146.829 54.1048 146.956 54.4086 146.957 54.7257" fill="#00848A"/>
<path d="M111.14 27.7427L82.8429 44.5563H139.439L111.14 27.7427Z" fill="#0099A0"/>
<path d="M153.972 96.257C153.971 96.2864 153.958 96.3142 153.936 96.3344C153.915 96.3547 153.886 96.366 153.857 96.366C153.843 96.3657 153.829 96.3626 153.817 96.357C153.804 96.3513 153.793 96.3431 153.783 96.3329C153.774 96.3227 153.767 96.3107 153.762 96.2977C153.757 96.2846 153.756 96.2708 153.756 96.257C153.756 96.2427 153.759 96.2286 153.764 96.2154C153.769 96.2022 153.777 96.1902 153.787 96.18C153.797 96.1698 153.809 96.1618 153.822 96.1563C153.835 96.1508 153.849 96.1479 153.863 96.1479C153.892 96.1479 153.92 96.1594 153.94 96.1799C153.961 96.2003 153.972 96.228 153.972 96.257Z" fill="#065072"/>
<path d="M151.461 68.5303C155.068 68.5303 158.593 69.5997 161.592 71.6034C164.591 73.6071 166.928 76.455 168.308 79.787C169.688 83.1189 170.049 86.7854 169.346 90.3226C168.642 93.8598 166.906 97.1089 164.355 99.6591C161.805 102.209 158.556 103.946 155.019 104.65C151.482 105.353 147.815 104.992 144.483 103.612C141.151 102.232 138.303 99.8946 136.3 96.8959C134.296 93.8972 133.227 90.3717 133.227 86.7651C133.227 81.929 135.148 77.2908 138.567 73.8711C141.987 70.4514 146.625 68.5303 151.461 68.5303Z" fill="#00848A"/>
<path d="M147.816 91.7528C147.862 91.841 147.921 91.9217 147.991 91.9922L148.726 92.7274C148.814 92.8159 148.919 92.8861 149.034 92.934C149.15 92.9819 149.273 93.0065 149.398 93.0065C149.523 93.0065 149.647 92.9819 149.762 92.934C149.878 92.8861 149.982 92.8159 150.071 92.7274L160.385 82.4217C160.473 82.3333 160.544 82.2284 160.591 82.1129C160.639 81.9974 160.664 81.8735 160.664 81.7485C160.664 81.6234 160.639 81.4995 160.591 81.384C160.544 81.2685 160.473 81.1636 160.385 81.0752L159.652 80.3357C159.564 80.2473 159.459 80.1771 159.343 80.1292C159.228 80.0813 159.104 80.0566 158.98 80.0566C158.855 80.0566 158.731 80.0813 158.616 80.1292C158.5 80.1771 158.396 80.2473 158.307 80.3357L149.434 89.2074L146.495 86.2687C146.407 86.1802 146.302 86.11 146.187 86.0622C146.071 86.0143 145.948 85.9896 145.823 85.9896C145.698 85.9896 145.574 86.0143 145.459 86.0622C145.344 86.11 145.239 86.1802 145.151 86.2687L144.415 87.0039C144.238 87.1825 144.138 87.4242 144.138 87.6761C144.138 87.928 144.238 88.1696 144.415 88.3482L147.816 91.7528Z" fill="#00848A"/>
<path d="M151.372 67.9868C154.978 67.9868 158.504 69.0563 161.503 71.0599C164.501 73.0636 166.838 75.9115 168.219 79.2435C169.599 82.5755 169.96 86.2419 169.256 89.7791C168.553 93.3163 166.816 96.5655 164.266 99.1157C161.716 101.666 158.466 103.403 154.929 104.106C151.392 104.81 147.726 104.449 144.394 103.068C141.062 101.688 138.214 99.3511 136.21 96.3524C134.206 93.3537 133.137 89.8282 133.137 86.2217C133.137 81.3855 135.058 76.7474 138.478 73.3277C141.898 69.908 146.536 67.9868 151.372 67.9868Z" fill="#EBAB21"/>
<path d="M147.727 91.2086C147.772 91.2982 147.831 91.3798 147.903 91.4501L148.638 92.1853C148.816 92.3629 149.058 92.4626 149.31 92.4626C149.562 92.4626 149.804 92.3629 149.982 92.1853L160.292 81.871C160.47 81.6924 160.569 81.4508 160.569 81.1989C160.569 80.947 160.47 80.7053 160.292 80.5267L159.557 79.7915C159.469 79.703 159.364 79.6327 159.248 79.5848C159.133 79.5369 159.009 79.5122 158.884 79.5122C158.759 79.5122 158.635 79.5369 158.519 79.5848C158.404 79.6327 158.299 79.703 158.21 79.7915L149.339 88.6653L146.4 85.7287C146.222 85.5511 145.98 85.4514 145.728 85.4514C145.476 85.4514 145.234 85.5511 145.056 85.7287L144.321 86.4639C144.232 86.5521 144.162 86.6568 144.114 86.7722C144.066 86.8875 144.042 87.0112 144.042 87.1361C144.042 87.261 144.066 87.3846 144.114 87.5C144.162 87.6153 144.232 87.7201 144.321 87.8083L147.727 91.2086Z" fill="white"/>
</svg>
